<mxfile host="app.diagrams.net" modified="2021-07-12T03:29:47.325Z" agent="5.0 (Windows NT 10.0; Win64; x64) AppleWebKit/537.36 (KHTML, like Gecko) Chrome/91.0.4472.124 Safari/537.36" etag="qOX30TWSmLZWi8cStRd1" version="14.8.3" type="github">
  <diagram id="iEXIyFb6EACtyp-dPP8e" name="Page-1">
    <mxGraphModel dx="712" dy="457" grid="1" gridSize="10" guides="1" tooltips="1" connect="1" arrows="1" fold="1" page="1" pageScale="1" pageWidth="827" pageHeight="1169" math="0" shadow="0">
      <root>
        <mxCell id="0" />
        <mxCell id="1" parent="0" />
        <mxCell id="e7UA-xVsm7CpeUVflzim-3" value="" style="edgeStyle=orthogonalEdgeStyle;rounded=0;orthogonalLoop=1;jettySize=auto;html=1;" edge="1" parent="1" source="e7UA-xVsm7CpeUVflzim-1" target="e7UA-xVsm7CpeUVflzim-2">
          <mxGeometry relative="1" as="geometry" />
        </mxCell>
        <mxCell id="e7UA-xVsm7CpeUVflzim-1" value="Jenkins打包" style="rounded=0;whiteSpace=wrap;html=1;" vertex="1" parent="1">
          <mxGeometry x="340" y="70" width="120" height="60" as="geometry" />
        </mxCell>
        <mxCell id="e7UA-xVsm7CpeUVflzim-6" value="" style="edgeStyle=orthogonalEdgeStyle;rounded=0;orthogonalLoop=1;jettySize=auto;html=1;" edge="1" parent="1" source="e7UA-xVsm7CpeUVflzim-2" target="e7UA-xVsm7CpeUVflzim-5">
          <mxGeometry relative="1" as="geometry" />
        </mxCell>
        <mxCell id="e7UA-xVsm7CpeUVflzim-2" value="Z:\ASEAN_2.4.4-H5\workspace\build&lt;br&gt;目录下刷新" style="rounded=0;whiteSpace=wrap;html=1;" vertex="1" parent="1">
          <mxGeometry x="340" y="210" width="120" height="60" as="geometry" />
        </mxCell>
        <mxCell id="e7UA-xVsm7CpeUVflzim-9" value="" style="edgeStyle=orthogonalEdgeStyle;rounded=0;orthogonalLoop=1;jettySize=auto;html=1;" edge="1" parent="1" source="e7UA-xVsm7CpeUVflzim-5" target="e7UA-xVsm7CpeUVflzim-8">
          <mxGeometry relative="1" as="geometry" />
        </mxCell>
        <mxCell id="e7UA-xVsm7CpeUVflzim-5" value="&lt;span style=&quot;color: rgba(0 , 0 , 0 , 0) ; font-family: monospace ; font-size: 0px&quot;&gt;%3CmxGraphModel%3E%3Croot%3E%3CmxCell%20id%3D%220%22%2F%3E%3CmxCell%20id%3D%221%22%20parent%3D%220%22%2F%3E%3CmxCell%20id%3D%222%22%20value%3D%22%22%20style%3D%22shape%3Dimage%3BverticalLabelPosition%3Dbottom%3BlabelBackgroundColor%3D%23ffffff%3BverticalAlign%3Dtop%3Baspect%3Dfixed%3BimageAspect%3D0%3Bimage%3Ddata%3Aimage%2Fpng%2CiVBORw0KGgoAAAANSUhEUgAAAa0AAAExCAYAAADP8v0PAAAfS0lEQVR4Ae3dO47dRhaAYa9jAO1HgLcwoVIlCgcQ4CUoEWBA2oHQgQIHhgBFBoRJbCedGDIMOHGonhVwUCSL9%2FB1H%2F269zQ%2FAT3NZ1Xx1M%2F6T5Hs8XfX19fNt2%2Ffmpubm6N%2Fvn79evSxp5Tr2OP7QKzECgMYeEoM7PNK3PcdaQH%2FKYHvWvCMgZwMRDFN%2BzDuI60TZpjTQFrPeXPoN%2F2GgctjIIpp2j9xH2mRlke9GMAABs7OQBQTaQHy7EBOIbR%2BeZmuPtEn52SAtIiKqDCAAQykYeDBpVUq8CMGGMAABjBwXwyszfRK%2BXXfrd5p1ZP99jgBAxjAAAYemgHS8shgyFoeGjblG9AwgIG7MkBapEVaGMAABtIwQFpgTQPrXTM058vyMZCfAdIiLdLCAAYwkIYB0gJrGlhlyfmzZH2oD%2B%2FKAGmRFmlhAAMYSMMAaYE1Dax3zdCcL8vHQH4GSIu0SAsDGMBAGgZIC6xpYJUl58%2BS9aE%2BvCsDpEVapIUBDGAgDQOPJq3frz40z168X%2F15efWleT7b%2F3PzsYfp0Pmzst9ep%2BmEu2Yezpe9YgADW2Hg0aS1C%2Bh18%2FL1l%2Bb3P740z8vvtQyn7H8xkdYgor%2BbN6%2FfNy9%2F6UHdeyyYd7EXC7HAAAZyM5BLWrOZ2PrM7dkguNwd5AbTfxjAAAZ2DDyitK6bl6vS2c2ohs6ZzJ6G7XFmdswx8XjLHpliAAMYSM3AI0uryGn6eLDI7IC0fvl59V3Y7F1WEOPzq79Td86iqN1w%2BhQDGNgwA48vrTI7Gr3TqtJamoktyCx2lpmWmzfyYBkPGHjyDNxZWqWAfT%2B72UInpzflK8LyvqnKq8y82plW%2Bf2hefNH%2F%2BxyQUhHf0G48IHHvjbat78PxUd8MICBx2Zg547d%2B6yyrbSj7rvVf7k4FlALWv5dZ1JVTHW9fEzRPzaM0lrImIq0Dj7yK48SF6S13KZxMBwjHhjAAAbOz8A%2Br8R9jyCtpcd9KzOtFWnte4c17COtIRNxA57%2FBtQH%2BgADpzEQxTSNXdz3CNJa%2B0R9ZaY1mTWZaZ3W8dPOti5%2BGMBABgaimKbtjfseQVonzrSKtMLfW93lndb0wq27eTGAAQxcJgNRTNM%2BivseQVqnzbQ%2Bvn0%2FeodlpnWZgE2hsq6fMICBuzAQxTQtJ%2B57BGntm2ndNPOZVPloo%2Fu%2FbBreV4W%2Fwzq4zbst77YW3o1ObwLrBlgMXBYDUUzTvon7HlhalxWUaSCs6x8MYAADl8FAFNO0T%2BI%2B0pKVm5lhAAMYODsDUUykBcizAzmF0PplZLf6QT9cCgOkRVREhQEMYCANA6QF1jSwXkqmpx1mHRg4HwOkRVqkhQEMYCANA6QF1jSwym7Pl92KvdhfCgOkRVqkhQEMYCANA6QF1jSwXkqmpx1mHRg4HwOkRVqkhQEMYCANA6QF1jSwym7Pl92KvdhfCgOkRVqkhQEMYCANA6QF1jSwXkqmpx1mHRg4HwOkRVqkhQEMYCANA6QF1jSwym7Pl92KvdhfCgOkRVqkhQEMYCANA6QF1jSwXkqmpx1mHRg4HwOkRVqkhQEMYCANA6QF1jSwym7Pl92KvdhfCgOkRVqkhQEMYCANA6QF1jSwXkqmpx1mHRg4HwOkRVqkhQEMYCANA6QF1jSwym7Pl92KvdhfCgOkRVqkhQEMYCANA6QF1jSwXkqmpx1mHRg4HwOkRVqkhQEMYCANA6QF1jSwym7Pl92KvdhfCgOkRVqkhQEMYCANA6QF1jSwXkqmpx1mHRg4HwOkRVqkhQEMYCANA6QF1jSwym7Pl92KvdhfCgOkRVqkhQEMYCANA6QF1jSwXkqmpx1mHRg4HwOkRVqkhQEMYCANA6QF1jSwym7Pl92KvdhfCgOkRVqkhQEMYCANA6QF1jSwXkqmpx1mHRg4HwOkRVqkhQEMYCANA6QF1jSwym7Pl92KvdhfCgOkRVqkhQEMYCANA6QF1jSwXkqmpx1mHRg4HwOkRVqkhQEMYCANA6QF1jSwym7Pl92KvdhfCgOkRVqkhQEMYCANA6QF1jSwXkqmpx1mHRg4HwOkRVqkhQEMYCANA6QF1jSwym7Pl92KvdhfCgOkRVqkhQEMYCANA6QF1jSwXkqmpx1mHRg4HwOkRVqkhQEMYCANA6QF1jSwym7Pl92KvdhfCgOkRVqkhQEMYCANA4ekVfaXn%2B%2Bur6%2Bbb9%2B%2BnXRh%2Bwq%2FFGtrhwwSAxjAQB4GjvUKacnETkpYDAJ5BgF9pa8yMUBaZERGGMAABtIwQFpgTQNrpmxQW81eMPAwDJAWaZEWBjCAgTQMkBZY08Aqc32YzFVcxTUTA6RFWqSFAQxgIA0DpAXWNLBmyga11ewFAw%2FDAGmRFmlhAAMYSMMAaYE1Dawy14fJXMVVXDMxQFqkRVoYwAAG0jBAWmBNA2umbFBbzV4w8DAMkBZpkRYGMICBNAyQFljTwCpzfZjMVVzFNRMDpEVapIUBDGAgDQOkBdY0sGbKBrXV7AUDD8MAaZEWaWEAAxhIwwBpgTUNrDLXh8lcxVVcMzGwT1plX%2F3xH4EkN3LDAAYwcHYGDkmrCpi0wHp2WCuMfpsZYGC7DJAWGZERBjCAgTQMkBZY08Aqu95udq3v9X1lgLRIi7QwgAEMpGGAtMCaBtaaafkt68bAdhkgLdIiLQxgAANpGCAtsKaBVXa93exa3%2Bv7ygBpkRZpYQADGEjDAGmBNQ2sNdPyW9aNge0yQFqkRVoYwAAG0jBAWmBNA6vservZtb7X95UB0iIt0sIABjCQhgHSumBY%2F%2FWvfzV%2BxAADGNgKA3U2te83aV24tBr%2FREAERGADEShi3ieruo%2B0SGsDt4NLFAERuPQIkNYFy6hmDId%2Bl070TwREQAS2EAHSIq0tcO4aRUAEnkgESIu0ngjKLkMERGALESAt0toC565RBETgiUTgCUjr7%2BbN6%2FfN86u%2Fj%2FqipLwf%2Bvh2enxXxrO313vK6I958b55duhnVs518%2FLQOf3%2BU66jvusqneifCDyFCHx697559u6vp3Api9fQXt8PvzV%2FLu49beO0rOn6cmnfmh9%2FyB3jDUqrCORD8%2BaP4yT08pf6F%2Bbd8bv1un38%2B%2FerD81%2B%2BY2Pr%2BJZlun6sfG8RWn9%2BnmvXL%2F%2F6duE6b%2BaVy%2FeN69%2BnWxeWP3zp6u27HkZ4eBp%2FZMbtZYxTQCW6q%2FHrtVX9y8PdqfepF0cYrvW6g1XGxb7%2Bl58bj6FrfsXTzunu9618rv2j9r8z2%2FN9wtJUxfr4%2Ft9%2FzXcz9780tofz%2BPEckwse2bCfXVc2afeD8e05XGP2Zy0Wqm8%2FtL8Hh4LLm2LUuiWk0lrkaM56PGwU6B%2F9e5z8yzcMLGcxUH1189NHEjbY1bOj2U1Tdfmw%2FV1M%2BC59E67SUsMYjubXr6jbeMGjtYGgZ4grVPPWYzv0Io1aV01P%2F4zHDRaOK7fR6c82ErbluQzrX3x3LfvrkE9ruzT7oe7tukhzt%2BYtLrHdONHcJ2MxtuWZjh3kVZ3bsze15YPt2PetsWZ1gIt3WC3Png1bUa%2BZ38psx3EPzef%2Bux9LomFQXOtLcdI62B9TdNe1w%2Bfm1flscdMFne%2FSY8bDJqmxu%2FVuzITXZsJTYLRx%2FyUc06WVo3hpOph9Zh%2BHw5%2B2IU21smlVTlYShKOZukWYT6u7LvfD7do2r2e8mSkdYwEyrusclwRQ11eO2%2FYPszKjhfP%2FT0e7Osc2jAXVpkFHietJZn0AA%2Fy6Nb3zSp2g8oa%2FF09y4%2Fqdux2ojn8bP9wfVVavzV%2F9iId173Wzl1bDi2dMhiU2O2XSqxtF%2B%2Fjz%2Bmvd1WKC%2F18SFr9bHba70vXvbotiqb2Q3gkOU1uajmf%2BkfNddbebg9ltesv4uy356svO5Zbyxw4qPWH8rro90zU%2FYuxHNdT2zf03vQah3uoHLHr1%2BH4fuG4Ni70YdM0w7nTslbW281t34f38O9%2Bu7h3Wv%2F973%2F7K5j%2FWtr3ZKR1cIbyy8%2FNs9dfmjfTjzD67fFx4fzRYJHFXWZay7KZ1rP6gcg9SGsKfIdHf%2FPGG27fANffqHWg6Aba%2BcysrasMCLPBYgflUdI6sr5YVtem%2BG6uv8Y9bdm1amGpb8N0QJ8eGePbteHwTOs255R695c%2FH%2FBqTIZEbOnd5VK%2Ft9ti%2F9aBPG7r4luZqI9Th%2FXS4IUYrjHSbu%2F7qrZ7V9b82j79tEt8hjIjz33dkcU%2Ff%2FocHpWu3QNRlN01%2FFjf987islbGnIF9bdwxNr%2FOEsb23HBth9aX%2BmKo%2F7b3wxT8O67%2F73%2F%2Fa%2F797383V1dXs5LKtrKvHBP%2FbUZaH9%2BWjy%2FmXw7ORbEmmNtJ6%2BgZ3ZD19VnRAVFF4R2cabU3WRzIIwLT5e6G2Q0Uu%2F2zwXJhMKpH1wGnHSgXbpDR%2FuHaxzf5sfW1xw03cz%2BADNlzv77QhtrW1d91wBvKXj5y2s7p%2BtJZ02Om60vn1G3dsSF7HuK327YbAOtZu9%2F1%2FHEfL%2FX7ZFs%2FWH%2F%2FQxjQ2xhViS0PtqXm6fV1g%2Be4v8tx7fbSVz2zo%2Bvo%2B2Pc7t11rZU5rXt3Rr%2FU1lXbcoiXbv%2BsDaM4lHInseurOq6Ny3Fszw0s7l9fLqPOAqPEZ%2FF45A1L4loTVmnaZqRVB%2FmxpA488huJ48CxceCYffK%2BJMKl92tLxx3etl9aHbynQNreDLNBfqmcqSDmtHc3aRlM68DWHdMOJOEGnJ95fH2zsqps2ms4NAjNay5buoHu%2FerHJsNZ%2FUAe318cN0guxGMQbSm9xraKaHf8%2FvLXBquhxe3CdMArG5f6PW5r6333Vxebvu%2FabbUf90llEqel%2Boc2%2FHDVfu04Elbb6hCTWme7vfuftTI7Ae7iN9QT79ka%2B33XUE6sbI3OrX00Tgxj7Gozj2vjch9Oz927vnodt7sfavsf6ncU1z5hlfo3Lq0VIfzxpXn%2B4n0z%2Frz9djOtVpZ9ed3jmZ%2Bbj%2B2Xi%2FVvt%2Br6TXOzWO9KG8PXj%2Fuk1YJdb8hjiWuBH9%2FkNfONj5ji8izzHNVVB5uazfZSWBh4htP6TDvWEZdjfaOBsy%2BgG9jLIHLqTVrbOh6AhnaNFnbHxraNlmfyv805o0pns5bx3uUBb3zMSvwX%2Bn0X267dbdzb47q%2BLHwNclkdKOsHPDumpgNubV%2B3vZPW7D1SPaivp41zYGitzLG0%2BmQo3hNxprXvGkr9h%2FbXNg7H7q65bDqljUNc%2BzKn5%2B5dX21nz9%2BMy9jw8yxXcS09Eowt2ra0liSxtK0VxF2k9ffsE%2FvnV1%2B6vxe7%2Bjn8PVUnsN%2F%2FOP4PpYsUV6XVD%2FxxgI%2Bdv77cgb27aXrQwwCxO3ffvt1R3cBxrLT2lTnftxtYQ33DTOWqKY%2Bzjp1ptgNBHNBikUcud8LcXesxp51yzv5jj5NWe52zgauL7a7f6yB91fz4a%2Flbr3pN3XGvfi11xUF5ve5pm6cDbo3R0K4qplkb65FVhLvkYq3vRnVNZnyltHHb1q%2Bhq%2FnQ%2FtC%2BhQ8yjmpjZXdy7aPrWBDgeP9aO7vtx94P8WoeY7mIq%2Fzs%2B7dtaQUZlazt5dtOIOMZVp3p3EFa%2Fayo%2FXuw8lihfXxY%2F8j5pum2hxnXMIvqH0mOHlPW9ux%2BL0vrGDjnAqiwtDdyldRq1tYfPRoISr1xICvH9PWEm3BUfq20%2Fj6pvpVZQymrDnwl5qHuWs38dxez%2FZI%2FHNfxIFhquc0589bVLfPy655dXVE8n96N%2B6M7f7ytljDvl15Q5e%2FyQgy740pCsPsQopTRlb0TSVvuQvI0HmBr7ZNHlLX%2Far3%2F%2FNa8in8UP%2BKuP3fa19O6p%2Bu1jkHI69dQuVi8xlJObefuckaPUsvmTloTHqdtGo6rScJO0HH2OY3h4vrkXlysP7Q3wyJpDYJYeFw37CuC6AWy8ix79Eho8k5r%2BBhjtH0nrdEjxNExt5fWAOdKe7tBbV1adaAtN2pXVriBZmRPB%2BV%2BPdQdB9Fyer3xR3HrB5xT6%2BsG0PHgWZs41LMwoNRjht%2FDALZ7R7FrXx3k5wIezu8XujpjvG5zzrTU3fq8%2FN2%2B2m%2FjePf1D%2F0R2xbPLctd39UBumypMYzbakIwrqcvqx%2BE57Hb1dX28UR4ZW%2B7PfZVLas%2FtmOj9k%2Ftk67cWubwGX1%2FvaN2h%2Btp21fKbeuYxKTWW2MW2zQtoxyzcC1dq8bxPLaNQ6IX6q%2Fn1v8LqEPrQzxrGe1Xo4dZ7Np9uf%2BbSlrD4B86YXdjVJAXfgcRjD%2FE2M1W6ocaN%2BUT%2BPb%2F5mm673YzrbbNQ%2F0T8S3NoNr662xs2obl9eWZ1t2ha2%2BKyc1691KVcOkRyNrv00H8UuKcNZ6XEr9pO1JJaxDLaAa0PJBv6diHklaXTY%2Bz2SlA1p9gBNoZZ75%2Bv1RpuY%2Fu9x4hrScgwAeT1v2ypjQReNAIXKy0HvSqt1c4aZHWhqifv2sbHi%2BvvpPYUHiSXyppJe%2FAI5tPWqR1JCoOEwEREIHzR4C0SOv8FGqBCIiACBwZAdJ6ItIqHelHDDCAgS0wcMyHdl%2B%2Ffl39L9HHfd9dX1833759Wz14qbJYwNJ%2B23whiQEMYAADpzCwzytxH2k9gZnbKWA41kCCAQxcIgNRTNP2xX2kRVonzbKnMFk3AGIAA%2FfBQBTTtLy4j7RIi7QwgAEMnJ2BKCbSAuTZgZxCaF12jgEMRAZIi6iICgMYwEAaBkgLrGlgjdmWZdk3BrbJAGmRFmlhAAMYSMMAaYE1Dawy621m1vpdv0cGSIu0SAsDGMBAGgZIC6xpYI3ZlmXZNwa2yQBpkRZpYQADGEjDAGmBNQ2sMuttZtb6Xb9HBkiLtEgLAxjAQBoGSAusaWCN2ZZl2TcGtskAaZEWaWEAAxhIwwBpgTUNrDLrbWbW%2Bl2%2FRwZIi7RICwMYwEAaBkgLrGlgjdmWZdk3BrbJAGmRFmlhAAMYSMMAaYE1Dawy621m1vpdv0cGSIu0SAsDGMBAGgZIC6xpYI3ZlmXZNwa2yQBpkRZpYQADGEjDAGmBNQ2sMuttZtb6Xb9HBkiLtEgLAxjAQBoGSAusaWCN2ZZl2TcGtskAaZEWaWEAAxhIwwBpgTUNrDLrbWbW%2Bl2%2FRwZIi7RICwMYwEAaBkgLrGlgjdmWZdk3BrbJAGmRFmlhAAMYSMMAaYE1Dawy621m1vpdv0cGSIu0SAsDGMBAGgZIC6xpYI3ZlmXZNwa2yQBpkRZpYQADGEjDAGmBNQ2sMuttZtb6Xb9HBkiLtEgLAxjAQBoGSAusaWCN2ZZl2TcGtskAaZEWaWEAAxhIwwBpgTUNrDLrbWbW%2Bl2%2FRwZIi7RICwMYwEAaBkgLrGlgjdmWZdk3BrbJAGmRFmlhAAMYSMMAaYE1Dawy621m1vpdv0cGSIu0SAsDGMBAGgZIC6xpYI3ZlmXZNwa2yQBpkRZpYQADGEjDAGmBNQ2sMuttZtb6Xb9HBkiLtEgLAxjAQBoGSAusaWCN2ZZl2TcGtskAaZEWaWEAAxhIwwBpgTUNrDLrbWbW%2Bl2%2FRwZIi7RICwMYwEAaBkgLrGlgjdmWZdk3BrbJAGmRFmlhAAMYSMMAaYE1Dawy621m1vpdv0cGSIu0SAsDGMBAGgZIC6xpYI3ZlmXZNwa2yQBpkRZpYQADGEjDAGmBNQ2sMuttZtb6Xb9HBkiLtEgLAxjAQBoGSAusaWCN2ZZl2TcGtskAaZEWaWEAAxhIwwBpgTUNrDLrbWbW%2Bl2%2FRwZIi7RICwMYwEAaBkgLrGlgjdmWZdk3BrbJAGmRFmlhAAMYSMMAaYE1Dawy621m1vpdv0cGSIu0SAsDGMBAGgZIC6xpYI3ZlmXZNwa2yQBpkRZpYQADGEjDAGmBNQ2sMuttZtb6Xb9HBkiLtEgLAxjAQBoGSAusaWCN2ZZl2TcGtskAaZEWaWEAAxhIwwBpgTUNrDLrbWbW%2Bl2%2FRwZIi7RICwMYwEAaBkgLrGlgjdmWZdk3BrbJAGmRFmlhAAMYSMMAaYE1Dawy621m1vpdv0cGSIu0SAsDGMBAGgZIC6xpYI3ZlmXZNwa2yQBpkRZpYQADGEjDAGmBNQ2sMuttZtb6Xb9HBkiLtEgLAxjAQBoGSOuJwvqf%2F%2Fyn8SMGGMBAJgbijGptmbSesLQa%2F0RABEQgSQSKXNdEFbeTFmklQVozRUAEnnIESOuJyihmHPuWCwD%2BiYAIiECWCJAWaWVhVTtFQAREoH0Hvy8Rr%2Fs8HnyicjPTMgqIgAhkioCZ1hOVUc02Dv0mrUy3q7aKgAg8AWn93bx5%2Fb55fvX3UV%2BUlEH849vp8V0Zz95er5TR7X%2F5y01z88eX5vmLn5uPq7K7bl6%2BeN88e%2FG%2BaY%2Ffe9y%2BcnZ%2FKPj71Ye2vFLm3p%2FV9u%2FKmkqMtAwCIiACmSKwQWkVqXxo3vzRi%2BqACDrxrEjrl58XJHKciG5uSjuOO7aV1gEhHXPMVFhlfS6tv5pXk5h8%2F9O3Vab%2F%2FOmqefbur9X9doiACIjAfUZgc9JqB%2FfXX5rfwwxoadt4gN8jrUlZ4%2FNumrbsiQT2zpb6Y%2BPM8RghHXPMtG1L0vr07n0zktSvn1sxj7YVAv%2F5rfm%2BXhdp3ec9qSwREIE9EdiYtLpHd1EINzedkMbbpo%2FTbi%2BtJVHUOlt5HZBeOf9o8R2YjS21ZT7TmtNSRPbsh9%2BaP%2Ftd7eyqX2%2F3kdY8aLaIgAg8SASejLTWZi9RRuVdVjmubKvLa%2BcN21updNIatrUzjA%2FNm6ulx4P1vdP6o7%2FundqX9vHgm6sPB9%2FHHTOLmh%2FTt%2FmAFG8jrUgiacVoWBYBEXjoCDwZaUU5Lc0obsr7p9dfmjfTjzD67fFx4fz8MNMKjxVjmaOPLvaUuZNLfadVyi7v2Kazu7uu35O0%2BseAs8eDPZmk9dC3qPJFQARiBDYjrY9vOzFMvxycrs%2BFVeSxX1ofy9d94dFcEdOSRFthDTOfKq1SflmeiquXTn1vdNLv9Vne9Pr2zrTqe6vwaDDCU5ZJaxoR6yIgAg8Zgc1Iqw7WY0kdEMMgmOlxvRTqjGr0GfySgLrP7J%2BNvhaM0qqf0q9%2FJr%2Bbod11BjY%2Bf01a7XurIso9wipgktZD3p7KFgERmEZg49IaD%2BBVbN3fYkWBhJlWFFSVVpiJzeVShTed%2FUykVR47tmVP%2F4ZsbSa20vb4%2BPKI5bm0vjU%2F%2FtC9l3v16xSX%2BTppzWNiiwiIwMNFYNvS6iUxeh%2B1tK19fNdLLEhrJKgisPYR3lhOZWZX3qWVd2bt8Xse83WPFIvM3o8eN1aZjT8EqR98xN%2FjugcJ75HXVFqthF58bj4dyRxpHRkoh4mACNxLBLYtrXYwrzOh983Lt514RhIrxwRR7ZbD7Gs4pgjkWHEszLT2yOWggIZZX52B9dc1POKs28e%2Fx9Lq%2FrD4mBlWpY%2B0aiT8FgEReIwIkNYgin6GsyCddoZUB%2F8qsCCJdjZVz%2BtnXEsfYozFc7%2FSGr%2BrK2K6hbTqhxeLs8Gr5sd%2F5kiS1jwmtoiACDxcBFJJq5NDfBx25HL4sm8%2BuI9nHu1n7JMv%2Bco5w%2Byrl9bLdlsvhlB%2BJ6aFR3yDHGt9t5VWlevk2qtUZ%2FXU%2BpZ%2Fj2daDweakkVABETgPiKQSlrjmcryIOyY0%2BJCWvdxGylDBETgsSJAWifOTJ6aFEnrsW419YiACNxHBEiLtO6DI2WIgAiIwKNEgLRI61FAU4kIiIAI3EcESIu07oMjZYiACIjAo0SAtEir%2FQ9BFhD8iAEGMJCBgWO%2BLfj69evKf4n%2Bpon7vru%2Bvm6%2Bffu2evBSZbGApf22nfZFoHiJFwYwsHUG9nkl7iOtjc%2Fctn6juH6ywMBlMBDFNO2TuI%2B0SOukWfYUJuuXccPrB%2F2QnYEopum1xH2kRVqkhQEMYODsDEQxkRYgzw7kFELrZgYYwEBkgLSIiqgwgAEMpGGAtMCaBtaYbVmWfWNgmwyQFmmRFgYwgIE0DJAWWNPAKrPeZmat3%2FV7ZIC0SIu0MIABDKRhgLTAmgbWmG1Zln1jYJsMkBZpkRYGMICBNAyQFljTwCqz3mZmrd%2F1e2SAtEiLtDCAAQykYYC0wJoG1phtWZZ9Y2CbDJAWaZEWBjCAgTQMkBZY08Aqs95mZq3f9XtkgLRIi7QwgAEMpGGAtMCaBtaYbVmWfWNgmwyQFmmRFgYwgIE0DJAWWNPAKrPeZmat3%2FV7ZIC0SIu0MIABDKRhgLTAmgbWmG1Zln1jYJsMkBZpkRYGMICBNAyQFljTwCqz3mZmrd%2F1e2SAtEiLtDCAAQykYYC0wJoG1phtWZZ9Y2CbDJAWaZEWBjCAgTQMkBZY08Aqs95mZq3f9XtkgLRIi7QwgAEMpGGAtMCaBtaYbVmWfWNgmwyQFmmRFgYwgIE0DJAWWNPAKrPeZmat3%2FV7ZIC0SIu0MIABDKRhgLTAmgbWmG1Zln1jYJsMkBZpkRYGMICBNAyQFljTwCqz3mZmrd%2F1e2SAtEiLtDCAAQykYYC0wJoG1phtWZZ9Y2CbDJAWaZEWBjCAgTQMkBZY08Aqs95mZq3f9XtkgLRIi7QwgAEMpGGAtMCaBtaYbVmWfWNgmwyQFmmRFgYwgIE0DJAWWNPAKrPeZmat3%2FV7ZIC0SIu0MIABDKRhgLTAmgbWmG1Zln1jYJsMkBZpkRYGMICBNAyQFljTwCqz3mZmrd%2F1e2SAtEiLtDCAAQykYYC0wJoG1phtWZZ9Y2CbDJAWaZEWBjCAgTQMkBZY08Aqs95mZq3f9Xtk4Fhp%2FR%2B9uwsWHKW2ZAAAAABJRU5ErkJggg%3D%3D%3B%22%20vertex%3D%221%22%20parent%3D%221%22%3E%3CmxGeometry%20x%3D%22580%22%20y%3D%22610%22%20width%3D%22429%22%20height%3D%22305%22%20as%3D%22geometry%22%2F%3E%3C%2FmxCell%3E%3C%2Froot%3E%3C%2FmxGraphModel%3E&lt;/span&gt;" style="rounded=0;whiteSpace=wrap;html=1;" vertex="1" parent="1">
          <mxGeometry x="300" y="350" width="200" height="160" as="geometry" />
        </mxCell>
        <mxCell id="e7UA-xVsm7CpeUVflzim-7" value="" style="shape=image;verticalLabelPosition=bottom;labelBackgroundColor=#ffffff;verticalAlign=top;aspect=fixed;imageAspect=0;image=data:image/png,iVBORw0KGgoAAAANSUhEUgAAAa0AAAExCAYAAADP8v0PAAAfS0lEQVR4Ae3dO47dRhaAYa9jAO1HgLcwoVIlCgcQ4CUoEWBA2oHQgQIHhgBFBoRJbCedGDIMOHGonhVwUCSL9/B1H/269zQ/AT3NZ1Xx1M/6T5Hs8XfX19fNt2/fmpubm6N/vn79evSxp5Tr2OP7QKzECgMYeEoM7PNK3PcdaQH/KYHvWvCMgZwMRDFN+zDuI60TZpjTQFrPeXPoN/2GgctjIIpp2j9xH2mRlke9GMAABs7OQBQTaQHy7EBOIbR+eZmuPtEn52SAtIiKqDCAAQykYeDBpVUq8CMGGMAABjBwXwyszfRK+XXfrd5p1ZP99jgBAxjAAAYemgHS8shgyFoeGjblG9AwgIG7MkBapEVaGMAABtIwQFpgTQPrXTM058vyMZCfAdIiLdLCAAYwkIYB0gJrGlhlyfmzZH2oD+/KAGmRFmlhAAMYSMMAaYE1Dax3zdCcL8vHQH4GSIu0SAsDGMBAGgZIC6xpYJUl58+S9aE+vCsDpEVapIUBDGAgDQOPJq3frz40z168X/15efWleT7b/3PzsYfp0Pmzst9ep+mEu2Yezpe9YgADW2Hg0aS1C+h18/L1l+b3P740z8vvtQyn7H8xkdYgor+bN6/fNy9/6UHdeyyYd7EXC7HAAAZyM5BLWrOZ2PrM7dkguNwd5AbTfxjAAAZ2DDyitK6bl6vS2c2ohs6ZzJ6G7XFmdswx8XjLHpliAAMYSM3AI0uryGn6eLDI7IC0fvl59V3Y7F1WEOPzq79Td86iqN1w+hQDGNgwA48vrTI7Gr3TqtJamoktyCx2lpmWmzfyYBkPGHjyDNxZWqWAfT+72UInpzflK8LyvqnKq8y82plW+f2hefNH/+xyQUhHf0G48IHHvjbat78PxUd8MICBx2Zg547d+6yyrbSj7rvVf7k4FlALWv5dZ1JVTHW9fEzRPzaM0lrImIq0Dj7yK48SF6S13KZxMBwjHhjAAAbOz8A+r8R9jyCtpcd9KzOtFWnte4c17COtIRNxA57/BtQH+gADpzEQxTSNXdz3CNJa+0R9ZaY1mTWZaZ3W8dPOti5+GMBABgaimKbtjfseQVonzrSKtMLfW93lndb0wq27eTGAAQxcJgNRTNM+ivseQVqnzbQ+vn0/eodlpnWZgE2hsq6fMICBuzAQxTQtJ+57BGntm2ndNPOZVPloo/u/bBreV4W/wzq4zbst77YW3o1ObwLrBlgMXBYDUUzTvon7HlhalxWUaSCs6x8MYAADl8FAFNO0T+I+0pKVm5lhAAMYODsDUUykBcizAzmF0PplZLf6QT9cCgOkRVREhQEMYCANA6QF1jSwXkqmpx1mHRg4HwOkRVqkhQEMYCANA6QF1jSwym7Pl92KvdhfCgOkRVqkhQEMYCANA6QF1jSwXkqmpx1mHRg4HwOkRVqkhQEMYCANA6QF1jSwym7Pl92KvdhfCgOkRVqkhQEMYCANA6QF1jSwXkqmpx1mHRg4HwOkRVqkhQEMYCANA6QF1jSwym7Pl92KvdhfCgOkRVqkhQEMYCANA6QF1jSwXkqmpx1mHRg4HwOkRVqkhQEMYCANA6QF1jSwym7Pl92KvdhfCgOkRVqkhQEMYCANA6QF1jSwXkqmpx1mHRg4HwOkRVqkhQEMYCANA6QF1jSwym7Pl92KvdhfCgOkRVqkhQEMYCANA6QF1jSwXkqmpx1mHRg4HwOkRVqkhQEMYCANA6QF1jSwym7Pl92KvdhfCgOkRVqkhQEMYCANA6QF1jSwXkqmpx1mHRg4HwOkRVqkhQEMYCANA6QF1jSwym7Pl92KvdhfCgOkRVqkhQEMYCANA6QF1jSwXkqmpx1mHRg4HwOkRVqkhQEMYCANA6QF1jSwym7Pl92KvdhfCgOkRVqkhQEMYCANA6QF1jSwXkqmpx1mHRg4HwOkRVqkhQEMYCANA6QF1jSwym7Pl92KvdhfCgOkRVqkhQEMYCANA6QF1jSwXkqmpx1mHRg4HwOkRVqkhQEMYCANA6QF1jSwym7Pl92KvdhfCgOkRVqkhQEMYCANA6QF1jSwXkqmpx1mHRg4HwOkRVqkhQEMYCANA6QF1jSwym7Pl92KvdhfCgOkRVqkhQEMYCANA6QF1jSwXkqmpx1mHRg4HwOkRVqkhQEMYCANA6QF1jSwym7Pl92KvdhfCgOkRVqkhQEMYCANA4ekVfaXn++ur6+bb9++nXRh+wq/FGtrhwwSAxjAQB4GjvUKacnETkpYDAJ5BgF9pa8yMUBaZERGGMAABtIwQFpgTQNrpmxQW81eMPAwDJAWaZEWBjCAgTQMkBZY08Aqc32YzFVcxTUTA6RFWqSFAQxgIA0DpAXWNLBmyga11ewFAw/DAGmRFmlhAAMYSMMAaYE1Dawy14fJXMVVXDMxQFqkRVoYwAAG0jBAWmBNA2umbFBbzV4w8DAMkBZpkRYGMICBNAyQFljTwCpzfZjMVVzFNRMDpEVapIUBDGAgDQOkBdY0sGbKBrXV7AUDD8MAaZEWaWEAAxhIwwBpgTUNrDLXh8lcxVVcMzGwT1plX/3xH4EkN3LDAAYwcHYGDkmrCpi0wHp2WCuMfpsZYGC7DJAWGZERBjCAgTQMkBZY08Aqu95udq3v9X1lgLRIi7QwgAEMpGGAtMCaBtaaafkt68bAdhkgLdIiLQxgAANpGCAtsKaBVXa93exa3+v7ygBpkRZpYQADGEjDAGmBNQ2sNdPyW9aNge0yQFqkRVoYwAAG0jBAWmBNA6vservZtb7X95UB0iIt0sIABjCQhgHSumBY//WvfzV+xAADGNgKA3U2te83aV24tBr/REAERGADEShi3ieruo+0SGsDt4NLFAERuPQIkNYFy6hmDId+l070TwREQAS2EAHSIq0tcO4aRUAEnkgESIu0ngjKLkMERGALESAt0toC565RBETgiUTgCUjr7+bN6/fN86u/j/qipLwf+vh2enxXxrO313vK6I958b55duhnVs518/LQOf3+U66jvusqneifCDyFCHx697559u6vp3Api9fQXt8PvzV/Lu49beO0rOn6cmnfmh9/yB3jDUqrCORD8+aP4yT08pf6F+bd8bv1un38+/erD81++Y2Pr+JZlun6sfG8RWn9+nmvXL//6duE6b+aVy/eN69+nWxeWP3zp6u27HkZ4eBp/ZMbtZYxTQCW6q/HrtVX9y8PdqfepF0cYrvW6g1XGxb7+l58bj6FrfsXTzunu9618rv2j9r8z2/N9wtJUxfr4/t9/zXcz9780tofz+PEckwse2bCfXVc2afeD8e05XGP2Zy0Wqm8/tL8Hh4LLm2LUuiWk0lrkaM56PGwU6B/9e5z8yzcMLGcxUH1189NHEjbY1bOj2U1Tdfmw/V1M+C59E67SUsMYjubXr6jbeMGjtYGgZ4grVPPWYzv0Io1aV01P/4zHDRaOK7fR6c82ErbluQzrX3x3LfvrkE9ruzT7oe7tukhzt+YtLrHdONHcJ2MxtuWZjh3kVZ3bsze15YPt2PetsWZ1gIt3WC3Png1bUa+Z38psx3EPzef+ux9LomFQXOtLcdI62B9TdNe1w+fm1flscdMFne/SY8bDJqmxu/VuzITXZsJTYLRx/yUc06WVo3hpOph9Zh+Hw5+2IU21smlVTlYShKOZukWYT6u7LvfD7do2r2e8mSkdYwEyrusclwRQ11eO2/YPszKjhfP/T0e7Osc2jAXVpkFHietJZn0AA/y6Nb3zSp2g8oa/F09y4/qdux2ojn8bP9wfVVavzV/9iId173Wzl1bDi2dMhiU2O2XSqxtF+/jz+mvd1WKC/18SFr9bHba70vXvbotiqb2Q3gkOU1uajmf+kfNddbebg9ltesv4uy356svO5Zbyxw4qPWH8rro90zU/YuxHNdT2zf03vQah3uoHLHr1+H4fuG4Ni70YdM0w7nTslbW281t34f38O9+u7h3Wv/973/7K5j/Wtr3ZKR1cIbyy8/Ns9dfmjfTjzD67fFx4fzRYJHFXWZay7KZ1rP6gcg9SGsKfIdHf/PGG27fANffqHWg6Aba+cysrasMCLPBYgflUdI6sr5YVtem+G6uv8Y9bdm1amGpb8N0QJ8eGePbteHwTOs255R695c/H/BqTIZEbOnd5VK/t9ti/9aBPG7r4luZqI9Th/XS4IUYrjHSbu/7qrZ7V9b82j79tEt8hjIjz33dkcU/f/ocHpWu3QNRlN01/Fjf987islbGnIF9bdwxNr/OEsb23HBth9aX+mKo/7b3wxT8O67/73//a/797383V1dXs5LKtrKvHBP/bUZaH9+Wjy/mXw7ORbEmmNtJ6+gZ3ZD19VnRAVFF4R2cabU3WRzIIwLT5e6G2Q0Uu/2zwXJhMKpH1wGnHSgXbpDR/uHaxzf5sfW1xw03cz+ADNlzv77QhtrW1d91wBvKXj5y2s7p+tJZ02Om60vn1G3dsSF7HuK327YbAOtZu9/1/HEfL/X7ZFs/WH//QxjQ2xhViS0PtqXm6fV1g+e4v8tx7fbSVz2zo+vo+2Pc7t11rZU5rXt3Rr/U1lXbcoiXbv+sDaM4lHInseurOq6Ny3Fszw0s7l9fLqPOAqPEZ/F45A1L4loTVmnaZqRVB/mxpA488huJ48CxceCYffK+JMKl92tLxx3etl9aHbynQNreDLNBfqmcqSDmtHc3aRlM68DWHdMOJOEGnJ95fH2zsqps2ms4NAjNay5buoHu/erHJsNZ/UAe318cN0guxGMQbSm9xraKaHf8/vLXBquhxe3CdMArG5f6PW5r6333Vxebvu/abbUf90llEqel+oc2/HDVfu04Elbb6hCTWme7vfuftTI7Ae7iN9QT79ka+33XUE6sbI3OrX00Tgxj7Gozj2vjch9Oz927vnodt7sfavsf6ncU1z5hlfo3Lq0VIfzxpXn+4n0z/rz9djOtVpZ9ed3jmZ+bj+2Xi/Vvt+r6TXOzWO9KG8PXj/uk1YJdb8hjiWuBH9/kNfONj5ji8izzHNVVB5uazfZSWBh4htP6TDvWEZdjfaOBsy+gG9jLIHLqTVrbOh6AhnaNFnbHxraNlmfyv805o0pns5bx3uUBb3zMSvwX+n0X267dbdzb47q+LHwNclkdKOsHPDumpgNubV+3vZPW7D1SPaivp41zYGitzLG0+mQo3hNxprXvGkr9h/bXNg7H7q65bDqljUNc+zKn5+5dX21nz9+My9jw8yxXcS09Eowt2ra0liSxtK0VxF2k9ffsE/vnV1+6vxe7+jn8PVUnsN//OP4PpYsUV6XVD/xxgI+dv77cgb27aXrQwwCxO3ffvt1R3cBxrLT2lTnftxtYQ33DTOWqKY+zjp1ptgNBHNBikUcud8LcXesxp51yzv5jj5NWe52zgauL7a7f6yB91fz4a/lbr3pN3XGvfi11xUF5ve5pm6cDbo3R0K4qplkb65FVhLvkYq3vRnVNZnyltHHb1q+hq/nQ/tC+hQ8yjmpjZXdy7aPrWBDgeP9aO7vtx94P8WoeY7mIq/zs+7dtaQUZlazt5dtOIOMZVp3p3EFa/ayo/Xuw8lihfXxY/8j5pum2hxnXMIvqH0mOHlPW9ux+L0vrGDjnAqiwtDdyldRq1tYfPRoISr1xICvH9PWEm3BUfq20/j6pvpVZQymrDnwl5qHuWs38dxez/ZI/HNfxIFhquc0589bVLfPy655dXVE8n96N+6M7f7ytljDvl15Q5e/yQgy740pCsPsQopTRlb0TSVvuQvI0HmBr7ZNHlLX/ar3//Na8in8UP+KuP3fa19O6p+u1jkHI69dQuVi8xlJObefuckaPUsvmTloTHqdtGo6rScJO0HH2OY3h4vrkXlysP7Q3wyJpDYJYeFw37CuC6AWy8ix79Eho8k5r+BhjtH0nrdEjxNExt5fWAOdKe7tBbV1adaAtN2pXVriBZmRPB+V+PdQdB9Fyer3xR3HrB5xT6+sG0PHgWZs41LMwoNRjht/DALZ7R7FrXx3k5wIezu8XujpjvG5zzrTU3fq8/N2+2m/jePf1D/0R2xbPLctd39UBumypMYzbakIwrqcvqx+E57Hb1dX28UR4ZW+7PfZVLas/tmOj9k/tk67cWubwGX1/vaN2h+tp21fKbeuYxKTWW2MW2zQtoxyzcC1dq8bxPLaNQ6IX6q/n1v8LqEPrQzxrGe1Xo4dZ7Np9uf+bSlrD4B86YXdjVJAXfgcRjD/E2M1W6ocaN+UT+Pb/5mm673YzrbbNQ/0T8S3NoNr662xs2obl9eWZ1t2ha2+Kyc1691KVcOkRyNrv00H8UuKcNZ6XEr9pO1JJaxDLaAa0PJBv6diHklaXTY+z2SlA1p9gBNoZZ75+v1RpuY/u9x4hrScgwAeT1v2ypjQReNAIXKy0HvSqt1c4aZHWhqifv2sbHi+vvpPYUHiSXyppJe/AI5tPWqR1JCoOEwEREIHzR4C0SOv8FGqBCIiACBwZAdJ6ItIqHelHDDCAgS0wcMyHdl+/fl39L9HHfd9dX1833759Wz14qbJYwNJ+23whiQEMYAADpzCwzytxH2k9gZnbKWA41kCCAQxcIgNRTNP2xX2kRVonzbKnMFk3AGIAA/fBQBTTtLy4j7RIi7QwgAEMnJ2BKCbSAuTZgZxCaF12jgEMRAZIi6iICgMYwEAaBkgLrGlgjdmWZdk3BrbJAGmRFmlhAAMYSMMAaYE1Dawy621m1vpdv0cGSIu0SAsDGMBAGgZIC6xpYI3ZlmXZNwa2yQBpkRZpYQADGEjDAGmBNQ2sMuttZtb6Xb9HBkiLtEgLAxjAQBoGSAusaWCN2ZZl2TcGtskAaZEWaWEAAxhIwwBpgTUNrDLrbWbW+l2/RwZIi7RICwMYwEAaBkgLrGlgjdmWZdk3BrbJAGmRFmlhAAMYSMMAaYE1Dawy621m1vpdv0cGSIu0SAsDGMBAGgZIC6xpYI3ZlmXZNwa2yQBpkRZpYQADGEjDAGmBNQ2sMuttZtb6Xb9HBkiLtEgLAxjAQBoGSAusaWCN2ZZl2TcGtskAaZEWaWEAAxhIwwBpgTUNrDLrbWbW+l2/RwZIi7RICwMYwEAaBkgLrGlgjdmWZdk3BrbJAGmRFmlhAAMYSMMAaYE1Dawy621m1vpdv0cGSIu0SAsDGMBAGgZIC6xpYI3ZlmXZNwa2yQBpkRZpYQADGEjDAGmBNQ2sMuttZtb6Xb9HBkiLtEgLAxjAQBoGSAusaWCN2ZZl2TcGtskAaZEWaWEAAxhIwwBpgTUNrDLrbWbW+l2/RwZIi7RICwMYwEAaBkgLrGlgjdmWZdk3BrbJAGmRFmlhAAMYSMMAaYE1Dawy621m1vpdv0cGSIu0SAsDGMBAGgZIC6xpYI3ZlmXZNwa2yQBpkRZpYQADGEjDAGmBNQ2sMuttZtb6Xb9HBkiLtEgLAxjAQBoGSAusaWCN2ZZl2TcGtskAaZEWaWEAAxhIwwBpgTUNrDLrbWbW+l2/RwZIi7RICwMYwEAaBkgLrGlgjdmWZdk3BrbJAGmRFmlhAAMYSMMAaYE1Dawy621m1vpdv0cGSIu0SAsDGMBAGgZIC6xpYI3ZlmXZNwa2yQBpkRZpYQADGEjDAGmBNQ2sMuttZtb6Xb9HBkiLtEgLAxjAQBoGSAusaWCN2ZZl2TcGtskAaZEWaWEAAxhIwwBpgTUNrDLrbWbW+l2/RwZIi7RICwMYwEAaBkgLrGlgjdmWZdk3BrbJAGmRFmlhAAMYSMMAaYE1Dawy621m1vpdv0cGSIu0SAsDGMBAGgZIC6xpYI3ZlmXZNwa2yQBpkRZpYQADGEjDAGmBNQ2sMuttZtb6Xb9HBkiLtEgLAxjAQBoGSAusaWCN2ZZl2TcGtskAaZEWaWEAAxhIwwBpgTUNrDLrbWbW+l2/RwZIi7RICwMYwEAaBkgLrGlgjdmWZdk3BrbJAGmRFmlhAAMYSMMAaYE1Dawy621m1vpdv0cGSIu0SAsDGMBAGgZIC6xpYI3ZlmXZNwa2yQBpkRZpYQADGEjDAGmBNQ2sMuttZtb6Xb9HBkiLtEgLAxjAQBoGSOuJwvqf//yn8SMGGMBAJgbijGptmbSesLQa/0RABEQgSQSKXNdEFbeTFmklQVozRUAEnnIESOuJyihmHPuWCwD+iYAIiECWCJAWaWVhVTtFQAREoH0Hvy8Rr/s8HnyicjPTMgqIgAhkioCZ1hOVUc02Dv0mrUy3q7aKgAg8AWn93bx5/b55fvX3UV+UlEH849vp8V0Zz95er5TR7X/5y01z88eX5vmLn5uPq7K7bl6+eN88e/G+aY/fe9y+cnZ/KPj71Ye2vFLm3p/V9u/KmkqMtAwCIiACmSKwQWkVqXxo3vzRi+qACDrxrEjrl58XJHKciG5uSjuOO7aV1gEhHXPMVFhlfS6tv5pXk5h8/9O3Vab//Omqefbur9X9doiACIjAfUZgc9JqB/fXX5rfwwxoadt4gN8jrUlZ4/NumrbsiQT2zpb6Y+PM8RghHXPMtG1L0vr07n0zktSvn1sxj7YVAv/5rfm+Xhdp3ec9qSwREIE9EdiYtLpHd1EINzedkMbbpo/Tbi+tJVHUOlt5HZBeOf9o8R2YjS21ZT7TmtNSRPbsh9+aP/td7eyqX2/3kdY8aLaIgAg8SASejLTWZi9RRuVdVjmubKvLa+cN21updNIatrUzjA/Nm6ulx4P1vdP6o7/undqX9vHgm6sPB9/HHTOLmh/Tt/mAFG8jrUgiacVoWBYBEXjoCDwZaUU5Lc0obsr7p9dfmjfTjzD67fFx4fz8MNMKjxVjmaOPLvaUuZNLfadVyi7v2Kazu7uu35O0+seAs8eDPZmk9dC3qPJFQARiBDYjrY9vOzFMvxycrs+FVeSxX1ofy9d94dFcEdOSRFthDTOfKq1SflmeiquXTn1vdNLv9Vne9Pr2zrTqe6vwaDDCU5ZJaxoR6yIgAg8Zgc1Iqw7WY0kdEMMgmOlxvRTqjGr0GfySgLrP7J+NvhaM0qqf0q9/Jr+bod11BjY+f01a7XurIso9wipgktZD3p7KFgERmEZg49IaD+BVbN3fYkWBhJlWFFSVVpiJzeVShTed/UykVR47tmVP/4ZsbSa20vb4+PKI5bm0vjU//tC9l3v16xSX+TppzWNiiwiIwMNFYNvS6iUxeh+1tK19fNdLLEhrJKgisPYR3lhOZWZX3qWVd2bt8Xse83WPFIvM3o8eN1aZjT8EqR98xN/jugcJ75HXVFqthF58bj4dyRxpHRkoh4mACNxLBLYtrXYwrzOh983Lt514RhIrxwRR7ZbD7Gs4pgjkWHEszLT2yOWggIZZX52B9dc1POKs28e/x9Lq/rD4mBlWpY+0aiT8FgEReIwIkNYgin6GsyCddoZUB/8qsCCJdjZVz+tnXEsfYozFc7/SGr+rK2K6hbTqhxeLs8Gr5sd/5kiS1jwmtoiACDxcBFJJq5NDfBx25HL4sm8+uI9nHu1n7JMv+co5w+yrl9bLdlsvhlB+J6aFR3yDHGt9t5VWlevk2qtUZ/XU+pZ/j2daDweakkVABETgPiKQSlrjmcryIOyY0+JCWvdxGylDBETgsSJAWifOTJ6aFEnrsW419YiACNxHBEiLtO6DI2WIgAiIwKNEgLRI61FAU4kIiIAI3EcESIu07oMjZYiACIjAo0SAtEir/Q9BFhD8iAEGMJCBgWO+Lfj69evKf4n+pon7vru+vm6+ffu2evBSZbGApf22nfZFoHiJFwYwsHUG9nkl7iOtjc/ctn6juH6ywMBlMBDFNO2TuI+0SOukWfYUJuuXccPrB/2QnYEopum1xH2kRVqkhQEMYODsDEQxkRYgzw7kFELrZgYYwEBkgLSIiqgwgAEMpGGAtMCaBtaYbVmWfWNgmwyQFmmRFgYwgIE0DJAWWNPAKrPeZmat3/V7ZIC0SIu0MIABDKRhgLTAmgbWmG1Zln1jYJsMkBZpkRYGMICBNAyQFljTwCqz3mZmrd/1e2SAtEiLtDCAAQykYYC0wJoG1phtWZZ9Y2CbDJAWaZEWBjCAgTQMkBZY08Aqs95mZq3f9XtkgLRIi7QwgAEMpGGAtMCaBtaYbVmWfWNgmwyQFmmRFgYwgIE0DJAWWNPAKrPeZmat3/V7ZIC0SIu0MIABDKRhgLTAmgbWmG1Zln1jYJsMkBZpkRYGMICBNAyQFljTwCqz3mZmrd/1e2SAtEiLtDCAAQykYYC0wJoG1phtWZZ9Y2CbDJAWaZEWBjCAgTQMkBZY08Aqs95mZq3f9XtkgLRIi7QwgAEMpGGAtMCaBtaYbVmWfWNgmwyQFmmRFgYwgIE0DJAWWNPAKrPeZmat3/V7ZIC0SIu0MIABDKRhgLTAmgbWmG1Zln1jYJsMkBZpkRYGMICBNAyQFljTwCqz3mZmrd/1e2SAtEiLtDCAAQykYYC0wJoG1phtWZZ9Y2CbDJAWaZEWBjCAgTQMkBZY08Aqs95mZq3f9XtkgLRIi7QwgAEMpGGAtMCaBtaYbVmWfWNgmwyQFmmRFgYwgIE0DJAWWNPAKrPeZmat3/V7ZIC0SIu0MIABDKRhgLTAmgbWmG1Zln1jYJsMkBZpkRYGMICBNAyQFljTwCqz3mZmrd/1e2SAtEiLtDCAAQykYYC0wJoG1phtWZZ9Y2CbDJAWaZEWBjCAgTQMkBZY08Aqs95mZq3f9Xtk4Fhp/R+9uwsWHKW2ZAAAAABJRU5ErkJggg==;" vertex="1" parent="1">
          <mxGeometry x="315.5" y="360" width="169" height="120.15" as="geometry" />
        </mxCell>
        <mxCell id="e7UA-xVsm7CpeUVflzim-8" value="&lt;span style=&quot;color: rgba(0 , 0 , 0 , 0) ; font-family: monospace ; font-size: 0px&quot;&gt;%3CmxGraphModel%3E%3Croot%3E%3CmxCell%20id%3D%220%22%2F%3E%3CmxCell%20id%3D%221%22%20parent%3D%220%22%2F%3E%3CmxCell%20id%3D%222%22%20value%3D%22%22%20style%3D%22shape%3Dimage%3BverticalLabelPosition%3Dbottom%3BlabelBackgroundColor%3D%23ffffff%3BverticalAlign%3Dtop%3Baspect%3Dfixed%3BimageAspect%3D0%3Bimage%3Ddata%3Aimage%2Fpng%2CiVBORw0KGgoAAAANSUhEUgAAAa0AAAExCAYAAADP8v0PAAAfS0lEQVR4Ae3dO47dRhaAYa9jAO1HgLcwoVIlCgcQ4CUoEWBA2oHQgQIHhgBFBoRJbCedGDIMOHGonhVwUCSL9%2FB1H%2F269zQ%2FAT3NZ1Xx1M%2F6T5Hs8XfX19fNt2%2Ffmpubm6N%2Fvn79evSxp5Tr2OP7QKzECgMYeEoM7PNK3PcdaQH%2FKYHvWvCMgZwMRDFN%2BzDuI60TZpjTQFrPeXPoN%2F2GgctjIIpp2j9xH2mRlke9GMAABs7OQBQTaQHy7EBOIbR%2BeZmuPtEn52SAtIiKqDCAAQykYeDBpVUq8CMGGMAABjBwXwyszfRK%2BXXfrd5p1ZP99jgBAxjAAAYemgHS8shgyFoeGjblG9AwgIG7MkBapEVaGMAABtIwQFpgTQPrXTM058vyMZCfAdIiLdLCAAYwkIYB0gJrGlhlyfmzZH2oD%2B%2FKAGmRFmlhAAMYSMMAaYE1Dax3zdCcL8vHQH4GSIu0SAsDGMBAGgZIC6xpYJUl58%2BS9aE%2BvCsDpEVapIUBDGAgDQOPJq3frz40z168X%2F15efWleT7b%2F3PzsYfp0Pmzst9ep%2BmEu2Yezpe9YgADW2Hg0aS1C%2Bh18%2FL1l%2Bb3P740z8vvtQyn7H8xkdYgor%2BbN6%2FfNy9%2F6UHdeyyYd7EXC7HAAAZyM5BLWrOZ2PrM7dkguNwd5AbTfxjAAAZ2DDyitK6bl6vS2c2ohs6ZzJ6G7XFmdswx8XjLHpliAAMYSM3AI0uryGn6eLDI7IC0fvl59V3Y7F1WEOPzq79Td86iqN1w%2BhQDGNgwA48vrTI7Gr3TqtJamoktyCx2lpmWmzfyYBkPGHjyDNxZWqWAfT%2B72UInpzflK8LyvqnKq8y82plW%2Bf2hefNH%2F%2BxyQUhHf0G48IHHvjbat78PxUd8MICBx2Zg547d%2B6yyrbSj7rvVf7k4FlALWv5dZ1JVTHW9fEzRPzaM0lrImIq0Dj7yK48SF6S13KZxMBwjHhjAAAbOz8A%2Br8R9jyCtpcd9KzOtFWnte4c17COtIRNxA57%2FBtQH%2BgADpzEQxTSNXdz3CNJa%2B0R9ZaY1mTWZaZ3W8dPOti5%2BGMBABgaimKbtjfseQVonzrSKtMLfW93lndb0wq27eTGAAQxcJgNRTNM%2BivseQVqnzbQ%2Bvn0%2FeodlpnWZgE2hsq6fMICBuzAQxTQtJ%2B57BGntm2ndNPOZVPloo%2Fu%2FbBreV4W%2Fwzq4zbst77YW3o1ObwLrBlgMXBYDUUzTvon7HlhalxWUaSCs6x8MYAADl8FAFNO0T%2BI%2B0pKVm5lhAAMYODsDUUykBcizAzmF0PplZLf6QT9cCgOkRVREhQEMYCANA6QF1jSwXkqmpx1mHRg4HwOkRVqkhQEMYCANA6QF1jSwym7Pl92KvdhfCgOkRVqkhQEMYCANA6QF1jSwXkqmpx1mHRg4HwOkRVqkhQEMYCANA6QF1jSwym7Pl92KvdhfCgOkRVqkhQEMYCANA6QF1jSwXkqmpx1mHRg4HwOkRVqkhQEMYCANA6QF1jSwym7Pl92KvdhfCgOkRVqkhQEMYCANA6QF1jSwXkqmpx1mHRg4HwOkRVqkhQEMYCANA6QF1jSwym7Pl92KvdhfCgOkRVqkhQEMYCANA6QF1jSwXkqmpx1mHRg4HwOkRVqkhQEMYCANA6QF1jSwym7Pl92KvdhfCgOkRVqkhQEMYCANA6QF1jSwXkqmpx1mHRg4HwOkRVqkhQEMYCANA6QF1jSwym7Pl92KvdhfCgOkRVqkhQEMYCANA6QF1jSwXkqmpx1mHRg4HwOkRVqkhQEMYCANA6QF1jSwym7Pl92KvdhfCgOkRVqkhQEMYCANA6QF1jSwXkqmpx1mHRg4HwOkRVqkhQEMYCANA6QF1jSwym7Pl92KvdhfCgOkRVqkhQEMYCANA6QF1jSwXkqmpx1mHRg4HwOkRVqkhQEMYCANA6QF1jSwym7Pl92KvdhfCgOkRVqkhQEMYCANA6QF1jSwXkqmpx1mHRg4HwOkRVqkhQEMYCANA6QF1jSwym7Pl92KvdhfCgOkRVqkhQEMYCANA6QF1jSwXkqmpx1mHRg4HwOkRVqkhQEMYCANA6QF1jSwym7Pl92KvdhfCgOkRVqkhQEMYCANA6QF1jSwXkqmpx1mHRg4HwOkRVqkhQEMYCANA6QF1jSwym7Pl92KvdhfCgOkRVqkhQEMYCANA4ekVfaXn%2B%2Bur6%2Bbb9%2B%2BnXRh%2Bwq%2FFGtrhwwSAxjAQB4GjvUKacnETkpYDAJ5BgF9pa8yMUBaZERGGMAABtIwQFpgTQNrpmxQW81eMPAwDJAWaZEWBjCAgTQMkBZY08Aqc32YzFVcxTUTA6RFWqSFAQxgIA0DpAXWNLBmyga11ewFAw%2FDAGmRFmlhAAMYSMMAaYE1Dawy14fJXMVVXDMxQFqkRVoYwAAG0jBAWmBNA2umbFBbzV4w8DAMkBZpkRYGMICBNAyQFljTwCpzfZjMVVzFNRMDpEVapIUBDGAgDQOkBdY0sGbKBrXV7AUDD8MAaZEWaWEAAxhIwwBpgTUNrDLXh8lcxVVcMzGwT1plX%2F3xH4EkN3LDAAYwcHYGDkmrCpi0wHp2WCuMfpsZYGC7DJAWGZERBjCAgTQMkBZY08Aqu95udq3v9X1lgLRIi7QwgAEMpGGAtMCaBtaaafkt68bAdhkgLdIiLQxgAANpGCAtsKaBVXa93exa3%2Bv7ygBpkRZpYQADGEjDAGmBNQ2sNdPyW9aNge0yQFqkRVoYwAAG0jBAWmBNA6vservZtb7X95UB0iIt0sIABjCQhgHSumBY%2F%2FWvfzV%2BxAADGNgKA3U2te83aV24tBr%2FREAERGADEShi3ieruo%2B0SGsDt4NLFAERuPQIkNYFy6hmDId%2Bl070TwREQAS2EAHSIq0tcO4aRUAEnkgESIu0ngjKLkMERGALESAt0toC565RBETgiUTgCUjr7%2BbN6%2FfN86u%2Fj%2FqipLwf%2Bvh2enxXxrO313vK6I958b55duhnVs518%2FLQOf3%2BU66jvusqneifCDyFCHx697559u6vp3Api9fQXt8PvzV%2FLu49beO0rOn6cmnfmh9%2FyB3jDUqrCORD8%2BaP4yT08pf6F%2Bbd8bv1un38%2B%2FerD81%2B%2BY2Pr%2BJZlun6sfG8RWn9%2BnmvXL%2F%2F6duE6b%2BaVy%2FeN69%2BnWxeWP3zp6u27HkZ4eBp%2FZMbtZYxTQCW6q%2FHrtVX9y8PdqfepF0cYrvW6g1XGxb7%2Bl58bj6FrfsXTzunu9618rv2j9r8z2%2FN9wtJUxfr4%2Ft9%2FzXcz9780tofz%2BPEckwse2bCfXVc2afeD8e05XGP2Zy0Wqm8%2FtL8Hh4LLm2LUuiWk0lrkaM56PGwU6B%2F9e5z8yzcMLGcxUH1189NHEjbY1bOj2U1Tdfmw%2FV1M%2BC59E67SUsMYjubXr6jbeMGjtYGgZ4grVPPWYzv0Io1aV01P%2F4zHDRaOK7fR6c82ErbluQzrX3x3LfvrkE9ruzT7oe7tukhzt%2BYtLrHdONHcJ2MxtuWZjh3kVZ3bsze15YPt2PetsWZ1gIt3WC3Png1bUa%2BZ38psx3EPzef%2Bux9LomFQXOtLcdI62B9TdNe1w%2Bfm1flscdMFne%2FSY8bDJqmxu%2FVuzITXZsJTYLRx%2FyUc06WVo3hpOph9Zh%2BHw5%2B2IU21smlVTlYShKOZukWYT6u7LvfD7do2r2e8mSkdYwEyrusclwRQ11eO2%2FYPszKjhfP%2FT0e7Osc2jAXVpkFHietJZn0AA%2Fy6Nb3zSp2g8oa%2FF09y4%2Fqdux2ojn8bP9wfVVavzV%2F9iId173Wzl1bDi2dMhiU2O2XSqxtF%2B%2Fjz%2Bmvd1WKC%2F18SFr9bHba70vXvbotiqb2Q3gkOU1uajmf%2BkfNddbebg9ltesv4uy356svO5Zbyxw4qPWH8rro90zU%2FYuxHNdT2zf03vQah3uoHLHr1%2BH4fuG4Ni70YdM0w7nTslbW281t34f38O9%2Bu7h3Wv%2F973%2F7K5j%2FWtr3ZKR1cIbyy8%2FNs9dfmjfTjzD67fFx4fzRYJHFXWZay7KZ1rP6gcg9SGsKfIdHf%2FPGG27fANffqHWg6Aba%2BcysrasMCLPBYgflUdI6sr5YVtem%2BG6uv8Y9bdm1amGpb8N0QJ8eGePbteHwTOs255R695c%2FH%2FBqTIZEbOnd5VK%2Ft9ti%2F9aBPG7r4luZqI9Th%2FXS4IUYrjHSbu%2F7qrZ7V9b82j79tEt8hjIjz33dkcU%2Ff%2FocHpWu3QNRlN01%2FFjf987islbGnIF9bdwxNr%2FOEsb23HBth9aX%2BmKo%2F7b3wxT8O67%2F73%2F%2Fa%2F797383V1dXs5LKtrKvHBP%2FbUZaH9%2BWjy%2FmXw7ORbEmmNtJ6%2BgZ3ZD19VnRAVFF4R2cabU3WRzIIwLT5e6G2Q0Uu%2F2zwXJhMKpH1wGnHSgXbpDR%2FuHaxzf5sfW1xw03cz%2BADNlzv77QhtrW1d91wBvKXj5y2s7p%2BtJZ02Om60vn1G3dsSF7HuK327YbAOtZu9%2F1%2FHEfL%2FX7ZFs%2FWH%2F%2FQxjQ2xhViS0PtqXm6fV1g%2Be4v8tx7fbSVz2zo%2Bvo%2B2Pc7t11rZU5rXt3Rr%2FU1lXbcoiXbv%2BsDaM4lHInseurOq6Ny3Fszw0s7l9fLqPOAqPEZ%2FF45A1L4loTVmnaZqRVB%2FmxpA488huJ48CxceCYffK%2BJMKl92tLxx3etl9aHbynQNreDLNBfqmcqSDmtHc3aRlM68DWHdMOJOEGnJ95fH2zsqps2ms4NAjNay5buoHu%2FerHJsNZ%2FUAe318cN0guxGMQbSm9xraKaHf8%2FvLXBquhxe3CdMArG5f6PW5r6333Vxebvu%2FabbUf90llEqel%2Boc2%2FHDVfu04Elbb6hCTWme7vfuftTI7Ae7iN9QT79ka%2B33XUE6sbI3OrX00Tgxj7Gozj2vjch9Oz927vnodt7sfavsf6ncU1z5hlfo3Lq0VIfzxpXn%2B4n0z%2Frz9djOtVpZ9ed3jmZ%2Bbj%2B2Xi%2FVvt%2Br6TXOzWO9KG8PXj%2Fuk1YJdb8hjiWuBH9%2FkNfONj5ji8izzHNVVB5uazfZSWBh4htP6TDvWEZdjfaOBsy%2BgG9jLIHLqTVrbOh6AhnaNFnbHxraNlmfyv805o0pns5bx3uUBb3zMSvwX%2Bn0X267dbdzb47q%2BLHwNclkdKOsHPDumpgNubV%2B3vZPW7D1SPaivp41zYGitzLG0%2BmQo3hNxprXvGkr9h%2FbXNg7H7q65bDqljUNc%2BzKn5%2B5dX21nz9%2BMy9jw8yxXcS09Eowt2ra0liSxtK0VxF2k9ffsE%2FvnV1%2B6vxe7%2Bjn8PVUnsN%2F%2FOP4PpYsUV6XVD%2FxxgI%2Bdv77cgb27aXrQwwCxO3ffvt1R3cBxrLT2lTnftxtYQ33DTOWqKY%2Bzjp1ptgNBHNBikUcud8LcXesxp51yzv5jj5NWe52zgauL7a7f6yB91fz4a%2Flbr3pN3XGvfi11xUF5ve5pm6cDbo3R0K4qplkb65FVhLvkYq3vRnVNZnyltHHb1q%2Bhq%2FnQ%2FtC%2BhQ8yjmpjZXdy7aPrWBDgeP9aO7vtx94P8WoeY7mIq%2Fzs%2B7dtaQUZlazt5dtOIOMZVp3p3EFa%2Fayo%2FXuw8lihfXxY%2F8j5pum2hxnXMIvqH0mOHlPW9ux%2BL0vrGDjnAqiwtDdyldRq1tYfPRoISr1xICvH9PWEm3BUfq20%2Fj6pvpVZQymrDnwl5qHuWs38dxez%2FZI%2FHNfxIFhquc0589bVLfPy655dXVE8n96N%2B6M7f7ytljDvl15Q5e%2FyQgy740pCsPsQopTRlb0TSVvuQvI0HmBr7ZNHlLX%2Far3%2F%2FNa8in8UP%2BKuP3fa19O6p%2Bu1jkHI69dQuVi8xlJObefuckaPUsvmTloTHqdtGo6rScJO0HH2OY3h4vrkXlysP7Q3wyJpDYJYeFw37CuC6AWy8ix79Eho8k5r%2BBhjtH0nrdEjxNExt5fWAOdKe7tBbV1adaAtN2pXVriBZmRPB%2BV%2BPdQdB9Fyer3xR3HrB5xT6%2BsG0PHgWZs41LMwoNRjht%2FDALZ7R7FrXx3k5wIezu8XujpjvG5zzrTU3fq8%2FN2%2B2m%2FjePf1D%2F0R2xbPLctd39UBumypMYzbakIwrqcvqx%2BE57Hb1dX28UR4ZW%2B7PfZVLas%2FtmOj9k%2Ftk67cWubwGX1%2FvaN2h%2Btp21fKbeuYxKTWW2MW2zQtoxyzcC1dq8bxPLaNQ6IX6q%2Fn1v8LqEPrQzxrGe1Xo4dZ7Np9uf%2BbSlrD4B86YXdjVJAXfgcRjD%2FE2M1W6ocaN%2BUT%2BPb%2F5mm673YzrbbNQ%2F0T8S3NoNr662xs2obl9eWZ1t2ha2%2BKyc1691KVcOkRyNrv00H8UuKcNZ6XEr9pO1JJaxDLaAa0PJBv6diHklaXTY%2Bz2SlA1p9gBNoZZ75%2Bv1RpuY%2Fu9x4hrScgwAeT1v2ypjQReNAIXKy0HvSqt1c4aZHWhqifv2sbHi%2BvvpPYUHiSXyppJe%2FAI5tPWqR1JCoOEwEREIHzR4C0SOv8FGqBCIiACBwZAdJ6ItIqHelHDDCAgS0wcMyHdl%2B%2Ffl39L9HHfd9dX1833759Wz14qbJYwNJ%2B23whiQEMYAADpzCwzytxH2k9gZnbKWA41kCCAQxcIgNRTNP2xX2kRVonzbKnMFk3AGIAA%2FfBQBTTtLy4j7RIi7QwgAEMnJ2BKCbSAuTZgZxCaF12jgEMRAZIi6iICgMYwEAaBkgLrGlgjdmWZdk3BrbJAGmRFmlhAAMYSMMAaYE1Dawy621m1vpdv0cGSIu0SAsDGMBAGgZIC6xpYI3ZlmXZNwa2yQBpkRZpYQADGEjDAGmBNQ2sMuttZtb6Xb9HBkiLtEgLAxjAQBoGSAusaWCN2ZZl2TcGtskAaZEWaWEAAxhIwwBpgTUNrDLrbWbW%2Bl2%2FRwZIi7RICwMYwEAaBkgLrGlgjdmWZdk3BrbJAGmRFmlhAAMYSMMAaYE1Dawy621m1vpdv0cGSIu0SAsDGMBAGgZIC6xpYI3ZlmXZNwa2yQBpkRZpYQADGEjDAGmBNQ2sMuttZtb6Xb9HBkiLtEgLAxjAQBoGSAusaWCN2ZZl2TcGtskAaZEWaWEAAxhIwwBpgTUNrDLrbWbW%2Bl2%2FRwZIi7RICwMYwEAaBkgLrGlgjdmWZdk3BrbJAGmRFmlhAAMYSMMAaYE1Dawy621m1vpdv0cGSIu0SAsDGMBAGgZIC6xpYI3ZlmXZNwa2yQBpkRZpYQADGEjDAGmBNQ2sMuttZtb6Xb9HBkiLtEgLAxjAQBoGSAusaWCN2ZZl2TcGtskAaZEWaWEAAxhIwwBpgTUNrDLrbWbW%2Bl2%2FRwZIi7RICwMYwEAaBkgLrGlgjdmWZdk3BrbJAGmRFmlhAAMYSMMAaYE1Dawy621m1vpdv0cGSIu0SAsDGMBAGgZIC6xpYI3ZlmXZNwa2yQBpkRZpYQADGEjDAGmBNQ2sMuttZtb6Xb9HBkiLtEgLAxjAQBoGSAusaWCN2ZZl2TcGtskAaZEWaWEAAxhIwwBpgTUNrDLrbWbW%2Bl2%2FRwZIi7RICwMYwEAaBkgLrGlgjdmWZdk3BrbJAGmRFmlhAAMYSMMAaYE1Dawy621m1vpdv0cGSIu0SAsDGMBAGgZIC6xpYI3ZlmXZNwa2yQBpkRZpYQADGEjDAGmBNQ2sMuttZtb6Xb9HBkiLtEgLAxjAQBoGSAusaWCN2ZZl2TcGtskAaZEWaWEAAxhIwwBpgTUNrDLrbWbW%2Bl2%2FRwZIi7RICwMYwEAaBkgLrGlgjdmWZdk3BrbJAGmRFmlhAAMYSMMAaYE1Dawy621m1vpdv0cGSIu0SAsDGMBAGgZIC6xpYI3ZlmXZNwa2yQBpkRZpYQADGEjDAGmBNQ2sMuttZtb6Xb9HBkiLtEgLAxjAQBoGSAusaWCN2ZZl2TcGtskAaZEWaWEAAxhIwwBpgTUNrDLrbWbW%2Bl2%2FRwZIi7RICwMYwEAaBkgLrGlgjdmWZdk3BrbJAGmRFmlhAAMYSMMAaYE1Dawy621m1vpdv0cGSIu0SAsDGMBAGgZIC6xpYI3ZlmXZNwa2yQBpkRZpYQADGEjDAGmBNQ2sMuttZtb6Xb9HBkiLtEgLAxjAQBoGSOuJwvqf%2F%2Fyn8SMGGMBAJgbijGptmbSesLQa%2F0RABEQgSQSKXNdEFbeTFmklQVozRUAEnnIESOuJyihmHPuWCwD%2BiYAIiECWCJAWaWVhVTtFQAREoH0Hvy8Rr%2Fs8HnyicjPTMgqIgAhkioCZ1hOVUc02Dv0mrUy3q7aKgAg8AWn93bx5%2Fb55fvX3UV%2BUlEH849vp8V0Zz95er5TR7X%2F5y01z88eX5vmLn5uPq7K7bl6%2BeN88e%2FG%2BaY%2Ffe9y%2BcnZ%2FKPj71Ye2vFLm3p%2FV9u%2FKmkqMtAwCIiACmSKwQWkVqXxo3vzRi%2BqACDrxrEjrl58XJHKciG5uSjuOO7aV1gEhHXPMVFhlfS6tv5pXk5h8%2F9O3Vab%2F%2FOmqefbur9X9doiACIjAfUZgc9JqB%2FfXX5rfwwxoadt4gN8jrUlZ4%2FNumrbsiQT2zpb6Y%2BPM8RghHXPMtG1L0vr07n0zktSvn1sxj7YVAv%2F5rfm%2BXhdp3ec9qSwREIE9EdiYtLpHd1EINzedkMbbpo%2FTbi%2BtJVHUOlt5HZBeOf9o8R2YjS21ZT7TmtNSRPbsh9%2BaP%2Ftd7eyqX2%2F3kdY8aLaIgAg8SASejLTWZi9RRuVdVjmubKvLa%2BcN21updNIatrUzjA%2FNm6ulx4P1vdP6o7%2FundqX9vHgm6sPB9%2FHHTOLmh%2FTt%2FmAFG8jrUgiacVoWBYBEXjoCDwZaUU5Lc0obsr7p9dfmjfTjzD67fFx4fz8MNMKjxVjmaOPLvaUuZNLfadVyi7v2Kazu7uu35O0%2BseAs8eDPZmk9dC3qPJFQARiBDYjrY9vOzFMvxycrs%2BFVeSxX1ofy9d94dFcEdOSRFthDTOfKq1SflmeiquXTn1vdNLv9Vne9Pr2zrTqe6vwaDDCU5ZJaxoR6yIgAg8Zgc1Iqw7WY0kdEMMgmOlxvRTqjGr0GfySgLrP7J%2BNvhaM0qqf0q9%2FJr%2Bbod11BjY%2Bf01a7XurIso9wipgktZD3p7KFgERmEZg49IaD%2BBVbN3fYkWBhJlWFFSVVpiJzeVShTed%2FUykVR47tmVP%2F4ZsbSa20vb4%2BPKI5bm0vjU%2F%2FtC9l3v16xSX%2BTppzWNiiwiIwMNFYNvS6iUxeh%2B1tK19fNdLLEhrJKgisPYR3lhOZWZX3qWVd2bt8Xse83WPFIvM3o8eN1aZjT8EqR98xN%2FjugcJ75HXVFqthF58bj4dyRxpHRkoh4mACNxLBLYtrXYwrzOh983Lt514RhIrxwRR7ZbD7Gs4pgjkWHEszLT2yOWggIZZX52B9dc1POKs28e%2Fx9Lq%2FrD4mBlWpY%2B0aiT8FgEReIwIkNYgin6GsyCddoZUB%2F8qsCCJdjZVz%2BtnXEsfYozFc7%2FSGr%2BrK2K6hbTqhxeLs8Gr5sd%2F5kiS1jwmtoiACDxcBFJJq5NDfBx25HL4sm8%2BuI9nHu1n7JMv%2Bco5w%2Byrl9bLdlsvhlB%2BJ6aFR3yDHGt9t5VWlevk2qtUZ%2FXU%2BpZ%2Fj2daDweakkVABETgPiKQSlrjmcryIOyY0%2BJCWvdxGylDBETgsSJAWifOTJ6aFEnrsW419YiACNxHBEiLtO6DI2WIgAiIwKNEgLRI61FAU4kIiIAI3EcESIu07oMjZYiACIjAo0SAtEir%2FQ9BFhD8iAEGMJCBgWO%2BLfj69evKf4n%2Bpon7vru%2Bvm6%2Bffu2evBSZbGApf22nfZFoHiJFwYwsHUG9nkl7iOtjc%2Fctn6juH6ywMBlMBDFNO2TuI%2B0SOukWfYUJuuXccPrB%2F2QnYEopum1xH2kRVqkhQEMYODsDEQxkRYgzw7kFELrZgYYwEBkgLSIiqgwgAEMpGGAtMCaBtaYbVmWfWNgmwyQFmmRFgYwgIE0DJAWWNPAKrPeZmat3%2FV7ZIC0SIu0MIABDKRhgLTAmgbWmG1Zln1jYJsMkBZpkRYGMICBNAyQFljTwCqz3mZmrd%2F1e2SAtEiLtDCAAQykYYC0wJoG1phtWZZ9Y2CbDJAWaZEWBjCAgTQMkBZY08Aqs95mZq3f9XtkgLRIi7QwgAEMpGGAtMCaBtaYbVmWfWNgmwyQFmmRFgYwgIE0DJAWWNPAKrPeZmat3%2FV7ZIC0SIu0MIABDKRhgLTAmgbWmG1Zln1jYJsMkBZpkRYGMICBNAyQFljTwCqz3mZmrd%2F1e2SAtEiLtDCAAQykYYC0wJoG1phtWZZ9Y2CbDJAWaZEWBjCAgTQMkBZY08Aqs95mZq3f9XtkgLRIi7QwgAEMpGGAtMCaBtaYbVmWfWNgmwyQFmmRFgYwgIE0DJAWWNPAKrPeZmat3%2FV7ZIC0SIu0MIABDKRhgLTAmgbWmG1Zln1jYJsMkBZpkRYGMICBNAyQFljTwCqz3mZmrd%2F1e2SAtEiLtDCAAQykYYC0wJoG1phtWZZ9Y2CbDJAWaZEWBjCAgTQMkBZY08Aqs95mZq3f9XtkgLRIi7QwgAEMpGGAtMCaBtaYbVmWfWNgmwyQFmmRFgYwgIE0DJAWWNPAKrPeZmat3%2FV7ZIC0SIu0MIABDKRhgLTAmgbWmG1Zln1jYJsMkBZpkRYGMICBNAyQFljTwCqz3mZmrd%2F1e2SAtEiLtDCAAQykYYC0wJoG1phtWZZ9Y2CbDJAWaZEWBjCAgTQMkBZY08Aqs95mZq3f9Xtk4Fhp%2FR%2B9uwsWHKW2ZAAAAABJRU5ErkJggg%3D%3D%3B%22%20vertex%3D%221%22%20parent%3D%221%22%3E%3CmxGeometry%20x%3D%22580%22%20y%3D%22610%22%20width%3D%22429%22%20height%3D%22305%22%20as%3D%22geometry%22%2F%3E%3C%2FmxCell%3E%3C%2Froot%3E%3C%2FmxGraphModel%3E&lt;/span&gt;" style="rounded=0;whiteSpace=wrap;html=1;" vertex="1" parent="1">
          <mxGeometry x="190" y="590" width="420" height="240" as="geometry" />
        </mxCell>
        <mxCell id="e7UA-xVsm7CpeUVflzim-11" value="" style="shape=image;verticalLabelPosition=bottom;labelBackgroundColor=#ffffff;verticalAlign=top;aspect=fixed;imageAspect=0;image=data:image/png,iVBORw0KGgoAAAANSUhEUgAAA38AAAHVCAYAAABBr0IuAAAgAElEQVR4Aey9f6wdx3Xnyflj/5k/FotdTHYjy/rB2H4vtmVFsk3LZuhfEZ2YtjTks8IoEk0n8iND2lYoLfkkLRXSEp9oxmRiP3k0GSSyRCukpVC0TXqSmXkrKJuE61jJUEvCm4W9XCX5g8EsMqMFCAkYgMg/tThVfbpPna7q2327+97uvt8HPPTt7uqqU+d8qrq+t6r7rrnhxhtMnf+9+/Ya+g/lETu3a9cuc+TIEfP444+bn9/w8+buX707/cz50LH9j+43t7731lzedL0sk/KgvOgavl5vY7bodFX32Rayk+wlG6gsql/RP9edyqP0X/zSF9Prq9hAdT948KC544470rqTTTHfUd5l/FXFhqppR8UiVCe2WfuU6irL19yQX544/EQhG5x3ET+yjCqfmQXeavuL9g8dOmS5LkpTdI7qo/1Btof8H/LBKI6q+EGnpfKI0Y2f2Gi3HEfaFtWJzi3uWLTXxNJx25L2EwfUTqhcsoXOkR/YLpmWj8W2IV/F0tY9TvGL1VMfpzpwedwfyTryuaIt1a1Mf0L+JD/LfifEVVFZZc9RvWRdNddcV+Lp4YcfzvV9MtaagzI2hHzC1xVx05Y/uGzeyvrxMV1PZpbSUhptm+4ndJ5yP+QPOh+75+i8Q+Wz3djWG4/Bf/Bfnxm4e98R89iu29P7GNfl9l2PmSP7xPj+E7vNY1/ebW6vqV84/6ltqR5HHjO7P+FzG/NDk3auqZtZaBBAeY46/vnPfz4djNGNg/6lLaEbBp3nGz2d5/R8Y5PH+Bxvi25OnGacLd1EeWBCnykP2ur6xPLmG+nCZxbszZPqwPXhfGNbKifkp1F1ZR+WtTFmuz7O+ZK9JLi4TjH79XG2h31CDElfcHylf+kaLo/Sy3NsH6fh/Pk4b9nu2HlOV2cbipPOb5QdsTal85H7IX+QLSyQOG3ZY5y+7pbKI9tCdeZjlGaccrjOFE8ekJLvWPzp/Hm/bPyrpq9SB7Kd24W2p0q5su4yT847tCV/0z/7jO2WedExtoPy5TS01enkuSY+h2zjfCm+1OdQvTQ3tM+8cx70ZVvIB/oY1ZGvoXpzebwtqnPROb5+nK2sq7aX9qmuZDPxvueBPV496TiVSfWS8dN1JNvleZlep6X8iupaNf04PsE1/uAR/oA/+shATPTkxN89e82RUuLvdrP7y0fM3nuYh7vNXjEx4wtN/9yRI3vN3am45Hxkmrxoq+5zl2/eDpk3lSn2rWDMJpe4bjkf3cg2c93dPt8zaos/qqy8MdA+Dw7ohqCdQTcCOi4HYzoN7YduGHRcCgO+TgoErhhtKQ9OQ595AMDHmtpS+TRgoi3lSf6gb6B5MCJtkp/JJq4n58E2077+Bp7tpfzZt7SlfT5HWzomy6HPekCnYyavr/s5ZDszwfUL2c3l8vX0BQH5UQ+6ZP35GtrqMuQ5OWBi38nzbfqDyqF665jE9kP2kU+I39g18jj7OOYPzovTkX0hn5LPqEzaSl818ZnKo/LZRlnnUX2DLp/y0XxTGsqTj8s8mS+uF9sg/UHXk43sV2rLnJ7P0XltS1P7oXiQfdyHkc2Uhuqiy6R6k93SpzpNiAFKQ9foenF+MV9w3tI+PtbUlnwfYpGOU2zYL7xPtnI85bWh+pGNlIa/HNA2x66hdHSOGdPXtekPKou51fGic0X1ofN0DceTt7IedJ7qxnWS+yF/0DHOJ7SVeVOebfuG7caWB37YgoXuM0DiL9R/2GNy5o/EnxBx3qxgKtiovr4A8sXl7ebue3iW0Yk6KcKsmEoFJgunTBBaW9Pz4/vWL+cGo/dvuFGKP78+dO7uRNiOFH+f2G32prOqt5tGxB8PJPhmQTcK3dnrhsc3J1725QVSBlV8ppv8fffdlxNFXD7f7HVZtM/lhQZLofRlj/ENWJZN9SfRwsKF9uk8/dNnaS/t67pTPSktDWj0Od5nX8duxKP8H7qubJ1HpaP6aeGqj8nypQ/ZN1RPrgOl5XrHtpRG5hOzkTgg/3LenE7aw8ea3FI8dZk6f7afbJHn2GaqO+Ujz8nPfD2n0fsyLXFH/3RMx4bTxY7z+XG3MsY6nlR3sl8f5306X3S9TEdp2eey/et6sZ+037l+dK0WHpSW/cfpmtxS3tKekI0hG+g6FkPyem0b+5BZ4fOhPOkY+5Ht4H2+jrbSx/J43c9cpqwPfaZYh+yg8rh+FLfP3PWZtD/SfmXbQvUuey5mQ1v+ILvYJ7rsEKtcD7klP9A/HyMOOC/OW7Ih/RbyFR3j6zlP3sq8+VibvuEysB1/QArfwXfTYMAXZ1kM8sImO8cCLywAfbFkBZsUkSwUgzOJRaLrBnODnYHLxODY/vKWfvr2ujzzdkiRyuXmfRTKK/NbI+KPCqfOnAYdRTdkNpLTx75ppfOhGwYd1wM3PkY3eXmzouPyv62bDZXJA07akuCjmyAtKyoj/thGfcMN1ZPT1rkRcx6hGzifq7sN2U7lUYzoHOUvy+e6k79YNPI2ZIusvzzP+RRxQOnJBs2LtEfm2dTnGM8yf7afbOHjzNdnt3/WciVZi33m+nN+vM950paOcTzoc2jgFoqjzKOJz2yjrHMoXzpP/Qu1Y30+Zj9dw/WS7T9UL2KK/nXetE/Xkq9k2ZR3LH0oj6rHNOOhOrLv6BzbSe2Gv1Ar8mmoDVAeoXpJP1Ka2LXSx1XrW5Se8uV7CzPPdabr5PlQndlP3IboWnkN56m33D5CPmF7tW/4ONtVdI+Taat+Jj6IbbJR2x3a57pwOXS95FfyFWsf7NuQP4r8IPPm8ttihfPH1h//wB/wRx8YGE/8FQmxvACyApAmlcSsXV44ES/yWvk5YWmE+EvLsRNYYtmm0iYUl7TewTyl+Mvssv28ELL5OuRtljY1Jv74BksGxQZpEr5RnX/ohkHXh25MscGILI/y0zdAeb6pz2wfLVnUAxZ9UyabuFw9GKHri27s496IuTx98+fjTWzZB1Qnyo/KorrL+soBhE6v97VNlB/XX55jBmU58jx/5nQyjzb9QeWSTTr+sX22i/xHDNCWbS6qm06j97n+tJXnYv6U5ctrm/zMdrAvaEBLg3Syicth38XqTsdZ5PE1tCU/8nGqCw/EQ3wV1TV0rm1eZEzIR/TFCNkh60f71Mfofo19yhzJa/gz+YCu0z6la6TvtR/5ekqny6W89DFO3+aW6kJ15noTS7oOtE/Pv/GXSjKmXGe+nupB55kXPh+qA51jxvT5tv0RiqGsF9sj68LHyB/SR2Qr10N+lumprrQf8scoP3DenF/bvuFysIXoAQP9YSAVQUog5YWNqhOJJiHmspjnBRCfs3nyNcGZP7qWRVsgn6BQU3apenDZuW1S/t36xTb2ei3+sjKsmEsEYN5Hvs3at42IP7qJ0A2XOnSqFN0IaF93+LLCoRuSPB+6AdF5eYPm9KGbIJ/jbdHNidM0seV6kf2jZv5odpAGS+QrGmjQP/uQ6sQDFW0X+ZvqQ8dDfhpVV/Yh56Hzr7svByBka2hASGmkOJYDEVl3spH8U+affCF9Q/WgckhIyzpROvkFRdv+oLJDcZI20eciO/hcWT9w3toffJy2zAm1U/K5PEefyeZQ7HS6qvs69lQnySK9KIjKpRjxlyjyvC6vjG+pTB7Msy/pOpkXs6aP07VkD20pPV9fZJPMd5zPMm5sV1HspS1l7Iv1mSFfUt66L+cyZLsNpRun7rFryDb2AdlDM5zMCccmdi3ZRmmZARlTOkf14DpROXSe04Z8wuUU1bnoHF9fZxuKoawX5y3rwseovnR/Ij+yT2nLXyZQnTmt9AsdC/mjqK5V03O52GaDPPgCvpgFBrRA4TprYXP7rt25l7GkSyGtKAuJttvN7n3iDaGe4COB5b9p1BOH3ixgwmKT4s8+1+fGufwCF667/8wfjXGzvtnzC9VHvKTGnqMvQu0zgb4QpFnNscUf3VB48E4df2Zo1kjpBsM3FEov04RuSPJ86IbB5ylf+uf90E2Qz/FWX8PHm9jyzZFvolQW1W+U+IvdYOk451W05XLkwJTqQ/EIXcdxKuOvcf1CNrE9tJV1LJsn2RcTvpQHlcF10XnScTlQlZyyT8guKoOvbdMfXEbdLTNW5M9QGu0PaQf7hvwpj/Pnoms5Td0t2xyKJ9lFMYvZx2WH2ovOT/c3lGcoX2aBWeGtzI/TFMWCbRtnK+PC/tHMynwpPfc1dJyvkTbL9PQ5VgfKi9svX0P5yDbFx9nv7IeYTzn9uFsqv4gD9hfHKmQrlc32UjryF9eT8ifb2W+UjvJk8RfyCdcl5hs635Y/uOxQDEO2yrpwHdlXHDvOM2SzLidURpEfqAwdk1A5bAO22RgKvoAvZomB8uLvMW+Mmwo/mimLij+3vJL7PimUnI+dAEzP86ygnX3T4onLaeCZv2R20M7iCfGWxV3O/Dk7wjb69Xts193+m06tOOSJlMeqiz++gRYNRjKjXcOlmwUJRfqnz3Re3pB0etoP3TA4HZ2rUr6+eXE+TWzpJsb1onJYtFD9eEBGachm+qfPIXv4pkxpRtlFedDNltLxdbw/6lo6X9V/ZfJkW7h+fA3tp6COmMHjOpDveGDG+citrL88Tp9HXavT035b/qC8qU5l66/TUT3ZXo6zThPalwyN4w8qk8vjmLAdTW9HlUN1oTpKX/Axrju3P20btzNOp/Oo0ofIvCfBC5VB9o5j4yifUl1iXJS5VvqCP7OvyW4+Nq0t+Y1iTrZwfZgBFiGy/sQ4XcNp6To6z+KPj1dpC5PwR6gMrpf+mR3Jfiwu7Ac6z3Vmv8nr+VwVf8gyQ3bL8/gMwQMGwEAzDEjhBJ9Kn4498yczmfTnqjcfuknxTb9NW6kcviHSTZjFH5fJdtMNVQ/q+FyZwRPdiLkcypuu0flxmXrL5cjrdZpp7fOggPxTFC9df20vnZeDFX1e7nfZHyE7i/jguug0VfzBZVZhiq8ZZ8s2F/FIXPCXKuOUEbqmTLlNXhfKK3SM/C7jR595AD5qy8zH6kY+lnnE2tg4sae8Y/mF6jntYyySaKttIT/qPqiqT6blj6J66XrW2a/qD1nWtHwjbcBnDITBwAww4C3tnIH6JrOIZdjupfijitFNjr7xp5tQUUXpfGxmoOi6vp2jAUuZwVfZdH2rv7SXRSQNMuTx0Gf4I98hlm1bIX/26dg49ZwFXiiGVeqJPtZvQ/CH7w/ZJ8yKb2Sd8TnOA3wD37TCQLrEkZ/9g5+1n3sr/nRFsA+4wQAYAANgAAyAATAABsAAGAADcQYg/ipMkwKkOEjwDXwDBsAAGAADYAAMgAEwAAa6zQDEH8TfyKWRaMTdbsSID+IDBsAAGAADYAAMgAEwUIYBiD+IP4g/MAAGwAAYAANgAAyAATAABmaAAYi/GQhymW8BkAbfFoEBMAAGwAAYAANgAAyAgWEzAPEH8YdvecAAGAADYAAMgAEwAAbAABiYAQYg/mYgyPgGZ9jf4CC+iC8YAANgAAyAATAABsBAGQYg/iD+8C0PGAADYAAMgAEwAAbAABgAAzPAAMTfDAS5zLcASINvi8AAGAADYAAMgAEwAAbAwLAZWDM3v9bgHz6YNgPXXX+ted/7b8Y/fAAGKjCAdoM+o06/CX7ATx1+Rl0LvsDXKEb6eH4IXEP8Qfx2QvwPoTH1sRODzf2+OaPd9Dt+025/4Af8tMkg+AJfbfI1rbyHwDXEH8QfxF+FmZZpdTYoFzfREANDuAmF6oVjk+Ed/EzGz7PKM/gCX0NkfwhcQ/xB/EH8QfxhqWVPGRjCTWiIg4O+1An8YHDeJqvgC3y1yde08h4C1xB/EH8Qfz0d+E+r40O53bmhD+EmBJ6mxxP4mZ7vZ4F78AW+hsj5ELiG+IP4g/iD+MPMX08ZGMJNaIiDg77UCfxgcN4mq+ALfLXJ17TyHgLXEH8QfxB/PR34T6vjQ7nduaEP4SYEnqbHE/iZnu9ngXvwBb6GyPkQuIb4g/iD+IP4w8xfTxkYwk1oiIODvtQJ/GBw3iar4At8tcnXtPIeAtcQfxB/EH89HfhPq+NDud25oQ/hJgSepscT+Jme72eBe/AFvobI+RC4hviD+IP4g/jDzF9PGRjCTWiIg4O+1An8YHDeJqvgC3y1yde08h4C1xB/EH8Qfz0d+E+r40O53bmhD+EmBJ6mxxP4mZ7vZ4F78AW+hsj5ELiG+IP4g/iD+MPMX08ZGMJNaIiDg77UCfxgcN4mq+ALfLXJ17TyHgLXEH8QfxB/PR34T6vjQ7nduaEP4SYEnqbHE/iZnu9ngXvwBb6GyPkQuO6U+Hvfe280X1u+zizdf31QkNy79QZ7/s5NNwTPz0HI9dYvTTSmj370Peapr77NHFiaC85kLX7uZ+35u3/5XcHzQ+ykUKdh33ybaDdgZNiMFMW3CX7Q784uP0Vs0TnwBTZGMdLH80PgulPi79z332L+9q+uKRR/lOYf/+aa3oocCNS1wdg10Zj+8k+uM3//19cWij9K85//5hqIP8x2DoKBJtpNH2++sLmZQWUT/KDfbSYWQ2QafIENcB1mYNr9ZqfE33/9+582u349POvHoolmBykdzQLyseluv2JeedMY83enOmJPWFxN10ejbWriJkFcPPiF+cJBPX1LTeloFrB2p/Slp825V//UfOtL4cZdO/9aAm2H+dafv2LOPbvD1bOLtlqbXjGvvvqKOfNVZ++rZw+NH5evvmhe7Ww82mGkiXYT4/S3fukms2n9e8aPRy1+x/CXjT/xRG2yAZ4at1+1ycbzr+6zJviZeL/bgt+OnH3FvPrnT5svtJB32r7QP43VlwyBr5SBNvmaSt5d7Ger94NV4zOEfrNz4q+MqKPOoEw6KXh++6/eMObNH5rfDi0N/e5r/rkjPzRvGP33mjkdunZ+hsTf7j80f/z8A+YXgn4ggfcRs/f575uTu0eLPRkb+txUYyoj6iD+2u8cR3emh8wZK/rYlgZuIhhcjTW4olj9qzvfbT56G8fCbd/Y+U7z+Y858Rc6PzrGfn6tps99udEAT40PppoSfx80n/7Vrebe7VvN1js+OHbMKR697Hcbj8vNBuKvnbbabb6SPuJV9wUkfQnp/79ojrTAWnP9oLuHxmy2TOfqJL4QFnXjtGe+GuJA36tlmi72s9K+dj53m+tydV6z486bOjNjVVbUlU0nBUZ18RcTe9WFjbSjz593fvc1c9VcNX/7/ZAA/IjZ+/3k/Hfvq8xULxtTbsA5otFZcTKpG4oaaFa1VdwYmrtZCf90zZ6269tS/k20m9N3vduQ0KMtx/oXPnizPUb7JPzo/P/x2XflBCKnn/p2om1LcFwprqpNVrqWyvygufeJb5n/7S/9Qeor/+Fpc+De8URgE/yU/TKtbLrmWAr7+wvP/mn7s3yVYzsuU92+rk98WQFUZ+VJCzGPsWqPB1a5HDmbrUQK14cFoz8OYfH36qv+cdcWi8Rft/lrri/x69knrmM+WLP/0QdMFwTgxz7ilnOWeZkLPbPV6swfzQQaiL+8UI0LvGJhOFow121Mn970brucs8zLXP7L/3XNdJZ9TnSAqgY+XRNbXbOnhRt3rNNt8njddsPC74ISdkufuMn8+19xYpBmBOl8pwXgRNuWPxAoH0/VJisyt/WrL5pXAt/k22/+X3nRHNla3a66/Eyl3y3tt7C/YwPq8nGs7udZzbtPfIXF0nRjHWS1ZF8Xr49rF/IRC5f2afuoiDzuuIX40+23T1xr23l/zf5Hl8z+R3eZe6JL+UYP3PMiofo1T3/9rfZlL2Xy+qM/uNb8ybevNfT8X5n0lKbSzJ9eBlroG7fs842/+kpqy+m/85eM/u13pT9Omb/1Tr9hXjkizrPwVEtP/TxE+kLb2kiXF4B1hR/Fp25jeu6pn7Eve2Gwi7bfPX6jWT11g6Hn/4rS6XPu2zb+1v1Pzbe+mn/mL/sGzaXjZRT6uPyGzc83vCxD22L3rYBie/QzK2rgU1FsaZu8G4K9+cTKTZZQnT1k/DyybxT945QPnVP22gEef0uZlHX2kFueFft2Vt8US/hHLpnhWDlfZ/Z4sWv7uaDSA1s3KKnTbmLCj+r/wmfebZ7YdFPaPuoKwFzMZQxr8uTFh8SRjVEWv6ztlOfJ2Zt9i055uGMJx8yatD1hw6urx0vIppKDyw8fNC++ItpcQAS+cvqg+fAE+SGfTKLffZ/0MdVbsqPbOJ/Tx1+lfvW33eBW+i6Jj2WIrxV9kceWF0sXN+889WPMRSgO+py20cvfsTLL/dPE+Epi5TPA7VL1GV6MKE1xnHw+/P6Ey/P6i3TmLZ9vvF9jW/0t55/1f+K8YjFNmzDp3wuLxF++T/PrTM/z63JFP6b9yXaptuHlEWpbEz5W5747Ea7Zj+/3+U3fAfH+m00nxN/Xlt9q3+BZVsxRuosvv8XQmz/bEH9WKHoCrWgW0Bd/OZH53ddMKtwSQSeF4pwVeyZLk+zL5xOdPUU2tCHyivNkwfcP/89ltxR0jKWeMnZ1GtO/Pvo2+wbPsmKO0v3oz95q6G1LwY4x0JF4Az97nhuV6NC/9LQ5wy9YoTS2AYrzaYMUnSE1znTQcbN5X7Dzlemzz0fOZoIqvQmlealO2eYrbAnUkX3hOm+Zd2aj84Ofj07PnX/W0SQ3stQ2rqfMR9mbdFpZHjz4VoM/WQ/Pv/qGtcN86yy/0CGJXc4eKbwTm73nEt110ib22bS247YbXspJs3mfDrzU5dKvvcssbPC/HCEB+P9+/p12BvDcPeV/LkXz8T7BfGM8ebGnNlKfJ2s3M6Lbjy1Pssj9Qf5Yxou2KWvLI/k5Qi8zEoOm0OdXvm0OyPZQ4vO4/JC9k+h3XX8o+4msL8qfS9osxyzHgPO3ZU4NOr1YiwF9NujMt317jcwnHbDKvlPE2GPU5Zflj/5Jt4GJ8CXaiM8AxU3HSD8bmrT5lDd3z+eY5vKz8c9YtuftlxLJS9mYO5FfjlXdDwn7tf9y5cu0Kh+Z1vXJkuG8H7Ky/D4tZ+9XX0zFn8s3qz/l4XwgyuJ+VbSrvD2iTck6TfBz5/tN9mP6ZQKPubIxzppf2zP9mT9a8vnvnr/W/MXZcmKOZglJ/JVZIsoCIy/oPHXnv/BFzaa5mbyY+PLFn00befNn7Jx33Io/NRs472YLUxGp7OM6Tnp76C/da3He+MsvlxbhMRvrNCZaevS/vniD+cs/ub6UmKNvq0n8lVki6jq5SOenOtCsQ+TOSV3n3fw5jd76nWk+T50+2/c7XpXPSFuTfArTqfqkna1/3HboovO2ddB1z5Xj2+vXJaujvEnlfCPLyOWf5RHL2z/u7PFmGXj2R9ct9UNWRs62ltKM226KZvLu2vAe85PP5cUdzxSSALz7w74wjNa3IA6hwZXLZwyeZOytrxvgKbXdz8vamCuPv5wQA5kcL4F8SnLxS187M1r8vXrG/M6magyOyw/5oP1+l79A833KrFFfkAnrpN5eXML+9tu5u87vV9x1hW0/ZUP52yu/4Fzs+hwzWR6+3SVsLMkW+7ONbef5Ej7yGUjasxBi1j8ibn48sjhl6TS3Po+2PH0vUfzkyrDl63xV2UmddH38+FIfmwkxP61my++P/XwCddI+s/bE8lDHbf0zu1xZKo2ImW9L2A9tpOk810E/JkwnzK255zenL/5IEJCQowfCy8z+0W8BjvpJCC0ycjNyUkCR4Iq9CdSm8wWen7c6ly7X1ALOpQsKOFm+FX9aaHZP/HVp5o8aNwk54qfM7B/9FuCon4TwOoxYhytuBGl6e8z/hp6/CXQzgaGO23Vu8pv93KAm0uHZTlvOAqQ3E79Tzn9LHukoqdNI81BpYn5IvsFjm/0bSZKHuqnl7fHtpTw4v9S3/E1h8OaSHyimvlHpY3k7mzg+vj1sQ+5mHIkLp297W+cmFBOAX9l0k/n2QvbyF6rDWMKPfDMpnjRfatYnFnPLiOJDxszGm9qXbhO58vwbK+fh8xJmitMWbr/87fjzftz+JzzzR/a22u/atuV8Rn2j3x9kx2W/6T5Xb8M+B+E4ebGMcR3gIo2rOmfLpNgp/mKszlr/NBm+snuczwDPSvn3cseXEyfROHG/x+1SbZljXZ7lRDHiMUf5hsYctp1k9WDegvlzWpVPLm0yjnFjlyLxpdpKcl3uJ5fscW6Xvq2eH1X9XV2Kyvfz4rq3va1z3yXbWu83g370x0idEX8kqGjwXuZFLmXTSZE2MfHHotKKOJpdZBE4FPHXzWf+qEERF6381EOs47LHs2+pbAcqvk3LzWwEGiQPLlOBqAat0U6MO1kxcPBvFKFOObM1mi/ZqAe63g1jdAeeu5HQ9bruynd6mZ53Q+DyK4o/V0cxSEx8Fct7FgdXUgDyUk5aCrp3Y/a8Hy8RrTTjxzGbFE+aL9WOYjEPssq2p9x2QPx19Jm/VvtdGYdkCV4mAl27zvrN0CBQ9YFJfn4/6a7zOShxXYzrHIfCruA59E/Re1ESr9bu6x5f2bPqbE+szyh1PsaHKNNnLuFEMZJntbwQCubP5Sv7Qmnd2ITu90VlhtuKu9+TcE7GHLExlPriODdOsPYWlS/aF9dtAtu64q/1flNxxMxK/0L8kViTM28s3rxt0cybmvnzrvPPecs7RTrveKdn/vLCjwU2zwSGfwai+PlByqPTjSkRWrmBhm1gLKhCHZQ6lmuQoY4zdCzfweVvCnrmQeWTE1v5PG0HUZhO1SftZP3joRuJ7HTC5fj22jxyItSl0d+Uhzq29BjbKHwf8h2l94/79nB+fpqID7nMCWybaDckAEn48VJOEn8f/2BWN32efVFqOymeRHydXX78xuLJDnqofft52fxz5Wl+nP98XgL5VGCki2/7JF9ManBOZUl/BvsZz59hf8s8HCt64F/iOht/7vuztmLzls/ZSHsCzHD5sn8M2afrrr8s43xi1/L5SW+b6J8mxZfmaRb2W8EAACAASURBVJQvC88X9nuOF12ejY1iJFRGuC/LGOQYB/O3PPr3a0ofTuvawatn3VtAc+Mfm1e4rTgb5Ll8mS6NOq7qH0wj29SUPnee66Af/ThD/JEIU+Lv9N/5yy6tOBM//eC/gEULPHmtf24u+sIXnh1MbBFlOXFVJD5HCysWaHW3xQIvLgzLlNv1xmQ7R++m7jqt9JstNdOQdqjyhSGBG4LudG1nn1vilO/Y5WDBdpA2bzlDITveMZaL6Loms2bOPn/QY+sghJquk7VPd0Y5X4Ts9Zd6sW9S8ZfUOb0pyTKCL9/hWcskdmLW1M36yTeTKXuSm0zoZuxuUIEYTeDG1ES7kfb/yoffY/7Nv/SXfMrz43wOtp2meZKxt35X8UtY4SVXVI9intz1KWs2f8F9rjxfmLCffF6UTZX5+KC598DTZnWWfudPvDAijRn3NTYGss26fk6+dKtUX5Qb/IbjFIqlt0qC+2DuO9E/dftLXdX+cqwE+gz5sipe2ZP2EZRfymvSfzCrSVnyJW258pLr5ZvAc/d5m0+SN3OW5E3tY+Tv/CVtRvaD7rr88mPbh6VMZ+3M2p3Wy28rsn76CwrX34o+lNtdmldghZCtmxKIor7WxinsN3HfbfVLjSTOXv+k+stOiT96lo9+wiG29JNeDPPC719rv2ks82ygFB1Vln06sSdeCKOeBywWf+I6WvQpfgLC2pM+E8jppFjstvib2/2H5o+fD/3AOwvQj5i9z3/fnNzN++W3TTQmepaPfsIhtvSTXlDwnWfd70mWeTZQdyy200vX779ojtiOUXRmoqOk5UlnvprvtLI8lBBJ8j337CH7OnLdOWtbaD/Ly4m+I96PF/udcpVnBXJ5SwErB83sCymi2C51LHcT074LiGcWZO45CycEbZ0578TfMfF3ju2zW/Y3izQW7/xMh4ijvZko/yU3GH8AyHlNb9tEuwmx1fQxj9U2eLI3NhnjQPxU+6Q2FuPJ2Svz4/aWHMuVNwnxx5x90Hz6V7eae7dvNVvvGO/H3Tm+TfDTar/Lgxhuy3KgSG1Sn9cDYhHzrE91bNh+JcnP4yDUF3G/55Uv8iH76JzkAv1TI+KvVb6EcPAZSNqa4Mfdh/R9Qt9HZJ+h+FBf6gbLk/yI+5BklduuE1N8/0q2fG/k+zC3m3Qr7eP+xJ8R4vx5y+XwfdbanbYDv5+159Ky/C9vKT/Oi+/pnnBO27O2MT+OYtumte1Hv8k/PZMxwjEkv3VK/NFLX+itn/Q2Tync+PPS/dfbn3eo+rIXvr6drZvdC77IRSztbKfs8uKq6+U30ZjoIVp66ye9zTPUKRxYmrM/71DpZS/i5hDKE8eyG8gkfBG8YXKM6MaZ3pQma9ck6h4qo4l2E8p3Vo4V8sRcDXjbBD/od0Vfkxu8q3Pon4L35qL+BnwJhjrXFznxJ0VFUSyHcq7z/WZRP5Qw1Cnx13WBEravG0syw7b1Rxw20ZiG0rFwPfS3aOm3Zfrb7Yo3hLbyZbvb2xZ/A9i1Wbn2/JANBtBuMl9U93cxT9Xzq2PLdK4FP836vejLBPRPzfp6Ftpn9+s4m31o5/vNMuLvn+0/b/67/X9mbtj2dfOWj20Nzrj1XVi0aX/hclLM/JXmqfONqaLA6n6n3fEbMS23EUtY+PmB+MwebkJgroDpyjwV5DWgvgD97rhxphkPf3maW9KmlwVy/uif0D8xC8PZzuIXGsRx5/vNMuJvzf5Xjfz/5zv/0Fx/2+2lB+1tCqsu5509F6ie2YPgG4udzjemAQ34+nETdoOlbLZTvsxG3DzFMxnZMz3i/MDjhnZTNtYleRo4L7rtg5+y/OTT5VdQBIQf+qfKyzw1o9jPszdtn2Ts+1+ATNuuSZXf+X5zHPFHQvCf/S9/jVlAiLixRNy4gr3zjWnGBoWT6kRRTr0bO9pNPf/NOn/gB/y02QbAF/hqk69p5T0ErtfIWT/5mQQgZgD788zcuKKrK9cNoTFNqyNCubN7g0W7md3YN9HuwQ/4aYKjWB7gC3zF2Ojz8SFwHRV/JARpCWhXxAHsGLYQHUJj6nNnBtv7eZNGu+ln3LrS3sAP+GmTRfAFvtrka1p5D4HrQvFHAhAvgRm26OqKqB5CY5pWR4RyZ/cGi3Yzu7Fvot2DH/DTBEexPMAX+Iqx0efjQ+B6zZW/+wfvhS9y6Sd9/m+3fR2zf3j+r3UGhtCY+tyZwfZ+3qTRbvoZt660N/ADftpkEXyBrzb5mlbeQ+B6pPj7b/b8+9YH/l2ZfYId05vlHEJjmlZHhHJn9waLdjO7sW+i3YMf8NMER7E8wBf4irHR5+ND4Hqk+KMXv0AUTU8UzYrvh9CY+tyZwfZ+3qTRbvoZt660N/ADftpkEXyBrzb5mlbeQ+B6pPijpZ+zIkBQz+mJ3CE0pml1RCh3dm+waDezG/sm2j34AT9NcBTLA3yBrxgbfT4+BK5Hij/M/E1PEM2SGB1CY+pzZwbb+3mTRrvpZ9y60t7AD/hpk0XwBb7a5GtaeQ+B65HiD8/8QfxNQoQOoTFNqyNCubN7g0W7md3YN9HuwQ/4aYKjWB7gC3zF2Ojz8SFwPVL84W2fEH8Qf+jA+9xRD9n2IdyEhhyfrtcN/KBvb5NR8AW+2uRrWnkPgeuR4g+/8wfxNwnxhzLAGRgAA2AADIABMAAGwAAYaJeBwh95/+c7/xAve8Fv/IEBMAAGwAAYAANgAAyAATAABgbAQFT80Yterr/tdgR5AEHGNyjtfoMC/8K/YAAMgAEwAAbAABgAA31gICj+SPhhuScA7gPAsBGcggEwAAbAABgAA2AADICBcgzkxB8t9cSMXznnATL4CQyAATAABsAAGAADYAAMgIG+MLCGZvno5xzorZ6Y7QO4fQEXdoJVMAAGwAAYmCUGHn/kOvO15euij+N8bfmt9vz73ntjNM0s+at2XW9dNL/z7dPmO6fp/2lz6K4S7e2uL5tv2vSnzXe+fdT8xq0lrsHjReB1wgysqd04Jmww7EVHAgbAABgAA71l4O5D5sRzh8zWKvdOuub0itlD1zy4Yk4sL4wYLN1vnjz9nDl8N21fLJG+JE8PrpjTp18c4z+xnets81HH+By2wdiSsPvPf3ONefrrbw2ep/ZAaf72r64xf3H2LdE0vW030+Bi+bR59ZWXzffHEn/fNy+/8qr5znLJtjWN+qHMmW0nMyT+3mU+eedGc3OXYLc39BfNkw9OunPooC9ajcvN5o47P9poI9/zjRfN6W/cn+Zp96sO6Bqr85jxtAMwGiBOgD/Lep2yxqxjKR8vmMPPiQHy1NrlBOJQyh9j2FE7vmOUyXVZ90lzx8Ya13M+tFWipK12bfO1Ys6Js7ygcm2F0lmhZ/3rxNLWuw+VEHQs/sgvrgy+z7iyhYCz/VbMjiRdib4ttVX6M/pZtblYukRsFovdtvoGZ6ONjejrxxFPN3/yk+aTP1eP0XPff0uh8GO7dv369ea//v1Pp/cmPj6dbeLDmv5rwvaxYkDi78+eNr8e47Pw+HbzzT8rEH8T6mua8B3yqNd2u+i/Tou/3E0q+cax+EYQCdIv3m9+74Xnze89fGc1AZgMBP2bc51BrLBvWoPMWr7QdS/q3MUNPjQ4DPpWDEqSG0ZtDrYdMidOPWO+uticALQ2iRua3S8xQGqlExg3nn0Sf+PWMb05hwa3PPMgOKX0E2uX/qDcZ8PZxAN2/5zoQ9L6xY9pVmVeRedkupGfQ+27hG0j8y2Rxz3Lz5nTx4+Y+5oQgBMbkDFzTsh5cRa+pPho8Wd9NpJRYkv31Y6RNE/yLdVXiD/PjsT3W8m/oq/j9uHfE0W/rWcG034x1Aaz66hsy6O8Pil3690FM521+4Zw22msbcx/1Ox56nnzwu8tmS01BCCJP5rZG9Vm7t16Q2XxZ2Ocxkn5I2UkOZ6w58ef+1J17bzj3OOnRJseVcfq58eMAcTfSN6qx0Izgv1p+LD74k/edGynwTeQWGcTB+nmhaXqAlDciDlAtqOM3Fg5zTS2hR246nCb8oWtZ0xEyJtGwI++j+ID4fBNuBoHty8eMc82KADDNsXZ8+taLl3r8VRM6FmPcWyOXjMy/qN9Mhaz82tNrL3u+QYPjnkgXjDA1L6qvB/iO3SM/TCe+AsxU8Rq0bloLEN1rxpf22dU78PDNn3U3Hf0mWYE4Nh2FcWSYxraZtfZ2NH9TviS4hMUf8S1FUTJ4FoKpuhnx3uaJ8Ux7aMzO7SPc4wI+2RaL9+EkTyPVI4f97Te8078jfPl7rh9g7Tf/9xwn/Bzd5pHfq+eAOyW+PNj6PsuxHkHjo0TgwmKv/I+jLfV8nl0IB6h+wiOTUxs91D8EbTJDS8nDEcDXfkmEbzRNXxjaAj4/I222B/N+MKVkRsgqKVGckAT7qDiHVo+b65XNQ6aFIBxm9i2+tvW46m5G3vgW6KuwXZU4jplY2VmS9VpEu05xHfoGPvE2RSaiQm3H3ddiJkiVovOFZWTO1c1vqXiwr4os21IAI5tV1Espf06rtl1qQgSvqT4xMRfLgZeW6F8+csNWb4SWFTf3Mxf0q+mIlIN9IV90obUVmFHiEd5L9DnQ3nIMoo+V+4bhJ35fFvoE8YRH8JGet6PXviSt9WPL8/8fewj5V/6ouPglZEykpQzdhvx7fTKEPVs9XjVGED8jeSt1XhNiosZLKen4k89m2FvRuWfneObxJN7SzwDWHCj46UMPICyW+/hen0TVTYG83aDgXRJRW4pRijP/DG6oZdplE34wpaj6pK7majzeduyQZA+x/7Vx+1+xRsRC8DD228u5R83G5YtTXIDpWR5kvjyIWQj8+BiKQdi2cDCS5PGekLxFL7z7LCDPjngU0wGB5Uj0uTir+so/VM8SCjPbObnIDtph6/S5WzNloKm7VLEPhvM+j5IZzCsnwVDp7kfiDPPX3Bp8WfbVTool8+dan++mAzq86xKX/jcZn7wy5EsuNj4558zhx+kF5L4MdRMcV308dPeTJDvQ25v0ub4ZxaAh8z2dcUMcR6+LStmj2gTlMb3D993RCyJg2h8IzYk6Z0/MgasTyk/wR+V74k/WVbaX4TKcbFkn3N90zpJhnLiL5SfOGbtEz6QeYU+J3b6zASuf+6QOcz1TdumKLfEsfJ9Q5Kv9CfZTrYG6pf6UZ07sXy//7zwKBtZfHzjwUrPAC7d757jKyvo6KUvL/z+teXucbw6IsYT+Uie0/uFdc76FGbQb3PcF3KcVftXfUq6OkXFIY1PoS1JGVViMEHx10pfU8YfSFO6nTDDQ9j2V/zZxp8MNpKOoEoHcPMnHzRPvvC8GSkAZTlpI/E7NO7M/PKTTiw3SExu5pRXLu9sIMBw2bzTjjeQ54Mr6Qtj7M01Tcud6ehtPV9k+WedV74e+bpm17m6Bq5J/J3lq68J+TCQJo2bO/fe7YfsEtBRAtANVuSAdsEc/oZ7S5+2adS+u2lxXo4fEhIZM67+qWAYdUNWdWJeaFs6nnbgIwb2ej9lVDBLx2w6YXvS/qTt4TRc//ygeuvySqUXz5SqY659xdjw23OO1Vw+Sfy4bSf190SM9VFWX/3SjVHMh8SfZcwTSokdos2H+gDNpmTFP5dxKWOpy3XtQnCTzPKflgM1eimJfCOl9keINb1agMWXqJ+0Pfz5ZrP9MC0BHS0Abb1k3oE4ev7JcXC/eZIZCNgeti9hMK1/1u9Zv44Sf0m7D8XZL8/FMutfMvapTml8yQ7rA2dH+uWGFnE5P0m2Xd5eviPtDNtn/a3LtvvPlR6gleobuH+VzNKKoqR/5/aX+kn0hdKnbK+XLqm7H4/M/3M/t9Hs/cbz5oWSApCe86MXuNCMXjRPVSaJRJoppKWiZa4p5CllxNXBtX8p3mVfIOppbXJxZv/kyhHjF9fvCjbpettOxL0m2Zdi1NlTZIO2aa0pHYNpib8m+xrFRhkekCbAzMD82F/xZ2+2+RtQFWjfu+2QedYbTAUCnmuEycBVXGdvAPLmyDcWdYxs8zo/lbc9lw4mEltEGu/aAIijzhf5ZlxfeHkmtj75DfWCALJV1MO7Jq1HNgjS561/tV+866pz8NG9T/nfZqb5MQNxe8g+bZO3b+uqb0byJug+88wx11fHT+9zujLbUvG0N1Jhp94P1JPLlvWVn/k8bb3jXvylL9jf1bcj6xiMQ6gcZY9nq6sHD17S+klf2fRigGJZUnkGxcGIAbf8ckDZlNqhjoeY8eKgOPfPhbn0hWukXSg7UvvS8tR10n9JGmu7bucj8w3F8+fN3qfUIDK1I0kfy1fZ5flHnfPrqOqny4vuZ9el9Re2UfmWPXssa6tZnJOYacH0jUN2RkoKFbY3zZNsojoJ8ffksvhJicTm1C6ug7CP86Stl6+8NnAfZHGl7fPyUHWWZY36PLJvCLZHyZJuv6o/Y18kj6Dk+of0vMxTfF73K+bwcd1niPPiehJyf/QH15p//JtrTNnf77v48lvMv3v+WnPnpnKC0cZYMyT3gzF09lLMvC++hO0cZ/aPTavbeJI+ds47btugvt9nbWgUF975MjGYlvhrpa8J8+X5xIsd0g/ZN/0Vf5EbUNlg8beDf3DgV4rf/mnLkd9yZcupuCyvcxIdGXd4nM5u5Q1N1cHmIzvc9LPr7Oh8MM+kzGxAUK3RVvOF7nj9slwdAmlUXT2fWPvjHXjIv+n1I/P17aPr3Mzfc+Z3v1jw9k8Zp0CHqG3y9m3HrZhJYunilx9YkF06fno/rXPAHnmudDz1DUbvJwMbPUCzZVFaOyBwdSlOExD/qY+yAa2sw6jPpepYmg0VD+86dy48I5LY7qVn3lSewcFmnHkeNKV+Tf3N+fPW93+IGY9NxY5/Ttvsl2HZjbWLkA/sMb8dePURX6BRvK0taZ8nrwv0J6oeGS/JzN+JY+aLRW//jPnTcpkxGfIPsZDvh0OxdMcydkL1yK6zsaOBsfAllR/yeyjO6fWJb9Jrla+846kf2A6fJ+bQq28grlkdZdySz6lw0P7w0xIbnm22nCwWWYyZy/C2fN9QlLduC9ovXLZOx8cLtjzz9/R+c0+Ft3/S7B8t/xzlBxKLlLas8KP8Qjyl5aSMxOpU5AN1LmVHt4WYf+UXFDwTqOPG7MbsCxwvG4NpiT9+r0XpviZQR9Xu03ji+Mg2NAu+6q/4G9khxRtDqZsDNxBxI44BQTcsPYvj3cQ4L9rKG5rKO3pNcv2o84UduLRBfG7aF26Zhu6cud66w5cxinfgIf+msajIQSnhp+Mk/MXlapu8/ZE2qRtikr+On97nsou2leJJdsoBuN5vU/zJOtsBf4CZgN+p7uXrGGfK96GKh9cuCwYlbJ+XnplWec6Y+LPtwVtSp2KRY00N/Nm3lbYlhR/lGWujyi6vXae2uLr4IlDVL03LPKhteh/IrqOyMqHn+kr/WNZGQn2DPSZmVfQ+M+9iI4SXFWeZHd51qZ3S/lCbCB0rEhWh9OpYsGxpR/5z6b5hZN7Olkz0KtvS+Op0eZvY73ZbVnSk+Wf5deZtnznbinwQOWfbGTHIY4KYf1VbVe3T+TZj1/N1zs7El1ViMDXxx3F3davV18T8gOMzLQJ7Kv4qNnYBubs5vGiefXzEjB9fY28S3EFxg/S3oQFC6OZMHZN3XOXtnePyxbbued0xtuGLyYq/ahw44fe8efLBghm/1N/FeeuYe/sqrtrvwW/TNRuB/Xw+PoeV46lvpHqfZ2PEgJJtkPWVn/k8bb3jhT4p9rXMs2odrQ3pzIPvryxfNUBRtnr1SPkQean0Ll+VZ13xFywj/6VKqI+wx6TIT+ug/a5tTuooy7afA8vVLDvcT+p8KR91LMBayPYsRsLfqf3yWCL8vr1i9hTN+PG1nr1ZPtpXRbH37VX143Ji21z9w9dT+ZkgDIm/BXN4+X47iLH2yLZKZQTYT/Mk29I0snz6TLGM8GDr5NKn4ihXn8ynMobOv1nebpmp5IY/M9tZnWU+oc/V+gZZ35Ctuu5uX3/Jy1ynfojFm44nouP0MwcrzfhxXbsr/op8qf0ofe2fi7U173iQs6LyZXljxGDq4s/ZX6uvKWIS52ZWAPZP/NnGr5bdxAYkCuxqN4ek05ADH5Ufd8pe55SmcR2Sd7PQduq8k/P+jST/UgEvT/nAdLBjVJ1fYl9bvpiY+AtxkPo+X+dqwk90uOk3k3QseyGAjrm/nwwU1MBrzzd4IOPf9Jgjv4OPLXHJ142uHyuemhfNI/kzxKS9Tg/SVJsMpuFrMj+6upe7eY9Vx3T5DPs+81/0d/60HxLW0iWLiV/SF5ro9JZDHWO9T3YU1dull2VaxjwR59Lo/sCbzbW2BPoiFuceo0l+8llD9p9Il7cjyT9tK/m6umuEaAz5LMQa+UgKGlufLIaOn4rCT8THE0dJ+dJ/XruWfW3uy5l8nbldh7ZevmRPwlg2E6LqaG3LGOa+gt6OyXWwx6SvvGucfbmllVSuja1ike0Rcc/XI+OFZiYkq/m0XEfRBzyXXJPYeZh+TF6W59mv/KE4GKdvsP5KmaX8Zb8UiGegH2Cu/Xt2wNaawo/82RXxl93HXD2dDxSbaT/l+9G/1j9X6l5jY5CV5ThT7Co2UhbHicG0xF+DfU1a/5hfcHwmBWD3xV/uGRDd8LMBauHN50O7zJMvVJjx4wZhb0B8wwp06jyIkjddvjYZ3GXPQ6h8QnnbY2JJjndzovJ5oMVppD/Ezbjopx5q+YLLFVtZ92DnnMUo80VyfXptvAPnG6x/rax3OC5pp3fXQfPsqbIzfn5eboCQ1ZVv8nrwpvd5dk/azNfyuWzflckDuq0pPy3HMxCrzNfCvzkmxTm2dVQaj3VRr6R9F7ZdKmNcZhP7dBxtXFL2QoMQ1VaTgV8WT+EDr27Mj8qT7BB5uPrGmWdGtF+y+DgmNUN8nbVTDqRZxMn+NK2/ttm9vj6tq5ePS+vbsWL2aB8oHp58MF/XLA/ty6y9RcUQcze/1mz58jPmdNkZP3Gd5yvyC9VTtQlrI/tJxC/v31B82a9669hIY5v4yu7bMhR7ZLNNk/kp4zl0jPxHechyyP90TMWByrPx9Y8HY+P5LlnFInkq25ZtPtI28o9fvu27VZ3T/lzZUadvyPyo21Og/VK5ioEnH4yk82x8n/niyvNm3Bk/rje99OW1V64x+74Uf+5v169fb/7i7FsM/dQDX1dmm7/3CGZTRtyxjI2knar+wfmUufT9o6/N9V+q35BfxNh6WP9z3mxjgB3P/5RuzBiQ+HvlZfP906fNd04/bQ7dxWUWbO/6svmmTf998/Irr5rvLEfSqrq009dEys75B+nKtJMhpem0+GvW0e8yW7beWfxyl0k3iLI3t8bt6qAvGq+j7Mw+arZuLbPUU17Tp8+zEM9ZqOO0mfMHas32vy3WbeOC2VpmqWerfUyF+sl+PxETqRAkG+0xJQBDA0U7u+IGvk6oq2s4Lxqcc5kqH1uWEn92EJoM6FkcOfscH/ylQG7gnvhXD/D99GF7bTkssjlObDPvR7fT7BvKtZmbFxbMlgovdwm1PXrTJwnAop9voHNV3vIZKqfZY84/Ht/ROFZoQ2PkMVYMbl00v/NtEn7jiL/T5jvfPmp+49Z269VsvGDrrPhzhsRfB6HWN+IxOrRZARX17CC/4LXSt+vdZ7jcQLb79eh4W6F+n4SO7f8Dgo2XlH7jfu8NqJnYWjC0fO7w3eXqyQKOyqTPNh8rrJKZGyu6hCjTIoxXm6gZHnDAM7LhGMI/xGeZWblyHMOf8BMYaI4BiL+pDWAx0EJDbq4hw5fwZX0G0CfV9yE4HKwPH1xxwjkdMySCOSeWwQAzYL94wJcGA/uSEHwz333eQvylHfmkgC76hnVSNqCcPjda2A5+22EA4q8dv4LXQfhVzpbys44QfkFhky391c/noS0Moi1MfNwMbprmBuIPEAc776ZBQ37ovMAAGAADYAAMgAEwAAbAwHQZgPiD+IP4AwNgAAyAATAABsAAGAADYGAGGID4m4Eg4xuW6X7DAv/D/2AADIABMAAGwAAYAANdYKBR8fcvfup/MD81wf+bPvYJc9vacmVWSUt1uPG2T5iP3VQu7zbrfO/m/9789DU/NVG/VqnPxz/+EXP99dd21r58XT5p3v/FR8w7J8hp3obpcwWbEAMwAAbAABgAA2AADMweA42KPxIp1/D/W/5Hc03L/++/4zPm4/NlyrnF3PkrHzZzFeyZ+/hnzNaPv631Oozy0Zc+9y/Mdde9Zep2xOy8819+yrzt7Td21r683b9pPvnVr5lbC1n4ZfP4N79lTp78lvnaA2X4Qpq8n+ET+AQMgAEwAAbAABgAA11joFHx99brftq89bpr7P91111j2v7fcPfnzKffU6KcDXeZ+z79s0F7bvr058z9n/9Fc5O0d8Nd5v777zIb5LEpfX70S/+TWfsz1wVtb9u/ZfL/1Xu2mne+8x2dtS9fh4PmM988YT5UFM/Fr5l/+/J/MC//26+ZHUXpcK5HcS/RTyCeiCcYAANgAAyAATAwcAYaFX833Hit4f8bb7zWtPF/y127zCOP7A387zJ3vTdc5i/8evyctfH2z6r8Pmt+oSX7q/rktx9+i3nHO25sxZdVbQml//znt5v33PzOztqXt/mY2fadPzEfKYrv754xFy/+R/PHvxvmKZ8n0sEnYAAMgAEwAAbAABgAA91noFHxRzNUP/M2/Dfpg2889lYz/7Nv66xfv/CFHeaWW2/qrH25WNzzXfOb3/2ueW8Bp//6z/9v8/f/5x+ZhwvS5PJF2v4wgFghVmAADIABMAAGwMCMMtCo+Hvb2683b3v7Dfb/7W+/weC/vg9+/yvXmXe+6+2d9eWeB75g3ve+mztrn8fgb/1H8+W/+C/mN36rKC7/xvz1P/6D+etni9LgnOdXtPV+8I84IU5gAAyAATAABmaegUbF39vfcYN5+ztutP/vOhEsGAAAIABJREFUmLvR4L++D545er1517vnOuvL/3nv/eb9636us/aBwfoMwofwIRgAA2AADIABMAAGhsFAo+IPUDQPxbd+53rz7pu6K/72Le0x6z5wC8QfvuwAA2AADIABMAAGwAAYAAMdZ6BR8deFHy4cmg0nvn6Duek986ar9Xro4QfNB267tbP2ddVvsAs/9AoGwAAYAANgAAyAATAwaQbW3DoPp0/a6VXKg/gDn1V4QVrwAgbAABgAA2AADIABMBBjYM3e39hsPgIB2NmZK4g/NN5Y48VxsAEGwAAYAANgAAyAATBQhYE1+x9dMks7f8lgBrCb4ED8dTMuVRoZ0iKGYAAMgAEwAAbAABgAA11gYM39jyyZ/Y/uNV/YelNnZ7+64Khp2QDxh45iWuyhXLAHBsAAGAADYAAMgIFhMbDm1oXPm0ceXTL7H/o1cweWf3ZOAEP8DavBoQNFPMEAGAADYAAMgAEwAAamxcCaufnbzGf30OzfkvnCVgRiWoGIlQvxByZjbOA42AADYAAMgAEwAAbAABiowoD9qYdb795hxd8ju+/o3MxXlcoMMS3EHxr0ELlGncA1GAADYAAMgAEwAAYmz4D7nb8P32seoKWfez9rbsfSz04JYIi/yTcKdETwORgAA2AADIABMAAGwMAQGUh+5P2Xzf19e+5vyx6zsnLALG4Ig7l+8YBZWTka+N9jNkcF7jqzuHzUrCxvN+ujacLltQUHxF8L/t5xzjx64Z/MkTPPd0rot8UQ8m2BoY70D4gtYgsGwAAYAANgAAxUYaB34i8VdcvbzeK+YvG3tEXDQOKuQPyRoFw+YA5B/JUWRQ89/KD5wG23lk5fBc620n76zD+Z33xCs4H9tvyNfMEWGAADYAAMgAEwAAa6wUCvl31uLhB/QcA2bDeH9m2KCBU367e0ZZNZgviL+CgPbT/F3/9nPrcjX5cgM5jhKc0C/AemwAAYAANgAAyAATDQbQas+Lv13l29fOFLVfFHs4b52UAXIDujaIUhxF+VRgvx1+0GXiWWSItYggEwAAbAABgAA2Bg2AysmZv/kPm1B/v5Uw/VxF/Rks9NZil9fhDir0qjh/gbdgdRhQWkBQtgAAyAATAABsAAGOg2A2s+cu+u3v7IeyXxR0s+I8s5N+87ag4trkuWt0H8VWm0/RN/y+Zzf4Fln1VijLTd7sQRH8QHDIABMAAGwAAYKMvAmgceoVm/vWbXwk29e7anivijZZ2ZwBOAkChckS+BgfgrCw+l65X4S97y+eg3l3vHepWYIK1o33hmE6yDATAABsAAGAADYCBlYM3+R5fM0s5fMrf20ClVxF80rf3JiKo/CTG5wSV+6qFpX2PmD+KwaaaQH5gCA2AADIABMAAG+sHAmr339VP4EWBRQZcTslVm86qkbT/IEH/N+/jTZ7DsEx1081zBp/ApGAADYAAMgAEw0HUGkt/562egSou/LXvCSz5zIpH8APFXBdpeLftM4g3x18/2XoVLpEWMwQAYAANgAAyAATCQZ6B34i/9kfcVvVQz/oPv5USi+52/lTRf+Rxg3nGTggkzf837HuKveZ9Oqj2gHMQODIABMAAGwAAYAAPjM9A78TdrwYb4Gx/uGCufPvNP5jefaD7fWHk4Dl+DATAABsAAGAADYAAMdIEBiL/g0s/uwAnx10Iskrd+HjnzfPrmoy40RtjQQqw73r4Rc8QcDIABMAAGwAAYmCQDEH8dHxxC/KFDmGSHgLLAGxgAA2AADIABMAAGhssAxB/EX63Zrz6+8AUd2nA7NMQWsQUDYAAMgAEwAAbAQJwBiD+IP4i/jjOADizegcE38A0YAANgAAyAATAABsozAPHX8YE/ln2WhxkNH74CA2AADIABMAAGwAAYAANxBiD+IP4w89dxBtCBxTsw+Aa+AQNgAAyAATAABsBAeQYg/jo+8MfMX3mY0fDhKzAABsAAGAADYAAMgAEwEGcA4g/ib9Azf5/4xY+Zm94zX6uO6EDiHQh8A9+AATAABsAAGAADYKA/DED8QfzVEkZdf9snxF9/OiPcOBArMAAGwAAYAANgAAy0ywDEH8QfxF/HGUAn2G4nCP/Cv2AADIABMAAGwMCsMADx1/GBP575q9cZYeavnv9mpSNEPcEJGAADYAAMgAEwMAsMQPxB/GHmr+MMjOqI1q9eMTtXj9eK46gycB43RDAABsAAGAADYAAM9J+B/oq/LXvMysoBs7ghHIT1iwfMysrRwP8es1kN9jfvC6Rb3m7Wq3TTAB4zf+H4lo1F/2b+DpqN56+YnZeumG0nD5q5eb2v/eHOu7T6XHj/lpOXbf47z79kbhGMWxF5KROSer+sz6um23TvG+Z7j79mdglb8nmcMiuPG/M9+/+GOfihcN3mPvRD81yazpjn7v0KRHGhXyN+xDXgBgyAATAABsDAIBnonfhLRd3ydrO4r1j8LW3RA5t1ZnE5JP7i+eQHoTrPdvch/ur5t7/i77LZuJvqzuKP9+v5I+V590tmm5otZLG3cMyVoffTaxu6GezanYi53T80Bx8qEn9fMQcfkoKPhGA+fV5E0nXGrHyqIZ81VO+m/Yj8EF8wAAbAABgAA2CgLAO9E3+yYpsLxJ9Ml37esN0c2rcpp+Ir5zPBQSDEX73G3D/xd9ws0OxbOiun9+v5I20Lxy4kM4ucH4vMC8mMt97ndG1sSaTlxVxq66deywu4D/3QrJSZ1aOZwId+aDZNsM2mdqPMXF8L37TRfpAnuAIDYAAMgIHyDMyU+KNZw/xs4FoD8VceGN248FMP4/tO+9LtO7GXLePU+668dOkmCcVLLNjCtvAMHi0l5bR0Pc/wuXITsZfOBur9JO8nXjavX33TXL36pvnxqXB54XoVpS0Wf7t2y1k/zueUWSkj6iD+IMAgwsEAGAADYAAMgIGUgRkSf+ElnzRQzT/z151loJj548H+eNvezfzRckwp5vS+7rzofDpLqH0UEI7HLlgBuLCqBSOllUtL9X6Sd6/EH5Z9VhfimiHsw4dgAAyAATAABobEwOyIP1ryWfolLpvMUsHLZCYJAMRfvQ6nd+JPi7tR+7nlm5m/1q9KMZcdt7OGUcGYpZsc5w3P/ImXvuCFL9OIJ8qcXNuBr+FrMAAGwAAYqMbAzIg/WvJ5aHFdOuU5EpQte6qlHzVIH/M8xF81oHVchy7+8ss3E3/tfsks2LeFBvxHs3/p8s7A+TFZ1b4vv9+w+EvtdzN/EIBdiDFsKN8e4Cv4CgyAATAABtpjYGbEX+Xn+iD+SgllPPPXXuMs0/EVze5lzw36NpJgjJ0rU2bzadoSf1Tv4rybr4vva+QPf4ABMAAGwAAYAANdYmBGxN8ms1R6yacDNPZymEkHDzN/9TqMYc/80UtZ9LN7ib9iy0HtM39X1Mte6vm4fpsYIdBCb/v81Gslf8OP8g69MOYxc+71pl9cM20/ovz6LMKH8CEYAANgAAwMm4HZEH8Fs3j2dwO1MLQ/IJ//PcBpNAaIv3oNcNDib+TLXvxn/uxbP89fMAvn/eOVuJ7CC1/ys3chsUjH8j/qbn9LcPep/Cw21+P1l83hdJloPdYq+RFl5mMCn8AnYAAMgAEwAAZaZ6B34s+KtZWjZiX3H39D58gln1bsiTy1GJwiiBB/9QbkQxN/9mUt9icb6Gcb1L9+iYt9U6hIY5/zc28ApWvHWvrJoqmBn3pIf+T98eTH3tNt4Df/xEtcvvd4/Ifbc3mGhB+151M/avjnKupxCuEI/4EBMAAGwAAYAAOTYKB34m8STulSGRB/9TqCoYm/LrHZZ1te+Mmb5ipm/Vr/drHPjMD2en0v/Af/gQEwAAa6yQDE3xRn9co0Coi/eg0H4q+e/8ow2r80z5kfNzBz2b96gwXEDAyAATAABsDArDMA8QfxV+vbf7ztE53orHeiqD/aABgAA2AADIABMNAXBiD+IP4g/jrOQF86E9iJGx8YAANgAAyAATAABrrNAMRfxwf+WPZZrwFh2Wc9/6EDh//AABgAA2AADIABMDAcBiD+IP4w89dxBtDhDqfDRSwRSzAABsAAGAADYGCaDED8dXzgj5m/eh0EZv7q+W+anRPKRuzAABgAA2AADIABMNAsAxB/EH+Y+es4A+j0mu304E/4EwyAATAABsAAGJhVBiD+Oj7wx8xfvc4JM3/1/DerHSPqDW7AABgAA2AADICBITIA8Qfxh5m/jjMwxI4HdcINFQyAATAABsAAGAADk2cA4q/jA3/M/NVrFJj5q+c/dMrwHxgAA2AADIABMAAGhsMAxB/EH2b+Os4AOtzhdLiIJWIJBsAAGAADYAAMTJMBiL+OD/wx81evg8DMXz3/TbNzQtmIHRgAA2AADIABMAAGmmWgv+Jvyx6zsnLALG4IO2T94gGzsnI08L/HbI4KvnVmcVlcs29TrVmxJmCF+AvHt6xv+yf+DpqN56+YnZeumG0nD5q5eb0v/HHsgtm5enzqjEZjQfZdorpcMOupzen9aDsUdRwnzadeM997/A1z8EM18xmnbFzTXR4RG8QGDIABMAAGwIDpnfhLRd3ydrO4r1j8LW3Rgz8SdxHxZ8XkUZO/Rucx2X2Iv3r+7q/4u2w27qa6s/jj/cwft5y83A/xxwKVxR/vN9wBb7r3DfO9x4353kM/NAd3Q/xFRXnDfkc5WZuEL+ALMAAGwAAY6DoDvRN/0qGbC8SfTJd+3rDdHArO5m0yS8vb3exExwZGEH/1OpH+ib/jZoFmy86/ZG6xLOr9zB/rV6+YhWPZfsp5Rxi24vRSZqPeb9PeXRB/+Ha3I+2gTc6Rd3f7P8QGsQEDYKCrDMyU+KNZw9DM3vrFPdHlo9MOHMRfvc6jr+LPLfmkujvxl+3L5ZNueahbWuk+Z2IwEY122WUmwLKZxGRp6bm/E0szeZaR802Wa3qDaJ3mSnT20Ym9LA+979rWY+bc62+aq1ffNFd/8lxjggXir167mXa/h/IRPzAABsAAGAAD7TAwQ+IvtuSTj/vP+4VE4jQghPirB37vxN/ul8w2fkaORJfeT4UYibBMWAXZLLxWCsLjZuH8ZbNNzNLZ/Oj6dAaS4uCEXyYwXWysqAss5aSZSSla9b6zGeIvGLs0zvX4R97wHxgAA2AADIABMCAZmB3xR0s+g0s7nfhb2nfUHFpcl8w8OCHYBQEI8VevwfZO/JUe9JNg46WhMR+VFGtWJOafKaSOYv1qdpxEnhZ+rjMpIURL1ytWl2rHMfNXzV/ypoDP8B0YAANgAAyAgeEysGb/o0vG/T9gdtx5U2PLriYBTZVn/mjJZybuZEA3mSV6K2juWcB1ZnERb/scFceHHn7QfOC2WzvLzWDFX8k3feZm5eg6LRqPXfBm6GTMM8HnLyOVS029N3pOWORJW+VniD/Zx+GzZAOfwQMYAANgAAzMMgNrHnl4r7H/j5AI7JcArCL+4mljs3zdeAkMZv7qdVBDFX8kyuSSymgn5i39JAGXzeTxNZnAy/v6lpMX3FtHKZ/A0k7Oo2tbiL98LLsWI9iDGIEBMAAGwAAYmDwD2bLPe3fZGcClnb/U2VkcDUhc0GlHFgs5+/MRuZm/TWYpd0zn2/4+xF89Hw9V/JV/02e29DP8zJ07HxSSnuA7bhYGJf6yZw1/fKoeY7pfwj78CQbAABgAA2AADHSVgdkQf1v2RJZ8Mph69k/vc7rJbyH+6vl8mOKPBJuawSt4bs8u/fR+PkL6lJdzqpfH2N/k84/FBGfseLlOLxNhE33b5xMvm9fpDaOvv2wOd2Spajl/ydjhM3wGBsAAGAADYAAMVGOgd+Iv/ZF3ek7P+4//4Hu5GcLk2b8kz/DzgdWc2wSMEH/1fD5M8Rf6uQdfqHnseUs/lT95ds+m4Z94kL8zKNO7WUL9vF9w1rC0oGpO/KU/8k4/9O79B37w/dSP7M9LYNZPxhefvXZTmmH4DX4DA2AADICB/jDQO/E3a3BB/NVrTIMVf6UHptmyz2DbKXjZSzB96XLrxa3tsl/4CWb92vYx8u92G0B8EB8wAAbAwGwyAPHX8cEsxF+9hjnr4s8u+Sx4Vq/oZS/DvSk8Z3589U2DWb96bWu4fMAviC0YAANgAAwMlwGIP4i/Wi/4wU89dK9zoGfw9NLM3M876GWe+gfeO94ucFPqHneICWICBsAAGAADYKD7DED8dXyQi5m/eo1o1mf+0AnX4wf+g//AABgAA2AADICBITEA8Qfxh5m/jjMwpA4HdcENFAyAATAABsAAGAAD02Ngze2f+Iix/5/7Yu9+528WwMHMX73GgZm/ev6bhTaGOoIRMAAGwAAYAANgYFYYWLP/0SUr+ux236+ZO96H4Hcp+BB/9XiE+Kvnvy61BdiCWIIBMAAGwAAYAANgoB4Da+6/f5ex/1+4F8Kvg8v/IP7qAQ7xV89/6GDhPzAABsAAGAADYAAMDIeB7Jm/DgofgLbWQPzVa2wQf/X8hzYI/4EBMAAGwAAYAANgYDgMQPx1XPRC/NVrbBB/9fyHzn42/Xfx4rngi6Bix+ty0la+de3C9bPJP+KOuIMBMDBkBiD+IP6Cg7yy0ON3/tBBlmUF6frDSkyMxY6HYivT0mf9L6+RaeVxfO4PM4gVYgUGwAAY6AcDEH8QfxB/HWcAnWk/OtMhxSkmxmLHY3Xn9LzldKP2OR22YB8MgAEwAAbAQLMMQPx1fOCPZZ/1gMeyz3r+Q4c7m/7T4ow5iB3n83rL6XnL53lfb/k8trPJHeKOuIMBMAAG2megv+Jvyx6zsnLALG4IO2n94gGzsnI08L/HbBaCr2y6acEI8ReOb9l49E/8HTQbz18xOy9dMdtOHjRz83q/gj92v2S2XaK8Lpj1gvmyvutcurQ+VKfLZuPuCr7oVP11TPV+8/VaPpssuzy738zN7zdn7DLMVfPsjnxZJMj0P7PAYo33Q9tQGj42ahvKD8fyMXI+4TjK2MbSVjl+j3n23Dlz8dxT5r6G2o3j74RZbii/QiZ2PGV+EGD4zGHlg8MnEs6dXdxGfvDMPbVWwxTaNon6owzEDwyAgREM9E78pWJtebtZ3Fcs/pa2qM5+fp1ZXM6LvzLpptWhQ/zpGFbb76/4Y3HDwoD3q9V/bv64WTj/krllREcwLb7HK5d8EhC0xy5Y0UzC2RO83vErZuFYVR82nV7HVO83Xd5ac98zq3ag6wa2LBrCg3EWaBwbuU+f5T6n0VudhvdHbXU+pfbTQXwmWosG8OwLsoX+f/DMfvPsOfYF+ybLi9PZrRREIZFhxbWMn8hPXKttyAmTke3V5Suvs+IlV760peRn8ue5VfMDYW+pOMRstn6i/NjHJe0Q+Ul/cWxDx6ydVF4ZP3D8knqy+JM+rVVvYT/yqR5z+Aw+AwPtMdA78Sdh2Fwg/mS69POG7ebQvk2jvxEom24CnTvEXz34+yf+jpsFEi+pYNP7Ff1Bs2Wrx0czPwGW03ZYu6wiQUtC6rLZdj4v8tavjiugK/p8ZP10TPV+0+WtNXOJQHID2/jMDgkcHSd5jD/zVqflfX2e90dt+frxtiSIVs2zh5+KChcrGJQwCM1KLZ8NzYruN2eCgsj588xhKj8kcBJ/XzxnfGFBx0PllIj/4ROGRVDmqxr5pcyKugTrWsK2NC+XlvzrC+zqeVAdKXa+/xzXOT+UFX88A57w4MTkmPFQdc5iMl5dcT38BgbAQJsMzJT4o1nD/CxfHrCy6doMDOcN8ZePD/umzLav4s8t+aS6O2GQ7Qt/eMsg3WzXghY4xy645aNy9ismBmWaS3nxNJecXziWiBU7wyaFKtuWnF89btavkl38HxZft5y8LNKoWbvQoKpQ0B43C6vHjc3Tq2dotpBn3BL7UsG91sylvr1gFrgO518y61NbQ3VRfkmX7rJfeKtjqveTdKd+ZK5efdNcvfqfzLkn+Noxt1b8ZQPb2CwRizPZtuSx2GeZXn7m9GW38trKn6mOyUA+LN7WmvDxvGiLpgsJIhIbyfGgQJlPRFlOlDYh1iQP9fPLxHFM6MrySny2s4i0fJRsCwnjEnkkfUDQtyERXFH8peLRtpF6NlZmNtS/4VjuCyj4tXw7ga/gqzIMzJD4yy/5DDuobLrJAAbxV8/PvRN/VnSIJY16PxkYOMEk0s2vTYSWf4zSbTt/WcwkOsGjlz7a/KT4sc8a+nlRe3Hl+sKHBF5OnCbiyTtO4tErI8nPE2ksvPJlc3u1dbLPQwbYYLFry5d2OlHIebCo9vzA16aDLynKEqGY2Jq3gdLK8pxtcd+I+kViPNek+LNL3LKBrZuN8Z9t0gKNfMXH2G+j9jkdbzl92S1fV31L4kLMrIVEQTJ7VOZZNin+gqIjZYQEJc1sJb4MCo9MlHlpWRQGnrusXv9kdlfNalbLJ5k5tfY0If5kTCYs/vQzf0G/SPsS/4XEvYh1NX8G+ifkBWEHBsBABxiYHfFHSzmXt49+8UXZdBMKHsRfvRto78RfGa5IRGnBZK/TyyF9wcIDFxIunugJlqnzYjEjRAtflxNNaw3NEubLUHmS6AnWw4nC/PVsQ15khermCa+QjWx/ss35xbOPfJmVq8VffEmpqrMqk+3u2laLNbaPj8f2+ThtZVr+PGorr6/0WYlb+1Kb2EDezvBkz/Slwk3Exs6MCgGRW26YppWCifgMiRw6lsy6enaK42l+Y/Z3lG+sviXz9oVpffGXzSLG/FKtrjY/ERNiif5D8dPs+LZUK1fnhX34DwyAgb4zMDPij5ZyHlpcN/Ibh7LpJhV4iL96ncwQxd/61YAACw7wwsIjJFT85ZnJMsicMDtoNq7mXx6TE012hvBC/m2cnpjimUpeEprfhsUfibB4/b26iZnGnI12tk2XmYk72749wej70isnmJfIW812TqrvqFsOCzWZT+iYPE+feVAu0/LnUVuZV2ywb/NXQic0uCcxExdtWb9ihZ7Kr/TMX7qsMcuPbPEFiS/yMpHlH5d1r/TZE5SZHfXyqCv+yoji7EVENqZa2KmYkF9z8YzM8ObrTr7OZr7z58f0W7DfRV7wLxgAA91mYGbEX9mXw5RNNymwIf7qNaDhiT9fhBRyqMSWS6vFk1zamPk6J5bsIEcvnXTpPSGUDIaCAtUTU9qOrOzCOhW+vVTnmS3FlDZS3by3gXLdlEgjQZwKUM+XqhyvXmXr0f10LNRkPELH5Hn5OZQ2dIyuiR2X+cU/08A+m8mjvNL/4HI/7fu8CJPiT5arBaUVjrI8/uwJF50/P2Ooj2u7Suw39Zyamg1N/Rd8gU0Ju6wgFXFgv9ALecZc5grxV8LvEKMjv+CX7RmfwdSsMjAj4m+TWSqz5HO+bLrJNRiIv3q+nmnxFxQlSjwG09CsnJoFo0HF7pfMQu5ZOxJYeiYuPEPoiSn7jKK+rkSsPRGm06u6Jc8objt5XMwWKuHGg6VcvpRO+ED6idJKoRj0i7atX/sxMRY7HrqB6rS8z1t5TeiYPF/4OTD75tKTuBKzPdGlkSrdfOzFMO75vnT2qWDGzRePeZHnZiqfypaDModVttF6N8Fa3Zk/bUPex4UxDfihnvirW5/HzLnX6eVLb5ofn9J1w37VWCI9mAED02VgNsTflj2llnzOlU0XuDG1BTLEX70GMjzx55ZLpjNSCYtuNkvMVCUvgNHp7Fss5XJOKWpsXm4mUL+YxfKdS5u8nEUKIc4jd0yJKUoXe3YxdjwVcwfD3+6GriOhRm8bTeucF38h3+nfR/SEa66cQN2sH2LHSzLd5AtfrD3lyi0SYkXndB+o08p9+Zmu0/s6r6L9bBllvn6eYODZKD0bSCJKHfPFW5avnPlzAm5/mEVvOWJe/NlnEu1s2HgzYbZsb3bR2Rizm3/q42LpmbcRYol9mfv5isxXfswmJf5oVlUv96Wyyz0b6Nss6vLEy+Z1evPu6y+bwxXaUjQ/5BFuN/AL/AIGJsJA78QfPZO3snI08B//wfeySznLpptkhw7xJ27AY3QKQxR/c/ZNnOKZMk/ckL8SAZf8xAILQO+5vlQM6WfvLpuNJ/nH0nnmi0RMVl76Bk8SQfwzDkl+LKTs8VQASnv82T4vPeeVXkd18ctOy0vSsi1+Pmx3dj2ns22XBSGXt/pSVj+qh6yXndXMbKB80rKED7XP2U72/Vh9xhTE3ygRNuq8rKdMKz+H0sTOy7T5z25QT9e6fyGkhDihc/YZPDp2dn/6g/fpdZ6IcuIhPZfmzWU4YaGXe6azgfzbcXzd2T+0YiTNT5RlBVxpMeb3g7r8NP9YfumyTuGjYH+qfSpmTmV64d+s7r6NHC/f1lHlh/LwbeLnKZ3/krgIv7qX7mTxIt+MspFtjW6TtohZv1B8cCzKjWwz+DwRUYNYlGuPvRN/sxZYiL9yIMe4GKb4q+eTmK9wfLb9SoPkUQyUSaPzGHXNqPM6P+zPNqfTiP8LP8Gs3zT8jjLR1sFAOwxA/HX82xiIv3rgQ/zV8x86XvgPDICB2WbgOfNjPOs38ouh2WYEfQTi3y8GIP4g/mp16g89/KD5wG231sqjzU4D4q9fHVKbLCBvsAAGwAAYAANgAAzMOgMQfxB/tYQbxB860VnvRFF/tAEwAAbAABgAA2CgLwxA/EH8Qfx1nIG+dCawEzc+MDAeA97LS/hlMaGt92KT8cpCjOA3MAAGwMBsMwDx1/GBP575q9dAseyznv9wg4D/wAAYAANgAAyAATAwHAYg/iD+MPPXcQbQ4Q6nw0UsEUswAAbAABgAA2BgmgxA/HV84I+Zv3odBGb+6vlvmp0TykbswAAYAANgAAyAATDQLAMQfxB/mPnrOAPo9Jrt9OBP+BMMgAEwAAbAABiYVQYg/jo+8MfMX73OCTN/9fw3qx0j6g1uwAAYAANgAAyAgSEyAPEH8YeZv44zMMSOB3XCDRUMgAEwAAbAABgAA5NnAOKv4wN/zPzVaxSY+avnP3TK8B8/lmI8AAAgAElEQVQYAANgAAyAATAABobDAMQfxB9m/jrOwKgOd/3qFbNz9XitOI4qA+eH0+kjloglGAADYAAMgIHZZaC/4m/LHrOycsAsbggHb/3iAbOycjTwv8dszg3215nFZZF236bODKQx8xeOb9lOq38zfwfNxvNXzM5LV8y2kwfN3Lze1/5w511afa7avhWRlzIhqffL+rx0usMnzEX7Q9YnzPL8WrN89pzd/8Ez9wTbn/shbJc2Wkaap8vrzOGID3Y8ZX4gfkQ7Vma0nFwfst+cEfldPLs/WAfKz/tB70A677zM8+KIuudsCted/Wx9H/jRcL/8Zsq0fvRis2qe3aHsG3We6pfGzV2f2hrwY/nYKTtK+hH5w29gAAyAATDQRwZ6J/5SUbe83SzuKxZ/S1s0lCTy8uJv876jRqalMg4trosO3iYZaIg/HcNq+/0Vf5fNxt1UVxZ/vF+t/lVYZbG3cMyVofer5FUqLQ/kEwHCokQLNj5+8exT5tlzBWLEigd53gkynZ8TDDLdPebZc+eMTleqDlYo5MuxNocECdkojpMtWnjSsbwtZKO0eQwOEn/r8rx6ah/SNQGB6F0zUiw5/14syidXDvk0VF8W2e4ci7/COo20bwxfIs9O3B+rcYg4w19gAAyAAWKgd+JPgru5QPzJdOnnDdvNIT2rFzo2HxaJaT4TvPFD/NVrqP0Tf8fNAs2+nX/J3GI50/v1/BFnmEXmBbPelqv32yg3GcgnYsgN5AMzQml7KxZAy2cD1+ZERaQeZdOltoh8Dp/ICbi5ebJV23OPefbsU+Y+lcfy2ZDIEflTerJPiMZ4HNV1aVnFvuP8gj48fCIgRmPl5I+HxayfLlZuXtQpIZnMFubFsp8/1w9b+AUMgAEwAAZmnYGZEn80oydn+GzwIf5qfYP70MMPmg/cdmutPNpshH0Vf9kyTif+sn3Xad9y8rJdGkrLQ3deYsEmOvRjF5LzdI6FnFtOGkzPadJnB5Nr0v0k7ydeNq9ffdNcvfqm+fEpUV4qMqocc+IvHeDrWadcnuUEjMdTWVFXNl3Oplh9A+IvIuDKiKMyabx6aztLCbiIfyN2F5aXlr/fnCkhWiuLP86TbLuoRXYsJjheLmbwE/wEBsAAGBgyAzMk/uKzebkZxA3bzRKWfZYSdBB/DXeQu18y26SY0/vpoDopl86ns4TaluNm4fxls+3SFcNLOW1nFryGRKZcWqr3k7wbFX9uFiedtSHxV7Q00M6mlZglEz6i5Zdp/uK436krO6LptH8L9qkuLFA4v4iIGi3sIqKM8y2xZXGVLqG9eC4wW0nPXQaEFNldGJdiP1hxn8zQxZ4zDM1sxmZEqQ7pFwZW/FVjwo99ge0l/Iq84D8wAAbAABjoGwOzI/5ohm95e7KkTYO6ySx5L4fJPxc4rcBi2aeOVbX9/s38Vavf3LELyYthAtdZ4SgFXZZm/Wr4+LQ4L1duNRFEoioVCaGBvBUOxS+ZKWdX5lebPiaW6LgWhMkLYAoFaiy/UJ0ix0jUnTm76glST0TxdWr2lXwYFWx8TdGWlsSePWF+IJ/fi4j8tKzkJTeFsSsqE+dKfXE3FtvwLXwLBsAAGOg9AzMj/uIvcaEZQfXimOBSUDXAmxD8EH/1/D508UfLP71ZPcllgTAsvE7m0anP5cWfFRIBoRUe8LqZv0bEhhWUkZmoMcXfSBE7MkaufqFZ1eVn8s8gzuVm6fabM2PO/DlBF5hNPPyU/7ZPKlPFKzgLObKu9fqLMB/IE34BA2AADICB4TAwM+Ivt7STBxFBoRdfIjpp+CH+6jW2oYu/ohm8IoF3y8kLydtE6/l3su2hnPizSxuVkBhtZ7m8C/NRs2a5tGOKvyZEUHCWr+wy2ojdufpxnyq3BbN8crYzWMfgi3T6xCtsLcWI5AWfez+jgJij3YOB7jMwI+Jvk1mKLfmMPN+3eV83ln5C/NVrRMMWf/RSlsDLXuwAyr2wRb8oxnbKtBxUv8ilF4Ou0QItLHLKMER5B2aoyvolInL8m2DobZ+j6jT+rJtXdtC+kD15XwWFWVm/zNNLffJ+ve+ZE97MX/D5vh1PmTOR33z06ha15TFz7vWmXk6U90s5G3Ad/AQGwAAYAAPdYmA2xN+WPQW/2xeY5QvOBk4ncBB/9fw+aPEXfHEL+yv5iQj58hgaJNu3gMYEI19bsG30hS8F5QQH9EVCic6JF4Gk12vxFE5XNFtoz9FzaJGlj3ZpY+BcUDTp2Sy9n9qd+GbUeUpvl5qO+FH7eXqZi+8fvR+6ORencb60zwQWzbRq4an3qQ6Begb9p/1TtM+svv6yOVyUDucw2wQGwAAYAAMzxEDvxF/6I+/eC1qOmpUV9dyeCGJ0ySenIbHn5deNWT8ajEH8VRUIfvqhiT//Jx74pxuSrXzrJ8/u2Ze+iHQyDfNfZcsD6kZ+6sGPVUh80LFUfCUvArFiw36Wz9bxj387EZSlCYu2XJ4F4iVNGxB4xfblZ7xy6SN5si9KCaCS4s/99qDwT6DOaV1LvXSlpPhLXmqTxUTGLWOgWtnZdeyr3PbUjxr6SZISZVVpQ0iLQSYYAANgAAxMkYHeib/cDX6KzpuELRB/9QZeQxN/pZkreNlL6TwG3rbgh3ptq+v+e+Enb5qrmPXDAAv9GBgAA2AADHgMQPx1HAiIv3oD1FkVf0Uve+n6oB321WMe/iP/PWd+PMHZafgczIIBMAAGwEBfGID4g/jzvg2oCi5+5L1jnZ1e5ql/4L3jvFflD+k7xh/4qtWfgmfwDAbAABgAA20zAPHX8cEKZv7qdQKzOvPXdseB/OtxCf/Bf2AADIABMAAGwMA0GID4g/ir9U01Zv7QcU2j40KZ4A4MgAEwAAbAABgAA9UZgPiD+IP46zgD6Niqd2zwGXwGBsAAGAADYAAMgIE8AxB/HR/4Y9lnHtoqDRnLPuv5r4qvkRa+BgNgAAyAATAABsBAtxmA+IP4w8xfxxlAJ9rtThTxQXzAABgAA2AADICBvjAA8dfxgT9m/up1Jpj5q+e/vnRksBNxBgNgAAyAATAABsDAaAYg/iD+MPPXcQbQkY3uyOAj+AgMgAEwAAbAABgAA6MZgPjr+MAfM3+jIS5q6Jj5q+e/It/iHHwLBsAAGAADYAAMgIF+MQDxB/GHmb+OM4BOtV+dKuKFeIEBMAAGwAAYAANdZQDir+MDf8z81es8MPNXz39d7bhgF+IKBsAAGAADYAAMgIHqDPRX/G3ZY1ZWDpjFDeFKr188YFZWjgb+95jNAcG3eZ9Iu7zdrA+kmQZgEH/h+JaNRf/E30Gz8fwVs/PSFbPt5EEzN6/36/mjrN8K0+1+yWw7/5K5ZVQbOXbB1mPnpQuuPen9UdePc/5Tr5nvPW7S/5VPRfxVNt04NuCaWqsJCtmDb+FbMAAGwAAYAAO1GOid+EtF3fJ2s7ivWPwtbdEDv3VmcTkv/myeUvCRsNy3qZZjmxrAQPzpGFbb76/4u2w27qa6svjj/Wr1b4pDLx8ScVXE3+px15ZY/PF+0523FXSvmV1pvqfMyuPG5ARg2XRpPh3wOWzpRH/stQPEBDEBA2AADICBHjLQO/Enb76bC8SfTJd+3rDdHMqJupgg3BOdVUzzm0DAIf7qDbz7J/6Om4VLV4S40vv1/NEEu7ecvJzMShbbQuloBnPhmEun95uwReaxa/cb5uCHlE0f+qF57qEfmk2irZZNJ/PGZ+VX4U/4Br4BA2AADIABMNAfBmZK/NEMX342cJNZkrN+PKjZssccWlw39W80IP7qNaa+ij+35JPq7sQf77OAcjNviTAksegJRuUznnHjdIGZtzTfS8kMY3qNmHGk5Z6ch9qyfbLzd3kmSz7n1xq979I+Zs69/qa5evVNc/UnzzXf3gLiT9qYfi6bjvsHbJuPFXwKn4IBMAAGwAAYaJ2BNR/osZOrzfyFZ/jm5iPHO7L0E+JPCZmKvPZO/FmBlQmmOb1P9bfP3F0221iosU9IsClht35VziI6X9KxkFhzQvOC2UgzdrysM5inEIRcdmCry9H7kxB/u3YHln0GbC2bLhWLgTxwrl5bhf/gPzAABsAAGAAD7TOwZv/ez5tf3nhT6yqzjWBWEn+05DM0wze/1uhn/tKXv+SWiLYfEO0niL96Pu+d+CsjKuysnBCI6TX0fGB2nGbawiLPT5cyxzN7SkCm5205kWtTG+rFyy+rXl6b7n3DPHfvV0b2bWXTNWkb8qoXW/gP/gMDYAAMgAEwMB4Da/Y/umT2P7rXPLBzs7n9feNlMi3nVxF/JPCKlnFaAchvByXRF3w+cPL+gfir5/Mhij8SdfwcnW5761d5Vu6g2bgaeyNnRMAduxARiyIGdtYxlq9IN2UxSILue7tPlRJ+ZdJpP2O/O7FGLBALMAAGwAAYAAPlGViz6bO7zNJ+EoBLZv9DO8wvf7j8xdN2dBXxVyWtrRee+Rs5cCY/PfTwg+YDt91aKu00eBmi+MsEXr6trl9NZv5IpMVm8CLnikRlGrvAMtD03JQFH9tBSzjLCLqy6ThfbPO8wSfwCRgAA2AADICBfjGwZm7+JnP7r+4wj9gZwAfMjjv6U4Hygi7yUpfoYDXyHGA0fXs+w8xfPd8OT/y5l7wEZ/68mbvjZoGf21PcxsRj7Ljs1ONLSevFSZZR5zMJujJLPcumm5vPXkjz41PdqGMd/+BaxBAMgAEwAAbAwGwzsOaz9z/gZv0eXTJL999tNvVo6Wdp8VdpFo+E39HAW0GnAwrEXz2/D0788XN5StiRKEtf0pKIvfwLVvw3h/qdP53Lnhf0z2UxoDx94VkgRpXoDOeZiat6b/v8ijn4UEj4nTIr3k89lE2X1PmJl83r9CbS1182h0vVJ/NVuL44D7+AATAABsAAGAAD02PAPfP30C7z2U91d+meBMR7No+f0bPb+A++F4tEJ/ZWRF75n4OYXoAg/ur5fnDij2f37Etfkp94oJ9dCC7xpGf7RBr9dlASMzof8RMOvshL4sDiM03HzxiOG6emxJ/7QffvPW5M7t8Tf2XTJfU59SP7MxSY9Rs3vrhO3r/wGTyAATAABsDAtBlY08cXvUzbaZMsH+KvXicxNPFX6rk8zFA19gzqCz/BrN8k+zuUVa+/g//gPzAABsAAGBjFQK9/5H1U5YZwHuKvXiMemvgr81zeELjvRh2eMz+++qbBrF+9NtiNWKIOiAMYAANgAAyAAWIA4q/jsyQQf/Ua6mDEX255Zt3llvX8ihsI/AcGwAAYAANgAAyAgf4xAPEH8VdriRx+6qF/jR4dNWIGBsAAGAADYAAMgIHZZADiD+IP4q/jDKBzns3OGXFH3MEAGAADYAAMgIGmGYD46/jAH8s+6zX6wSz77DinTXdMyK8e9/Af/AcGwAAYAANgAAyEGID46/igGuKvXsOF+Kvnv1CngWPwKRgAA2AADIABMAAG+skAxB/EH5Z9dpwBdK797FwRN8QNDIABMAAGwAAY6BoDEH8dH/hj5q9ep4GZv3r+61qHBXsQTzAABsAAGAADYAAMjM8AxB/EH2b+Os4AOrjxOzj4Dr4DA2AADIABMAAGwEDGAMRfxwf+mPnLYB2n4WLmr57/xvE5roHPwQAYAANgAAyAATDQTQYg/iD+MPPXcQbQeXaz80RcEBcwAAbAABgAA2CgbwxA/HV84I+Zv3qdCmb+6vmvbx0a7EW8wQAYAANgAAyAATAQZ6C/4m/LHrOycsAsbohXbm5+nVlcPmpWVpL/fZuis1zrFw+USjdpmCD+iuI7+lz/xN9Bs/H8FbPz0hWz7eRBMzev90fXedKMRss7dsHWY+elC2Y9fcmi95v+4mXHU+YHF8+ZixdXzbM71pr7nlk1F2n/7P5ou4/a3rRtlfK7xzx7jupxzvzgmXvMXFqvE2a5Uj49YgX16hmjYKubfQfigriAATAwmoHeib9UpC1vN4v7isXf5n1HzdKWzAl07aHFdfmbLAlJIQyj6aYwQIH4y+I3ToPur/i7bDbuprqz+OP9ev4Yx4djX8Nib/W4a3N6v/H2tN+cseLPiSQWf1ZANV7WmHEgIVdCjC6fdeLvzOG1mfg795S5ryv1gB35+wh8Ap+AATAABsBADxjonfiTA9HNReJvw3ZzSAg6dx3NBO4xm73ArDOL+7a7mQlxfPM+nW7MwZ7IU9pe9jPEXz2/90/8HTcLl66YnedfMrdYdvR+PX+U5a6JdLecvGxn/haOOZv1fhNl+HkkM2Yskg6fsLNnVkDVbId+OTViUFL8OeHqZjDn5hNRW0I0NmZnV/wFOzCQAgNgAAyAATDQKAMQf0GRuNbQ7J+cNZzWoArir8ZAe36t6av4c0s+qe5O/GX7PBPIy0KzNLRUdCfPssmOkmfc6Dz/59Jl+cbTrDUs4HZeSmYi07zzM5MubbLkc56vzfZdm3rMnHv9TXP16pvm6k+eq9m5JeKPRZJdLskCKuOIZ9UuXvRnCHm5qNfWEwFpl48WLiHlWUc3Y8d5Z3np85yOtvnlnE788XFXr07NYEq+8LkmtxmbGS84Bl+AATAABsBAOwwMV/zNrzW5mcEN282SXvYJ8Vdr4PLQww+aD9x2a6082mzcvRN/u18y2/gZORpU6/1koL1+9YrhGbXUf8cuJM8JZp2FFWDpLGJyPJfOCT+dn702JxIpDxKkF8xGmtnjvEkEqrRkYyZa1xq97+xuUvytNSTsUpFkxR8LqMwnrlwSYyfMGVpeyWKRZth41nA+eWZQ7NN1VpSpY+6ZPCUyI8LTpk3L0zaJfRKdaTlO/HVqBhOCr7N9XtofIEaIERgAA2AADAQYGLT4m5vfZJb4ZS92G1jKCfFXq2FA/IkBe6CBtTMQI7GmZ9DczJoWcOtX8zNy2iYSefo6lyZcjhOkkVnGifmgrt/dTFwqFHN2+0JQ+owEoBRiy2eV8OO8Qks8Q8c4Pba1+iIZI3yu2z5wPRgCA2AADAyVgQGLP3q+T70QJiT0QsfmseyzLPAQf9PoHI+bBZ5xSwUDCbWQ0EueGUyWe8qZOBdj/3y65JOXh8pZSC4rN3M4DR/ULdPN/EXfnnn4RDaDyPXmrSfg4iJxbp5m7NTMo3dt3Trg+rL9FNKBFTAABsAAGAADjoHhir+gqAu88CWYDuKvbAOB+JtCZ0pLQdUSS7sUMycI87bR0sv0pxdIzATzyl8neYjPFBZfJ/OY/meIv+nHoE+8wFbwAgbAABgAA8NgYNDiL/d8n30OUC/9DL3tMyAS+Vv/CW/xwpd6Da13z/yV4IvEV24Gr4KI85eCHjcLOSFZ7HP/+uK03b1RjBB/6vk/WY/OLfs89SP3wpzXXzaHS/Aj64LPfeUXdoNdMAAGwAAYGI+B4Yo/+wPvSuhFZvnmtuzxf/9P709xQAXxNx7Y3CEMUfzlXvaSvHHTF4ThZaChl7jk8kt4Dx93L3uxP9reSLto9oUvHPfR21Hiz73cJfdMIC3bTF/EkrAZOmaXfIaeBcyXa98+qvOs4NsXfuLelvrjU/XaymifIX/4CAyAATAABsBA3xnonfhLf+Tde5HLUbOyop7vo8ETiT0vnRKDYoBFPwi/wmmX87/7N61AQ/zV62SGKP7SF67wc3nnXzIb7XJO8QZQ+5ZQ8dMOnDY4y0dCMZ/WE5PpTzrk04VfFlM2bpMWfyS+5M8sZJ9zQm/evT00/ZkH8QPyuf5A/yTExXPeS2G89Dptmbd/ir7Ky2s+8R9m/fCymCgjZdsi0vltC/6AP8AAGBgmA70Tf7MGIsRfvYY3SPGHQR4G+szAEy+b16++aTDrV6+fmLX7CuoLXsAAGAADs8sAxB8Pojq6hfir1zgh/ur5DzeHbvvv8P/+n8xVzPrhy4CO3r/Qf3S7/0B8EB8wMJsMQPx1/KYJ8VevYUL81fMfbgzwHxgAA2AADIABMAAGhsMAxB/EX61vzfFTD8PpDNCxI5ZgAAyAATAABsAAGBg2AxB/EH8Qfx1nAJ3wsDthxBfxBQNgAAyAATAABibFAMRfxwf+WPZZrzPAss96/ptUR4RyECcwAAbAABgAA2AADLTPAMQfxB9m/jrOADrC9jtC+Bg+BgNgAAyAATAABmaBAYi/jg/8MfNXryPCzF89/81CJ4g6ghEwAAbAABgAA2BgVhiA+IP4w8xfxxmYlc4I9cSNFwyAATAABsAAGAAD7TIA8dfxgT9m/uo1AMz81fMfOmD4DwyAATAABsAAGAADw2EA4g/iDzN/HWcAHe5wOlzEErEEA2AADIABMAAGpskAxF/HB/6Y+avXQWDmr57/ptk5oWzEDgyAATAABsAAGAADzTIA8Qfxh5m/jjOATq/ZTg/+hD/bZuC+Z1bNxYvn3P+5p8x9XetjDp/I7Lt4wix3zT7YU+u+3DbfyB99KBjoNwP9FX9b9piVlQNmcUNRANaZxeWjZmUl+d+3qaBD3WSWVo6aQ4vrCtIUldXOOcz81fNr/2b+DpqN56+YnZeumG0nD5q5eb1fzx+z2WEfNwuXnE8Xjgn/7X7JbLPHL5uNu9eaOb3f+AD0HvPsOScIfvDMPWZux1PmB1Yg1B98L59dNc/uWGt4G4rz8tlEjDRUZqiM6DFbV2djNE3j/nax9ut9zlxsW4yRsBJlWCF4dn/uvkJ2nTkseBxRf5uPyDfkR6+usbQ2FoI5ZW8o304eS9uP4yoV3AFfd9L+EfGGzeXbBnwFX4GBagz0TvytXzzgxNzydrO4r1j8bd531CxtyRxC1+bE3Ybt5pAVhwfM4uKe/Pkpd9AQf1n8xmnc/RV/iSBJxR/v1/PHOD4cyjXrV5UPWeydf8ncQu1c77fQ9nlwbgf9PHhNB+mZOHSzRskA3ZulOWescPRso+soLW81I/vNmYvqutyAX5edCcV8eTr/EvtTEn8x4dUe0+RHLXL3mzNpjIWvyCeh415ss/SjxB+d92JFMQ4IobzozHPDnKazlzyLmWyriNaxfM1tg8slPx0+4ddv3nF9MZm5ZPHn+SDiy7FsQl65LzDgx6x9whfwRZ8Y6J34k87dXCT+SNTlZvpoJnCP2RzrxLdA/En/lvn80MMPmg/cdmtnbwr9E3/JLBULknm9jw62DJf5NDSDesGsl23/2AUxw7rWzOl9mbahz26AyuIgGbyKAbo9L/a9ekQFFIuL/CDeu17VIS8CwjOHlK72gDpqe7s8kz9bFyrSr1TPXPwozmKmTaQPxSAWM8tGVCwyA74/8zPBoXR5wepdR3US5bbuU/tlh/JX8gWIzyHZLWZykzQTjbeIZSxuOO4zCX/AH2Bg+gxA/MnOG+KvsoiD+Gu6ETux55Z8Ut7+/i0nL1vBstOKw0QYJksa3bGAPYmooaWk9O8tfZT8q3Q2/erxPBOF6bJlqvmypL1SiMnjZKM8l9SHZ+XS5bDZNZmv8mnJBnf+uFlIBXWSztZDzAbq/cQ3L/zkTXP16pvm6usvm8PSX2N8tgP4VAi4was3oKUBbDrQVuetgFKDYrIhFRyhgX2Ah8TukPDwBv2iftlxnm1hAUv587FzwZkmd6OnNPIabVcykOeZHhJQtr40A8mzmm42Mhvci2tSn7l8nZ+z2ctsBottyK4dlV+al2cT5c15ibpQ/FLxl5XBs1O5QY8Xb5GP8H16TWHacOyzuCV5KyFHDDjf+HXxrlPXOPHHMV81zz7Dzw/6ccr8kNUr9WUSZ499W+dwPVIfeH5J/Mv+trz49Qhfl9mD8/AFGAADs8jAcMXf/FqTmxncsN0sFT3TB/GXH+h7N9t8JwHxl/dJrY7EihwhfvQ+xYOOnb9stl0SwoWOk3hRYs2KRU/0BGbA5teafDqXnxZW5dIFhFbKkROHqQANCS465tmc+Xj96hWzcJKe1eO6kwjM/OXEcbbPz0xuW71gFuwzlFleNq3wl97nODYp/ua8AbwbvGbiIxFyLA7toHs1m3XxrqV68ACcB/DZNj+ozupt65XLy533Bv1pzNYaslvmGUxH9vJAXF5rP5OtAeFqz+X9YEXCudVcfk54qLqQH5T449iF02fXh88H8uNYyDqEfCj8lM2YFtS9imCh8qL+XWvyddlvzuj0IkaU3uVH/vdFkxdfW/fspTWyHCcek7iSfeny4nxMbVplT+6Y8B/HsGib+Vi1nRx/WcyL8sM5+AkMgIFZYGDQ4m9u3r3EJX3hy0rBkk+6WUD8Qfz1YdBgBZMUONxZh4Wd35GFhVnuebiIH8ql88u45eQF90IVylMKOytik+ftVHkkxFKBmJ7jWcVQ3RNRLMRcVm83S5jPj/3Woa0UA3aw/1TyPJ8b3GezgsJmFgX/f3vnE2PHkd/3ufviXH2IgbnMHOKDFETS7oDZ7AJMDCpBhgTsbLTUZCOPGAmBRQniSAa1JGSOaCtkDgNYvlkiNuTaEAyYPAkDQYCxs8IuAgEc+CKBa58E7EkHwjoRuVTwq+7qrr/d9V73e6+73+fw8N7rrq4/v9+nquvbv+pua2Jft91Kty3LOo1AjAsxZ9Jf2b0Qf7bwiKZrLL9BACUm/LU4qdtgC4+6jRGxVtY9nn6O/LRfQpsFdqjaYtepoe2lgHcuANh2t38bP9vbnN+F4AqjnHV76yixpDXtCcVfbdtSVCXEtdN+sZGVzrF9Axt2HnKMfZHBqYfTVqtNbJ/5vI1d4QcG1puBCYs/ub/PeyBM9D5ACwDE38wnESJ/Fj9LmoTEhVFRD1+cSaRML980S0Plu0EgmbR+xK8+UdTLLesllb4NbPHnCi8duSufuOmIQs928Tba+fplbqqd44Qo1A/NMZHC8Li6bUPYJ0KhiMKIUBNRYCbRQZTE2MwIjoYJdtBGHaUxk/+63fZE3DnGEx7RdI3lpwVQNC9pWyQ/YwunbsuK/HlRK6lDUHfjC/3wHRNNS7fdRG/7EH+Gl9o2tgAtfWzZtE6/ePEX91tZp8pmBeuO+JP6mqXA5W/kfyoAACAASURBVHeWrUzf4Hvmc3rNTz0usA1bwMC0GJiu+IsKPR740ncHRvwtf0DwBZ7t01oAFaLLF3FxURW2oRCNKTFVp4+nq0Waruu9h/V9d9USzaYoZWKfRAqjwlXqI+1N1bdpX90W246r+11Eb+7ftCIz5eRYJuttE2MT9XHSpSbA1qTbtDcQM+ZYL200nSUsTH4539G8pNxIfnERERE5Zb3j6Wufx/dH8ovURdoW1N22kydc4qKlFvs5tkqnidQ5Vj+nHVK2iQR7bBm/Gz9YET27Dk77JW8rnW1b+7d9vP5t28z+bddBfjft89PyH9EHAzAAA0kGJi3+Yvf37V5pWPpJ5C8JSnDCLjsV4q+eSKZs1O92N5Lm5H3biKz4/XqStkk4OnnNkDbMsxR/ZllnKdpEeNpiNDyutKXdDnvwTm3XaRKC0bwqI3EPod/m1f8vxN/nD+7WE2k9qb6r7p/E3wtXTaxnnRx70TxpuzOZt2zvb/f/a7tF8suyZ6Le0i57qankVbXVqpsWiZbosMuMpreOje73RIzOzxFNdZ8P7JBIZ9fJ+S3p7fsIrbo56Vq3R+7v0/a6q9//WOcVF4n1/rpt1baYPcr6OO330jm2bbBLUx5VHaS8BCdOmqSd3lUn3xQPbvry40gbk8eRNs++2Ak7wcCYGJiu+NuORPmi0UALWMQf4m/okwARUrJ00xMzIqycbYFQKkSjk0a3VURTuCRS5+dE2XLTSX8qxN9ZeTiLXuJ5R104/jT+qgWvHTqS6G0zA6q9ZNRss7+DOpe2unAcPgjHPq7td68PfMngSy/vrB6cIfYsBKFE9WLRI7N8z5ls2+XElnhq0WGWJdZjoDMRL/OQfP1IomyzhZn+L1GkyNJIbV9dh3j9i/Z5dZH0kQe+uA/MKe9FlHLnFH/Z+SXES2gv8ZXXFtsX/m/dzvphKk0sFlyES3XNMWFd4kLP8GKOa/32RJ2d3inTS+fzGC1X2u8x47NlypPtPodmX+v3e5+pb3p6Ym9rWb6P+T/zvAIb12MytsAWi2BgdOKvesm7fjH7reKF7+Yl7Wc8SETsOekiUb8gTZ1n8EL4FQzivOTd8+mMPlj1e/7Uv/xtxQcbwAAMwAAMwAAMwMByGFiEYJpSnqMTf1Myfk5bEH+IP04WyzlZYGfsDAMwAAMwAAPjZyBnfr3OaTZefPGH6sUXzqnvzRhRWWejLbPtiL9piL++mEneJ0f/ZWnRxBiILhOcUBun3r6+xrzu+fxUffnkW8W9ft3Opd39QPnYcPEMGOGOrZttvXH1nQMlnzf/+/eYPA1wYoH4awa4rYMPZdlnWz1b9+t3+9mvbQjv02vNY4B8U+dufE/JfiKGzNNK5Xvu+7vgnHM5DMAADKwlA4i/vDnFxouvvqbF38Gl319LUIY+eUL85YGc8uNkxB8nMsYnGIABGIABGIABGEgygPjLmzNvbP3oFcTfgDsS4i8PZMRfNzul7Md27AoDMAADMAADMDAGBhB/eZwi/gYs/KSjIf7yQE4NSkT+utkvZVe2Y1cYgAEYgAEYgIEhMYD4y+MR8Yf4S4bPczo0L3lv7mgMRM32yWGMNNgQBmAABmAABmCgjQHmXHmMIP4Qf4i/BTLAQJQ3ELUN6OzHjjAAAzAAAzAAA00MMOfK4wPxt8CJfxOguftY9pkHcsqeLPvsZr+UXdmOXWEABmAABmAABobEAOIvj0fEH+KPyN8CGWAgyhuIhnTyoC74DAZgAAZgAAbGxwBzrjyfIf4WOPHvY+Ag8pcHcsrWRP662S9lV7ZjVxiAARiAARiAgSExgPjL43Fj67/yqochgevXBfGXB7JvN/Mf8dfNfsaOfGNHGIABGIABGICBITOA+Mvjc0Oc+OzzP1Qv7/GS9yECjfjLAznlO8Rfbb+n7n2tLn3xqXpq4NHulC/n2v7yB+rzkw/US+vU5sy2Hj44Ufdv1nzMZd/MsrZu3lWnp3fVYW76VaYbOTPi19MHVzst5+/Mgvh71XVYKkMvqI9OjtVHLy+pPy21bbSpc3/o6K+ljtUd67pqWyH+8vrrxgvPP73ak8S8oJ2/rI6Orqn9M00NfUbtH95SR0fl58q5RFvPqQOTRr6T6ZrKWsw+xF83u45P/F1XZ794rC49eqwu3ruutrb9/2l77BwXx106vhPlXO9P7JtlwPbL8f/PkldWWi0cTirxoCe3pyfq8w9fiLbTznNVJ81Z6mjXd2m/Owqclz48Vqen4pPaL411H5H4WxUzjfab4Typ2Vup8PKF0FV1X3OyInFUjR/CanMdTL+t2T5RpzkXj9ZO7KbPQ+7Y0GzvmZiXMStz3M/Kt+/8Wvro3GwlxuoqP93XV9zHWtqe5Y+e8kD8pfum7YeNq+8cqDf/x676Xk+GtzNfxO+d/WuFmDvcU/tXmsXf7pVb6uB8bQg59sb+M96EsRB+djo5bigCEPFX+28ensYr/r5WZ1+VthvxZ/632OP2w1I0tqTr0N+N2LtwuyjD/z+PnxqPKU/SZhJmTnqtUavESbOxrA528fOVSVCOQPWP0/+l7gucwIsNW+2XZQuZdAwzoif2n7mNfTDTu++uqvs5AiTLX4sbFyqOE0Lo8EG+EJjLd63t90VpaItZ6li1dzuWr2wzF0fMd1M/8dMfq49uWmOAI2BNfvW3Pc6Y8bEWsBG7C6Pm4o01zrjHRo5rsbEWfjarupzZ86ltW/tI6vb5SYcx1at79/yM4BI/GN/GthVtmI+tTSX1jI1j2taVGDblmnrUdovZcsrbEH95vt94808OlAjAP3ntD0YjAA24u03i78yeuhFE8CQSeFnt2oPA+csRQSjpmoWlqcOivxF/eSCn/DA+8XdHXXj02Fqe6f9vtocs7TSiLGWTbtuNGH2odnQ/8v8312++sssTWzlJKU567ROKxUwg89sn5duTspna3ruAsOvdp5gQ3wxzwjGP/+c5JvBr777r0182B4v5nZrkprYH9tveVL34wT7P698xkebaYJY6VvVu8be0RZbApibxW1o8+hN8d8wrykpwcPNufJwRwXjygTpMjkNGMPhj6bx9WuwbGQsSFwMq+wV+cn2i02kReVcdptqak4edprf8Yj6J22EutrZj+Zf2KS8IFMKwvHhgC2+7vWv0G/EX6T8R/29sff8P1B+XAvD1F7/rRcXyMpmpE0cqMe/xvYi/aH0Qf7k+eevtN9Szzw136fBYxV+x5FP6XyH+6v+mTxrRVS71LO/l2zn2IoS3H+olpLKM9NIjb5/Fvr4f0E5THecfU5ZbLR/1/5v6vatOvvlWPXnyrXry1U87jivFJKUSUvqkF5lkWO3ZkpOmI0rKk+Ppibr/obnqXUx6ZFKmr5JXJ846rWyvr7qmtm+q4p62+kq8HCOTvqrOUjc94ajTSN7Ofl1/MyFz0xVX8f02R9JaV/FTfTiol2O34kpzUV5Rh88/vBqf1FX19etlGChsUOeVTlf4y21zbXfJr7a9sW2Vb+W3stxyUlTtNxEO+W60j89M3Y7Clp69H1z1RIq33y7XYTGXhbrNYVv8CbuXtrGd+T7WwqVqh5TZMBk1jPv+KPkqJr8t9Wz1XX18ez/2/SfH+nZz08wzQU+LOsnbKjMpEhM2FVs4fkynC8cRO2KUOM6MkbFyfF69MSI1tkS3B/m7No8e45RX+FyPB72Ivz7zi9lW8g/HunnYahyrdV+pedbnMYeXWe08jfSIvzw/brz+8u+rZy/8kfqTdw7U1bf/SP1np9PlZdLeeReTT6P4295Uwf4ze+ogWPYZqZvcTxhEDSPplmArIn/d7D468ffqp+riIxNV21Rb/n9hTm977ET4ioe5PFQXjlMPdBERaeUbZbdIc9Z+MIyIwEroiS8kjS0I/f/GX32KP+tkLfWWk15igmnGotRJs5jMlidMI8bKE6acPOtJlFemZS83Xaw+xbEyYa/zM3Zxv5Mn7ORE0T3etNd86/Y12qZZ4ARt2zZCIZzMFGU252fqFYpxux2SRz2JKY4pbOjbT/v1pIikmLxjdZZ9ktYVkHaZ4W+dd/I+0rCO2tbOxYEyzzl9l2Sh6eq/xaWxh+4fDZPAmL102d6EX7fPyUds0HwPnOSTsnlRhr0/3cfafFfYPqcf236W8nzO7P2GdfsiRHN6fUGnqb85Y5WUH+tHcdYrf1Y+toVGKi+LQcufceFh+m5Rfu03s921TVifnP2Sd4sNq/Yl8rNt2If46zU/2yem/nHfGP7rCzltdmnxgz5/1TxJ/v54OZ/PTDvG+Y34y/Pbxh+/+AP17Pb31EtvyvLPN9UrF/IOHAJUgbgLBhHvQS5H3pLPIP2m2pLlood75ZK21dsC8dfNB6MTfzEmnW0SaYuLOH3vnSPULNuJYEztM/mXotIVe1YeJt3gv9MnTXdS6aXzJxb2JMG02TvhalGTmPzlnYxjk4cyMuRMvHP9EJ94mPFa2p+cIPjtN21u/PZsmEybTuf6xG3n4YN6ciNt0JP+wC5xGzbla+xRf6frV6Rp22/Ve07xl2Yp3r667lbZYn/hNrBRmWYGHzeyEvOztDvRF6Su0h9qgVHWJ2GrNt+5+z3fJNs4jxCRvNOT9GibLNv4Y4Bbb9dvkrZZGEhd7DRu37B5kHIcBqI2sezmjHXWdqstdv65v9vs056PZ/9oO1w7Nue5iPxsn5jfad/U9fPq4tlafJgcq720dZ6z2GKaaRF/eX7Vr3oQcP7Tpdf1vX9vvvS9jku08gruA9Zm8RdZuhm9D9Cqr+zPEYhL7HiIP8s/c9h9cuLv9kMn4mf3I4n+hctDS/vlPAgmJ80cPrDruIzfTSdNd/LlTXKCiYVMFt0Jqz+Z01f+ExPtsB5FfvUEr5woxCbMiUmxbz93wtg28fDa6/nStU1uv2vOs65vOl28DaYt7sQ7Xse4OIqnjbcr9FUknfgkZ/Kd5bsZWOgx8jeLTcR3vm+aJqOSNhB3FmPR6FPCVm31dPd7bAX92PhyHvFXiOlou6Xusb5btVnq5fLbGil0jvUjOTbn0paUwCjYcn3h2UiXY2+zj7G3G9vN/i08RO1WtbE9T/Fzu4htz8eMQ7n5+dw7Y7Yz3ts+MfVo8o1JU34nWe3HB6bd6/SN+PMYS/S3jT/4fpHQiL+DS+N531+j+IsKvcgDX4xh9KsjMiKDJv2SvhF/eSCnBrepiT+J7qUe6NK0L+dBMDlpUnYezvbmk+bMk0b7irie/HsTrsTkVewhZdWTn2JyVf83XMcmD3mRPz1BcSYikmd64uHWx5Rff7u2qbc3+7bZ3vWx6XRtoqHOI7WUM27D/Pak62aXHfzWPHiTezkvNDBR5DEjCysUf36b48yVbW4UQiIk823V5jt3v+e/5IRa7B6pQ9u5PJFfK7cydjgXC+IXNHwbV/+FI8emcc6DJdWaS1OW+90oCKvyPHu22SfYn+I7d0yp02neYjYMxr36mMp+Qb3CixmVf+bMLx6tT4/BQd0SbAnf4bkir41BGRE7TDkN4i+Pk42rb/xQ/WCKkb/E/X27VyICT4TfgJZ62h0T8ZcHsm0z+/fUxF9KoMn2pge6BA+CiZwQctLYth3i77aT5uyTxmIiI5MmmYiEJ+TUhMxLnxQEieOT6U1/SByXFH8ZE7qm5YIRXgr/Z+Srj21IN0O5rv+abRFPa46pv9uYaeI8emyb75L7Uz5Nba/b4NSxyZ5N+5I+tsuJ+7FVCOkoYkR4JWzR5jt3v1enxITaefhKVluLdrtllbaQejvCzLaR/K7HDcc3Uq5XvyhDki6wTYoDt/3xcSqRn3VfoNSzOPYD72FZftua/je0ewabBzYzx3q2S6Yz6du+O+cX80m++IuyZR7E01b3mfb/VH0pD1978ht18l6T/8a/D/GX58ONM9+RhD+Y4D1/kShfJBqo3xsYEX6NUcWZOl2eI1KDGOKvm/2mJv7CB8CYp20+bHigS/7DXorXN3SzecFynw98ya1P+0nXPdm6kyZ/Ulb1SZkwy/ulvImSs9+7ciyTKLmqXItFrywZQyRfuaodnUSG6XWeVVppqzeZlsmivkruRSfLsuq6pOxZTNyCdGW+btTA5BHWs7KLM042p4tPWOUYt42u/6w6VHYx22L3vkl+tk8kbTsz0h4p11l+ptsW8YHeHrbV9V24v5mFsBxdnxl4rH2S6+PQ9jqPqHiMTYAtP5QczBL50/Zw+pTrO5cDz57JCX1ox9oupY99jnQfDfuTW37YVi3cUv7xIrmFL8Mls8KM2+dSdrbbn/BbxavdFvu4sg1NY0jpR9tm7m/Jz69zTHTW9tL9IjkG1umqcpK+LdL2nV9VbrLtMZ8IZ7adZ2MreR5K1iFiJz/tx//Q05O3M8ryy17yf8Rfno/0PX9P/+HLo3naZ/WS96Nbxcveq+/Ie/n0PXx2ujDqp1/oXuVhp43kt2SIZeBB/OWBnBqkJyf+hMHqNQzFax70fX7mYS2PymWhXpriVQ/layHsp342pEstL03Z2t2+AvEXnZgafopJr7vMp5isnBqBYcSYM+mU48tjg+0m7/Lkbi1PEgFlJnWVaKgmVuVSLD3RNHVwJwvalqY+Jt+gfHOsWdoleZh22qJJttn/63q7Piu2VxMoU64/ifXbUaWTeljl5KYrx9WwXCuvql1lW40tHBuFNvTzdCfTMYEYt03lS6etkYmuOUc49Yq8YsK3TRsL0fR1XVP1S11c8O1Sv6Ta5OmzZTNr0hTfUnZwwcDYQX+7eZm0Tp190RW537DwneHb5sDkX/JibK8ZMfvK9G3+M8eadJF6BcssnbZaF3VMHobVoE0Fr2KH+ze9dvkXKfx6mbyr77vqsIERx9bSR/+3uVBk27HwZ8FG2JdiY4WzzS+/qluE/9JmFYdRO1uc+XlbNrXr0Hd+dt7Bb8cnxl4ub85446RPXfSbbawO6uSzWP6/+YvfrEXUT+yB+LP6TYIHsdPG0+d+pF7X7/l7U/3xC8+N5mEvudCPPR3iLw/klJ8nKf4aOnTKDtPfvpiTZmE3OaHbQqQbk0v3hUw6EpOlpddlUOwukpmRMTK3X6RvmInverS5Xeyuhx3We+xYkI8XMlaXF2I7v293QW2ee+yJ1wfxF7eL31839Pv93jlQ8qCXp3t2gl8Y//OcYtsJ8Te7zWz7If662c+25br+1lfNEU9cGOT8CAMwAANjY+C9z9Q3a3Cvn5mfIP7y5nwb8m6/1//onHp2bECvSX0Rf3kgm47vfyP+utnPt+fa/PeX6OglTOsV4VgbX6/JuQR/MhbCAAxMnQHEXx7jGxfO/h5XcgZ88kf85YGcGtAQf93sl7Ir27ErDMAADMAADMDAkBhA/OXxWL3kfUjOoy618xB/tS3m4QLx181+89icY7A5DMAADIyfgeoBKvbDW2K/WRZPEGUgQRTEX964g/gbCLCpEyXiLw/klP0Qf93sl7Ir27ErDMAADMAADMDAkBhA/OXxiPhD/HW6YvXW22+oZ597ulMeixw4EH95A8EifUDe+AAGYAAGYAAGYGDRDCD+8hhD/CH+Ogk3xF9zR2MgarbPok8E5I/9YQAGYAAGYGA9GGDOlednxB/iD/G3QAbMQMT3b1cvX8UW2AIGYAAGYAAGYGBRDCD2m0Ug4m+BE/8+4OOev2aA22w8lGWfixrgyJeTJwzAAAzAAAzAAAzUDLTNDdd9P+IP8Ufkb+AMrPsgRfu7XQDBftgPBmAABmAABmDAMID4G/jEn8hft8666sif6Wh8d/Mj9sN+MAADMAADMAADMNCdAcQf4o/I38AZGP1A9+qn6uKjr9XZV7sPWKO3Bax1Gm/wP30IBmAABmAABroxMF7xd/6yOjq6pvbPNBngGbV/eEsdHZWfK+cSEw8v3eGe2hnIJI3IX5N/2/eNL/J3XZ394rG69Oixunjvutra9v+3t3lwg+Lth+rSo4fL61NabIoNS8Hp/++9b7+gPjo5UaenJ+rzD19QWy9/oD7XL0K+qw6jZV1V903a6H7xcZ2n5HuafImyl+7kA/VSJM/qZc06n6L809Nj9dHLI+Qp0r7BMU8dE+daeINVGIABGFg1A6MTfzv71woxd7in9q80i7/dK7fUwfkaMjn2xv4z7knpzJ66cRSmO0oKxTq/ZTgP8dfN3uMVfyZSZsSf+d/NHstgduVlGLH3xafqKZmE+/8XMDE34ur+zc1a/PlCrBKFx+qjD+8WQjFRF8lP51Xuf+nD40j6QvhpwWmlO/XL3d5UcnwlTreN+EuJUxhbOcMJLqgXbMIADMAADHRlYHTiz27wbpP4E1EXCDiJ8F1Wu60nVknXLCzteizyN+KvWycfn/i7oy48eqwuGeGy7f/vZo9FsjqYvHWk0URON9WW/7+1/89u40JcmUhaKa6S0bpNtXWzQfyJSAyOFaHnibVouk3lC0ftl5t3tfgrBGUZLYyIxMH4cAE+om2zc43NsBkMwAAMTI8BxF90koH4y+3svOS970GhEHvFkk/J2/5vooDFstBqWeP2pnrq3td6qagsF62XjMrx/jGP1aXjO2702zm+jDCWgskuo2Ki2mfqEcuzFK1BfWL2ctOGS0TL/cd31M6xVaZZ1un3YV0/K1Lq/y/T/81X36onT75VT775TN3085jxfyH+jDgLI3KV7Uy+fYg/k5f3nRZ/RpwWAjG9lDTmI7YFPvTszn4YgQEYgAEYGAMD0xV/25sqiAye2VMH/rLPyAlcLy0NooarAZrIXze7jy7yp5coWvfH+f+NUIsIuGJ5o3VsKfwu3HZtqIVi7HgtNB+qsyIkTeRRhJOVVh9r9pm+c/theX+iW44ZAEWw+XUw+4qonCXUJE8p0y+jXLpZi+JEuoh9Uu3tU/xJJK9eblmIP3vZZtVeY7Mm8bct4qwWavrYlz9Q9+V+QnN86luigbGInl5yasRpIf7s5aKt+abKY3u7T7ARNoIBGIABGBgQA5MWf1vb59SBediL/m5a8mk99IUHvmR3UiJ/ccGz0Ml0TBxFhJ6InrjokmigLRLLNph74yyx57dj59gTaq2DWaIsOU7K80VemV9Q99sPI225oy4kjvfrPbj/LeJvq7ovr3iQzOlpLdzSbZHlpjnpVsBsKyfUKe1XbINtYAAGYAAG+mNgwuIvsnQzeh9gaEwd+RuIACTyF/pnlgFgdJG/rEmyLIN0RVgY3fKXUtrLJeV3RPy1RPAKu7v5OpG4aN3TAu2pew+Tr3/wxV80rYjHBqE6CydLT9so/iRyGEb+wvsA7b4hws87JuoP+xh+L93v+CT7wiK+oX/CAAzAwGIYmK74iwo9EYRN0b/ayCIA7SeFrgpAxF/tk3l8ME3xt6nvfauEl47YeWJuDmHkC64cexf34Hll2xPcZD0aIoI6iunmuXPs/td1yxKr3fjJscFcaZrEX/RBLiIIE1E9vaQT4TeXH2xW+Y0wgwEYgAEYWAMGJi3+Yvf37V7JF3/BayFWAATir9vkfarir470FQ90CZd33lEXZoyKzb6ks/BN43ENAi15XHDMdXX2uHxtg9UHG+8ltNINUhS0iL/Y/X2HDyLiz7uXr5e2fvwPvT0Ip5f6DN2X1I/JIgzAAAzAwIgYmK74245E+SLRwOgST/0C+TyRuOjJDeIP8RdlzET7vAey2GlT4ii+XZZzRqJr1WAmItNdaipl1SI07qd4WWXayL2Lkj542Is8iCa4ty9eH7v9bb97feBLZae4HYK6NIk//YJ3T+jFooH69Q1euvKdfo0Pm2mpq7HLlx9ntqUlv6DtpGeSBAMwAAMwAAMrY2B04k+LNechLreKl74fRd7LJ2LPSZsQdFrsmXzkO5FuBaAi/rpNQKca+atf4RAKsnqyXUQFzesfzHe1XFR4FgFWvo7B/3aiiVps+vcNtr/ioTFPIx6t8p26+fsrAWjfd9gkWJvZMSKnj1c91DZvKFNH6cwDXNzv4MmbQdq4yJMXt8c+84u/d9XJN/28/iLLJisYU6lXA6P4Y2WTMbiESxiAgWUxMDrxtyzDDKUcxF+3wWC64q+bXYbCN/UYmB/f+0x98+RbRdRvYH5BlCHKYAAGYAAGemIA8deTIRc1iUX8dZuEIf662W9RXJPvMP1y8xe/6eWl9/h3mP7FL/gFBmAABmAA8Yf463Qlhff8MYhwIoEBGIABGIABGIABGBgHA4g/xB/ib+AMMJiOYzDFT/gJBmAABmAABmBg6Awg/gY+8WfZZ7dBhGWf3ew39AGM+uFfGIABGIABGIABGMhnAPGH+CPyN3AGGNDyBzRsha1gAAZgAAZgAAZgIM0A4m/gE38if2l4czo2kb9u9suxMWmwMQzAAAzAAAzAAAyMgwHEH+KPyN/AGWAwHcdgip/wEwzAAAzAAAzAwNAZQPwNfOJP5K/bIELkr5v9hj6AUT/8CwMwAAMwAAMwAAP5DCD+EH9E/gbOAANa/oCGrbAVDMAADMAADMAADKQZQPwNfOJP5C8Nb07HJvLXzX45NiYNNoYBGIABGIABGICBcTCA+EP8EfkbOAMMpuMYTPETfoIBGIABGIABGBg6A4i/gU/8ifx1G0SI/NX2e+re1+rSF5+qp5bN/KufqouPvlZnX63rMvSBkfpl+urmXXV6elcdLpspyut00W4hfE+GhRfURycn6vMPXxiejeEen8AADPTAwHjF3/nL6ujomto/0zRJeUbtH95SR0fl58q5FmjK9Id7aqcH4/ZxgkX8Nfm3fd/4xN91dfaLx+rSo8fq4r3ramvb/9/e5hR3O8eP1aXjOy19YP78U+Vu3X6oLj16mO5TWhwWbb60FiLR96n/v38fHD44UaenJ+r0wVW1tX1V3Zffp8fqo5c7lrXKCf/LH6jPqzZF2qHrdqLu34zsW+H4bnwxWHFh7DqrqG9h4aUPjwsGNXtDvmDQl/gr8pF+p309r11XyGpyTKdOyz+PYnNs3iMDoxN/O/vXCjF3uKf2rzSL8AQ/9gAAH4lJREFUv90rt9TB+frEL8fe2H8mDZAIysNr6gbiL20jD7633n5DPfvc09npl30yGa/4M5EyIwzM/5rnZdtSytMC8pERarHvBpHnsRPWX9ra4XgtMk2drHyc7Y/VhdurtWEt6I1PF+9jM/EuBIcRf0OegLf7SERUu7C7qu6ffKBeamWvvbyQ1w7H3Lw78MiSCJdF8SH8LSrvDj5ZACNG6GtOjfgbIo8LaHuv/YX6DXaOhZ+HNebk+mN04s9u2G6T+Duzp24EkT6J7F1Wu9GBpIj6HZw/pw4Qf9kDDeKv745/R10QcVUtz/T/913eHPndflhGJb1jJYLXKbJ4R12o2u3lHe2zsTQipL5WF78IRd7OsRFbseOWuc33qf9/AXVxomBlRGLkk9DDBzmRy4EKDcTfWiwVLi66GE7Liy46+r6APp49RlK2PY/kNzysIwOIv3LA1BFFLRYRf7N0BMRf3wNnIQSKJZ+St/+/KC8ZgfPFlxP1ioifar9EykwEKhI9syYWcu9gNHrmiMJS0JRRwro9DfZqEY/6nkUn6mhF96r63VEXju8ondaxRSyq6LXXFp7VUtSH6oIsly0F+Y7cN6nrELFl6atif3FMvN2+T/3/pY0+/gf15Mm36smT36iT9xrsVrW9IY0Wf2YSuql0RCKYhNbL1PQSUb08r1gu6i9RNJHEIl0kimOiHDrC4+Xbk+hcjviz6+6300RQT9Sp1SbXNu6+amw14q+yU2Hn9kim5+NS1Ev5H9lLe618wzztNqWW/0qaor0meqV9bbXTtMVtr28jr76a1TZB7tev4/13xkYWz3FuLX+apZpe3zK20P3Byze086YqbGNsUrTL70vGjnzHWGEbXMDAIhiYrvjb3lRBZPDMnjqILvs8pw6q+wcRf7OAhvjreWDSosMSNf5/PRkpolvuA1REQFjHeZOWQkSm9kvE7Wt18ZEXLZOybUEUKTsnmiZCNSoWvTqKYIuLpc2ImNtUWzHbGAGq99kCrRCFNduF4HLqZY6t6mWLslIoloIyrKuktcsruJC2B23y6+3/N+X3Kf60GDCT0EL8hZPQesJf2ck7rtpu6qjvH6zzdfdLfsfq8xNveaZMmiMiwj22vV8tR/xtqq2W+oogMLbUk31fVGuR4NlIxN+Du+pzZ/ljIQ5iIqLZNm5EqRAopdAP/FekdcuIbStYuG+1Tdeh0RaSj9fOihPbn03p4jbQbfLtGs3bLqf8bYS2ld72Wcy24kfj02C/5Hdy7DEcr7fLTiKNVa+gLPZlr0LCdhH24Qd+EgxMWvxtbYuosx74chRf8in3Btb3AiL+ZhlEEX+rGHD95ZFx4eH4UQSGEwmz6h0IpXpfKO4KQVRHt1KC0uQRi7iZfe53WFa5v6HuIsJsAWf/d4RXIOzcssVW9rHadk65ruD2xV+y7hINDAR0WLbjq8Rgvfw0Mkmvo4Xx8mefyOt8IhPyeP4pW8lEuq1ucqykyxEkqXI21VYgoOy0to0a7i98+QN13356ZEwQar832dMu1/7tlusKF7f9ss8VfiYfN4/CbrWotX3j5m+Ol+/cujeka+DipQ/vdn9A0XYZjWsRkuk2Nl0McG1t24zfNif8hgcYWDUDExZ/cg+f90CY2H2Ass0RhYi/WaBE/K14EGsQbo4fm8RPw75GQeSIo5QdcsVPWiQml7iWS0Bt8eeIMFnSWgqvaDucJaSyTNOL3Dl2cdvhlKN9YJbKRr5HKf5sUZPyrWxvmMg3CS8RVC0TcIdfWxBrMRYXJtFjyvRx0dPUNrNPJvV19FJHoUzk0haGZTn+ktnqv93eBpFjRzRFhFTH+8sWTR3EB9XvQtzUUStbkNi/Tdvqb7vcRtEs7bTbUvmmiYW6nCZmGtt7Wvsg6ueqHnZZ7m+df7TuYbrahu4+ieal9rk29I7LqN+87eI4bA0DMDALA9MVfzGhtx154It+ZYQdHTS/41HCWYzbR1pe9dCtQ4/vaZ8ztFffr9cWeSvyC8SPNRFp3vfQfT+fI4gy6polECUfV1zVfSctCus0ph5+2joiaos1aW/46omwfGe5qtMOr5xZbWLZPmyDacsqv12x01zHpgl/g9hICojcdkveS4r8bdvLZK+q+w/uVhFRR0xImywR1mi3XgXEtMRfSlg12jOnTzUuWXW5E78m69Gr79xyO7cxxw6kYSkgDKw9A5MWf7H7+3avtIk6In+znICI/K3o5G1FtQp/heLF9qMtfuzt5rUDwX1pcnJwBE/Rziah6OZb2iVXGEXKMvntHOcJ3JiAlPpevHfHeoWEJ9zMSTAoX9JZkUC7HZLWjua9+qm6oN/JuCIWTBt6+m67H8r4pfhuE3+JaE3DBNrNP23TvChLU/3SeQd1EOHw4Kp+gIdEEI2NzHeRPleQNi0dnKe+ueKviArGI6BuHmbZZyxtWhjl1r0h3SwCehbeJd+s+xELJtJtbPJdw8WOnLqae3y/+UzdzElPmrWfwAfjFEzARCYD0xV/sShfNBroTwAQf7MMKIg/n5/F/9eRK1t8SGcXMZi6p08/hTIloMw9fN7+aFTRE0QZg4wTPWtIX4g0eal9xH6ptvnb/f+Slwg1Wd5Z2SYUf9qe/sNuvEik046gnJRdUtsjbYy120wG+3jaZyz/yDZXzJT1LIVP1Detyz4jD3zxlinG82230VLFnxYP0pby/kEtUo71S+YdgZQQGU6EUOwu4jf3oSERP7k2c4WbK1x8QRIXXuJ3px16yW7Ed43Rs3jebl3Fr83pAlvp9ks7/DoWjEjd9dLYVNQ16pNmoe7a0GMx6rsmYe0dn/Dn33wlT/b9Vn35cV760K4ch01gAAbyGBid+Kte8u48yEWWanr398kAq+/nM8s45bsp6le85++oyrcpbZ5x+4CQZZ/dbD25ZZ9GzAT3q3lPlRSBEklTbLOEnol4+fnGxGWQn5VPNaExYjJy75sjsEQYxdNIHf1IpBFoTpusOrr7rYhd+foKJz+/rcef1nURkejYTtpY11XyqcqqBKUwGm+3fT/izOPB0sWfTMrLibT/bd8npSfTiXTOA2KM8Cgm7vW9aznLNdv7/VLFnxZDJzr6V/jRtCnyMJmYfSz7GbGilxWKmLJs7Qqwdhvop0lWxxd21eJJtukyTT0tm0fq5yxxrPZL28zxCYFVpY3x0Fxm3W4rXTmOVG2o2hYXfuILY8/UE2RjeRVlu+VW+VhlVnW0/Ffd8+f5rrB3hs+qsdJO+646+eZb9YSoX/wCYNRmtv34PfP5BZuuNWujE3/rBjjir9ugPjnx1/eAbS9n7Dtv8lvrk0vjQ0N6YEMm661iScRJKiLUQx3W7XxEe8uorf3k1j44eu8z9Q1RvzUfL7vNdeib2G8WBjaefe4pOlwfg/eC8kD8devQiL9m+0kUq1N0akHczzKIkbbZx6uzj0SNIpGxvpgxUSc7KmPnXUZmWgWifQy/mQ+0MdDD/ap+n7z5i98Q9WuzO/vpmzDQGwMbP7r4h71l5g9o/O8+KUP8dbMh4i9hP3/po7MkM3EMAy9jZS4DRphVS+jcJXacG+hjY2QgWBqauvCQ209Ix5gKAzCwAgY2rr5zoMzn9Tf+p3ruO/8aR6zAEakTIeKv2yQJ8dfNfiku2Y5dYQAGYAAGYAAGYGB8DDjiT0Qg4m9YTkT8dfMH4q+b/RjUsd8iGQgiKVWk0HuASM8RlvRDQLxyuV+Qi8EDuhi8yL5I3oz1MLA+DFTi7+Ct19W//w8/YKAf2ECP+OvWGRF/3ezHyQD7wQAMwAAMwAAMwMB0GNj4w/9yXou+p57+Vwi/gQk/6WiIv26dDfHXzX4M9tgPBmAABmAABmAABqbDAK96GKDgszsY4q9bZ0P8dbOfzSK/sSUMwAAMwAAMwAAMjJsBxB/ir1PE962331DPPvd0pzwWOYgg/sY9QC2SDfKGDRiAARiAARiAgXVjAPGH+Osk3BB/DJrrNmjSXpiHARiAARiAARgYKwOIP8Qf4m/gDIx1cKHenBhhAAZgAAZgAAZgYFgMIP4GPvHnnr9uHYZln93sx4CN/WAABmAABmAABmBgOgwg/hB/RP4GzsBQB9yn7n2tLn3xqXoK+3XqQ0P1L/WazokeX+JLGIABGIABw8B4xd/5y+ro6JraP9PkzGfU/uEtdXRUfq6ci07Sdq9YaUzawz21M4BJLZG/Jv+27xtf5O+6OvvFY3Xp0WN18d51tbXt/29vs+nci/7eOX6sLh3fifapmcq+/VC399Kjh0Wf8/8vsB++8qpSf/en1uetX6pzM5f3sTqy8vjpj/6su01mrsNwuJjJ97QTVmAABmAABmBgqQyMTvzt7F8rxNzhntq/0iz+RNQdnK8nRXLsjf1nAgPvtuSzyskM4q/23zx+GK/4+1qdfVXabsSf+d/NHnEbmjIK0SnC03wu3F5EeV6eRuwZIen/X9BJ4dyP/ln93asfB+NB3EZenRN1kjwRf3m26mJnjsXGMAADMAADMDAfA6MTf7ajG0XbmT11I4j0SSTwstr1Jm6N+Xhp7fKX8RvxNx/YxjfjE3931AURX9VySv9/N3sYu4TfIgDLyJth/tVP1cVHixSdRVv08tFHj5URmv7/sK792ECE2tHz/eRl6oj469eexq58Y1cYgAEYgAEY6IcBxN/2pkL8zQ8Tr3qY33bxQawQe8WST8nb/1+Up5dc6ghdIdiMYDJLJ83+i8cP1cUyknfhdikk5b+JshmhJ+VUgrNuk+Rb12VTbZmonM6zQRhq4WgvX63LdvLb3lRF3Wvh6f8v7PSuOvnmW/XkybfqyVc/7RSt0xE/a5lmvezzn9X179ZtD9O5+2P+axd/7hJRiTzKMb4IDcqeazlq3ZZYXdmGfWAABmAABmBg/RiYrviLiboze+oguuzTv+eveTnpMjsKkb9unXJ0kT8tmmohtOX/r8TaptL7vvhUnbXuvbPFmiOitGgzYk2EmFWG5Cn7A0FYlhHbrkWpl4ddt/K3iNAL9+wIYli2pLEFof+/6G/9iT/Tf2Oiy+yLfxfCzRdqdtpm8SfHuwLSiDw7T73NX476/D+qv/vTf1SvRGxsl8/vbuMF9sN+MAADMAADU2dg0uJva/ucOjAPcNHf4ZLPuIPluGEIQMRft0FodOJvlsl9GYWzhZPN886xEXu+uAsFmAhFs+zSzkNEYTR/EaVRUWj7y9xL2C4SnTJnsUGHtLOLv0219fw/Nt7T1y7+2gTcx+ooFeX77i/VEQ+T6RT1XQVnlGmPCfyGBxiAARhYNQMTFn9yf58n4KL3ASYgPH85+nCYZTsM8ZfwT+akf8riLynYtG3ce/ictBHh5ghFy7bOcdb2pCi00ySWki67D6XKaxV/3/2l+mlkeWjTA12axd+m2gry9MRgsN96EqnUxY8IOvbu1ldSdmI7doUBGIABGICB6TAwXfEXFXrxB75EgUb8ZV1h556/1Q0GKcGmeRaBZ93D56QNonmuUKz7Q2p7cZ9eNFJoi5GIyKzzXp3dTB0axZ8WYe4STX1cp8hfpM1+OfI/FfmzbcvvrPHJ+JrvCHswBEMwAAMwsJYMTFr8xe/vy1v6Ka+FsF8TsarJA5G/bpOW6Ub+0sJMs+rcw+em1ffhOa9wSD/sJXof4PamcsRk6uQRiMxuvuy7DzaJv+S+vsXf9qZ+4EsdTfwzdf2tiOhM2Zjta3ni7rsvkN+wxib8gT9gAAYWycB0xd92JMoXiQbq9wb6L3TXL5DPE4mLdI7kjfjrNgBMVvx5kT2fQ2e5ppNWhKB1L6CIB0coFvYWgVi/bsL3QXjPoF++/A9Fpp/PLP+X/MAXecCKt8TSvBC+Fmph/ZuWfco+P8+t7YjY09FAbzloKRLD48M6xHzBNuwEAzAAAzAAAzAgDIxO/FUveXce5CJP6/Tu75NJrYg9J11C0GmxZz3x0xeDK7y6jvjr1lGnJv5E1JkXsLvfRtCJuKtf0q4f1lI+GKZ4DYQIN9lfpE/lFzzkpcqjzrsu336gi8k/kq71ATFNvu5P/BkRV7/iwdxX5wouLdase/606NNP3XTvvUvn56bz8zPl20/6rE7MWgCaepXfnhit0q5wfKIOTcyyDz5gAAZgAAaGx8DoxN+6QYT469Zppib+1o1/2tuNf+yH/WAABmAABmAABmwGEH8Dv2qO+OvWYRF/3exnDxb8xpYwAAMwAAMwAAMwMG4GEH+Iv04PTOBpn+MeABjA8R8MwAAMwAAMwAAMrA8DiD/EH+Jv4AwwIK/PgIyv8TUMwAAMwAAMwMAiGUD8DXziz7LPbgMAyz672W+Rgw954xsYgAEYgAEYgAEYWC4DiD/EH5G/gTPAoLjcQRF7Y28YgAEYgAEYgIGpMoD4G/jEn8hft8GHyF83+0114KNdcAEDMAADMAADMLCODCD+EH9E/gbOwDoOTLSZEzIMwAAMwAAMwAAM9M8A4m/gE38if/1Dz0CCTWEABmAABmAABmAABtaRAcQf4m/Skb917NS0mZMZDMAADMAADMAADMBAjAHEH+IP8TdwBmIdl20M6DAAAzAAAzAAAzAAA7MygPgb+MSfZZ906lk7NelhBgZgAAZgAAZgAAZgIMYA4g/xR+Rv4AzEOi7bGNBhAAZgAAZgAAZgAAZmZWC84u/8ZXV0dE3tn2ly+jNq//CWOjoqP1fOtQidWdM3ld3PPiJ//dhRd4z3vlJ//vD/qdfe6zFPhGNLn8LWsw7KpIcZGIABGIABGICBRTEwOvG3s3+tEHOHe2r/SrP4271ySx2cr+GRY2/sPxOfrGox6aZflNFnyRfxV/tvFrul0/61eu3nJ+o7iLZ4P8Au2AUGYAAGYAAGYAAGJsvA6MSfPanfbRJ/Z/bUjSDSJ5G9y2o3APqcOjjcUzvB9r6Fx+z5If5mt5nNSPj7r9VrD79S/3GAvg7r2nfbyQ8bwwAMwAAMwAAMwMA6M4D4295UO/uXW5aPrq6TIP76tj3ib50HPNred38iP5iCARiAARiAgTExMF3xt72pgsjgmT11ECz7NNFA934/e7noKh2K+Ot7QEH8rZJnyu6bZ/KDKRiAARiAARiAgXwGJi3+trbPqQPzsBf9HVvyWYi/gyu3rPsBCyE4BAGI+MuHOa/jH6r/9nOWfebZqm/bkx92hwEYgAEYgAEYgIFVMjBh8ScCznsgTPQ+wFIgxu4P3G97Ouji4UX8LcDGL5+od3jq52RvZF7lgErZC+iv3J9LX4UBGIABGICB3hiYrviLCr0iyuc+8CUV5RvGQ2AQf31PJon8IVD6Zor8YAoGYAAGYAAGYGAcDExa/IX398l9gOHST/36iCDyd04dBNuW71TEX982554/Bue+mSI/mIIBGIABGIABGBgHA9MVf9uRKF80GiiO8qN//v/VORPx17ftEX8Mzn0zRX4wBQMwAAMwAAMwMA4GRif+qpe8Ow9yuaWOjrz7+2RtsIg9J10Y9atBdR8Ok3wZ/JLXHCP++u5IiL+a+b5tS37YFgZgAAZgAAZgAAaGzMDoxN+QjbmIuiH+eh5A5GEvPz9R31myiF8EG+TZMxsw0dvN5LAJmzAAAzAAAzAwTAYQfwOf8CH+euw4732l/pynfDLBH3if52TZY5/H1/R3GIABGIABGHAYQPwNHAjEHxNBxAAMwAAMwAAMwAAMwAAM9MEA4g/x51wNmBWqt95+Qz373NOd8pi1TNIz+MEADMAADMAADMAADMDA7Awg/hB/nYQb4m/2TsdAhc1gAAZgAAZgAAZgAAZWwQDiD/GH+Bs4A6sYGCiTExIMwAAMwAAMwAAMTI8BxN/AJ/7c8ze9TsdAik9hAAZgAAZgAAZgAAZWwQDiD/FH5G/gDKxiYKBMTkgwAAMwAAMwAAMwMD0GEH8Dn/hL5O/ffe/fqH975unBft5//33V9hly/anbcNnCN/gGBmAABmAABmAABvpjAPGH+OssKkX4Pff930t+ZD+dtr9Oiy2xJQzAAAzAAAzAAAzAwDwMIP4Qf52FGeKPwWeewYdj4AYGYAAGYAAGYAAGlssA4g/xh/gb8JJaBsTlDojYG3vDAAzAAAzAAAxMmQHEH+IP8Yf468zAlAdJ2sYkAAZgAAZgAAZgYCoMjFf8Xf8rdXLyQP3lj5uewvO8+stP/l6dnJSfn70WPNly7y8e1PtNOv39V+onAxCGY3ngyxs//EL9+vUvi8+Pbzn3/3HPHwPmVAZM2gHLMAADMAADMAADY2ZgdOKvEmufvK/+8mfN4u8nP/t7de96LQ7l2OO/eN4RgLLNTlM80lZEI+IvF2znnr/dT9SvEX9E0oimwgAMwAAMwAAMwAAMDI6B0Yk/+30jP2kSfz9+Xx0Hkb5MURc9thaRdh0W/Xsskb/qaZ+Iv8F18lwRTzquZMIADMAADMAADMDAtBlA/EWWdsajgYi/1GBA5G/ag0TK72zH7zAAAzAAAzAAAzAwLgamK/62N1UQGfzx++qet+wzjNxlRgcjojHMq7tgJPI3rg7FAIi/YAAGYAAGYAAGYAAGhsrApMXf1vZr6t6sD3GRJZ+fvK/2liTu2gQj4o/BY6iDB/WCTRiAARiAARiAARgYFwMTFn8SwfMeCJNxL1/soTBtAm2R+xF/4+pQDID4CwZgAAZgAAZgAAZgYKgMTFf8RYVe+5LOYKnoiiOAiD8Gj6EOHtQLNmEABmAABmAABmBgXAxMWvzF7u/7yc+aXuHwmro3oCWfElFE/I2rQzEA4i8YgAEYgAEYgAEYgIGhMjBd8bcdifJFo4HWQ1mu/1XwHsBFLunMyRvxx+Ax1MGDesEmDMAADMAADMAADIyLgdGJP7kn78R5iMvfl/+9+/tkuaaIPSdtU9Qv8nTQFS/5JPI3rs7E4Ie/YAAGYAAGYAAGYAAGhszA6MRfTrRsSmmI/DGADHkAoW7wCQMwAAMwAAMwAAPjYQDxN4DoXpNYHYv4e+OHX6hfv/5l8fnxLfXc93+v+shL4BkUxjMo4Ct8BQMwAAMwAAMwAAPTZADxh/jrLMxE3Nliz/+N+Jvm4MFJAb/CAAzAAAzAAAzAwLgYQPwh/hB/Z8bVaRlk8RcMwAAMwAAMwAAMwMA8DCD+EH+IP8RfZwbmGXw4hpMWDMAADMAADMAADCyXAcQf4q/zxJ9ln8vttAyS2BsGYAAGYAAGYAAGYGAeBhB/iD/EH5G/zgzMM/hwDCctGIABGIABGIABGFguA4g/xF/nib9E/to+dOzldmzsjb1hAAZgAAZgAAZgAAZ8BhB/Axd/f/Huv1Btn6ZXRbBvU2EDbAADMAADMAADMAADMAADmwrxN3Dxt/Pc76q2DyAzmMEADMAADMAADMAADMAADLQxgPgbuPhrcyD76eQwAAMwAAMwAAMwAAMwAAM5DCD+EH8si4QBGIABGIABGIABGIABGFgDBhB/a+DknKsApOFqEQzAAAzAAAzAAAzAAAxMm4Hxir/zl9XR0TW1f6bJQc+o/cNb6uio/Fw5l7iikZuuqaxF7/sd9U9fbSj1ye8k2rDo8smfwRAGYAAGYAAGYAAGYAAGxszA6MTfzv61Qswd7qn9K83ib/fKLXVwvgZUjr2x/0wgnnLTDcHRf/vJb6lfvVK3aQh1og74AwZgAAZgAAZgAAZgAAaGz8DoxJ8N1W6T+Duzp24EkT6J8F1Wu/ZSz9x09jEr/P23n2yof/pfwwfL9hO/8RcMwAAMwAAMwAAMwAAMrJ4BxB/iL4iE0jFX3zHxAT6AARiAARiAARiAARjom4Hpir/tTRVEBs/sqYPosk9v+WgiXd/Gnyc/In8MAvNwwzFwAwMwAAMwAAMwAAMwMGnxt7V9Th2Yh73ob2/JZ7V8Mzfd6oF5///8Fss+K7+t3h8MovgABmAABmAABmAABmBgLAxMWPzJ/X1hRC9+H2BOuqFA/bvqV/+Xp36OpYNRz6H0G+oBizAAAzAAAzAAAzAwXfGXey9fbrqBRJuI/NFpGbhhAAZgAAZgAAZgAAZgYB4GJi3+4vf3eUs/E/f37V7x0g1E/HHPHx19no7OMXADAzAAAzAAAzAAAzAwXfG33eG1DtFo4DBgQfwNww8MnvgBBmAABmAABmAABmBgbAyMTvxVL3l3HuRySx0defftSaRORJyTLhHNy003gOgf4o9BZmyDDPWFWRiAARiAARiAARgYBgOjE3/rDY487OW31K9eGQY86+0LfID/YQAGYAAGYAAGYAAGxsUA4m8A0by8TvM76p++4imfebYaVyekTfgLBmAABmAABmAABmBgGQwg/kYj/ugQy+gQlAFnMAADMAADMAADMAADU2UA8Yf4U1OFm3YxcMMADMAADMAADMAADMBAzQDiD/GH+IMBGIABGIABGIABGIABGFgDBhB/a+BkrnbUVzuwBbaAARiAARiAARiAARhYVwYQf4g/rvLAAAzAAAzAAAzAAAzAAAysAQOIvzVw8rpe2aDdXNWDARiAARiAARiAARiAgZoBxB/ij6s8MAADMAADMAADMAADMAADa8AA4m8NnMzVjvpqB7bAFjAAAzAAAzAAAzAAA+vKAOIP8cdVHhiAARiAARiAARiAARiAgTVgAPG3Bk5e1ysbtJurejAAAzAAAzAAAzAAAzBQM4D4Q/xxlQcGYAAGYAAGYAAGYAAGYGANGED8rYGTudpRX+3AFtgCBmAABmAABmAABmBgXRlA/CH+uMoDAzAAAzAAAzAAAzAAAzCwBgwg/tbAyet6ZYN2c1UPBmAABmAABmAABmAABmoGEH+IP67ywAAMwAAMwAAMwAAMwAAMrAED/x815mFfnbCT2AAAAABJRU5ErkJggg==;" vertex="1" parent="1">
          <mxGeometry x="212.5" y="620" width="375" height="196.51" as="geometry" />
        </mxCell>
        <mxCell id="e7UA-xVsm7CpeUVflzim-12" value="上传到远程对应目录" style="text;html=1;strokeColor=none;fillColor=none;align=center;verticalAlign=middle;whiteSpace=wrap;rounded=0;imageHeight=24;imageWidth=24;" vertex="1" parent="1">
          <mxGeometry x="260" y="600" width="280" height="20" as="geometry" />
        </mxCell>
      </root>
    </mxGraphModel>
  </diagram>
</mxfile>
